<svg xmlns="http://www.w3.org/2000/svg" xmlns:xlink="http://www.w3.org/1999/xlink" width="536" zoomAndPan="magnify" viewBox="0 0 402 369.749991" height="493" preserveAspectRatio="xMidYMid meet" version="1.0"><defs><clipPath id="640b37afe4"><path d="M 68.269531 90.660156 L 311.488281 90.660156 L 311.488281 284.625 L 68.269531 284.625 Z M 68.269531 90.660156 " clip-rule="nonzero"/></clipPath><clipPath id="3c0df5a255"><path d="M 189.6875 90.660156 C 122.632812 90.660156 68.269531 134.082031 68.269531 187.640625 C 68.269531 241.203125 122.632812 284.625 189.6875 284.625 C 256.746094 284.625 311.105469 241.203125 311.105469 187.640625 C 311.105469 134.082031 256.746094 90.660156 189.6875 90.660156 Z M 189.6875 90.660156 " clip-rule="nonzero"/></clipPath><clipPath id="485199b0b1"><path d="M 0.269531 0.660156 L 243 0.660156 L 243 194.625 L 0.269531 194.625 Z M 0.269531 0.660156 " clip-rule="nonzero"/></clipPath><clipPath id="d2b288fa6c"><path d="M 121.6875 0.660156 C 54.632812 0.660156 0.269531 44.082031 0.269531 97.640625 C 0.269531 151.203125 54.632812 194.625 121.6875 194.625 C 188.746094 194.625 243.105469 151.203125 243.105469 97.640625 C 243.105469 44.082031 188.746094 0.660156 121.6875 0.660156 Z M 121.6875 0.660156 " clip-rule="nonzero"/></clipPath><clipPath id="a05c81a4a6"><rect x="0" width="244" y="0" height="195"/></clipPath><clipPath id="9d60ae9a06"><path d="M 143.273438 139.871094 L 162.035156 139.871094 L 162.035156 160.835938 L 143.273438 160.835938 Z M 143.273438 139.871094 " clip-rule="nonzero"/></clipPath><clipPath id="ba47930530"><path d="M 145.367188 139.902344 C 151.664062 144.699219 158.484375 153.390625 160.433594 156.539062 C 161.332031 157.890625 162.15625 158.9375 161.929688 159.6875 C 161.78125 160.210938 160.957031 160.738281 160.433594 160.738281 C 160.058594 160.738281 159.457031 160.4375 159.234375 160.0625 C 159.007812 159.6875 158.933594 159.015625 159.15625 158.640625 C 159.308594 158.265625 159.832031 157.890625 160.207031 157.816406 C 160.65625 157.664062 161.257812 157.890625 161.554688 158.1875 C 161.855469 158.488281 162.082031 159.089844 162.003906 159.539062 C 161.929688 159.914062 161.480469 160.4375 161.105469 160.664062 C 160.730469 160.8125 160.28125 160.8125 159.683594 160.511719 C 157.359375 159.238281 149.863281 146.796875 146.792969 144.097656 C 145.441406 142.898438 143.867188 142.972656 143.492188 142.148438 C 143.195312 141.550781 143.34375 140.5 143.644531 140.125 C 144.019531 139.828125 145.367188 139.902344 145.367188 139.902344 " clip-rule="nonzero"/></clipPath><clipPath id="ad35b3f496"><path d="M 0.273438 0.871094 L 19.035156 0.871094 L 19.035156 21.835938 L 0.273438 21.835938 Z M 0.273438 0.871094 " clip-rule="nonzero"/></clipPath><clipPath id="2e54add4f2"><path d="M 2.367188 0.902344 C 8.664062 5.699219 15.484375 14.390625 17.433594 17.539062 C 18.332031 18.890625 19.15625 19.9375 18.929688 20.6875 C 18.78125 21.210938 17.957031 21.738281 17.433594 21.738281 C 17.058594 21.738281 16.457031 21.4375 16.234375 21.0625 C 16.007812 20.6875 15.933594 20.015625 16.15625 19.640625 C 16.308594 19.265625 16.832031 18.890625 17.207031 18.816406 C 17.65625 18.664062 18.257812 18.890625 18.554688 19.1875 C 18.855469 19.488281 19.082031 20.089844 19.003906 20.539062 C 18.929688 20.914062 18.480469 21.4375 18.105469 21.664062 C 17.730469 21.8125 17.28125 21.8125 16.683594 21.511719 C 14.359375 20.238281 6.863281 7.796875 3.792969 5.097656 C 2.441406 3.898438 0.867188 3.972656 0.492188 3.148438 C 0.195312 2.550781 0.34375 1.5 0.644531 1.125 C 1.019531 0.828125 2.367188 0.902344 2.367188 0.902344 " clip-rule="nonzero"/></clipPath><clipPath id="0f9f89e00d"><rect x="0" width="20" y="0" height="22"/></clipPath><clipPath id="f0a51d7eec"><path d="M 113 126 L 167 126 L 167 156 L 113 156 Z M 113 126 " clip-rule="nonzero"/></clipPath><clipPath id="0b74521b3e"><path d="M 112.109375 151.964844 L 115.964844 123.492188 L 168.125 130.558594 L 164.265625 159.027344 Z M 112.109375 151.964844 " clip-rule="nonzero"/></clipPath><clipPath id="10bd56c306"><path d="M 114.035156 137.726562 C 112.972656 145.589844 123.78125 153.546875 138.183594 155.496094 C 152.585938 157.445312 165.125 152.652344 166.191406 144.792969 C 167.253906 136.929688 156.441406 128.976562 142.039062 127.023438 C 127.640625 125.074219 115.101562 129.867188 114.035156 137.726562 Z M 114.035156 137.726562 " clip-rule="nonzero"/></clipPath><clipPath id="5d8f1085d0"><path d="M 0 0 L 54 0 L 54 30 L 0 30 Z M 0 0 " clip-rule="nonzero"/></clipPath><clipPath id="ed7e4b006a"><path d="M -0.890625 25.964844 L 2.964844 -2.507812 L 55.125 4.558594 L 51.265625 33.027344 Z M -0.890625 25.964844 " clip-rule="nonzero"/></clipPath><clipPath id="a3906c64fb"><path d="M 1.035156 11.726562 C -0.0273438 19.589844 10.78125 27.546875 25.183594 29.496094 C 39.585938 31.445312 52.125 26.652344 53.191406 18.792969 C 54.253906 10.929688 43.441406 2.976562 29.039062 1.023438 C 14.640625 -0.925781 2.101562 3.867188 1.035156 11.726562 Z M 1.035156 11.726562 " clip-rule="nonzero"/></clipPath><clipPath id="d40aa69eeb"><rect x="0" width="54" y="0" height="30"/></clipPath><clipPath id="0f0e6c2968"><path d="M 115 127 L 165 127 L 165 156 L 115 156 Z M 115 127 " clip-rule="nonzero"/></clipPath><clipPath id="9134af3953"><path d="M 113.746094 151.335938 L 117.378906 124.527344 L 166.492188 131.179688 L 162.859375 157.988281 Z M 113.746094 151.335938 " clip-rule="nonzero"/></clipPath><clipPath id="c6918b24a9"><path d="M 115.5625 137.933594 C 114.558594 145.335938 124.738281 152.828125 138.300781 154.664062 C 151.863281 156.5 163.667969 151.988281 164.671875 144.585938 C 165.671875 137.179688 155.492188 129.691406 141.929688 127.855469 C 128.371094 126.019531 116.566406 130.53125 115.5625 137.933594 Z M 115.5625 137.933594 " clip-rule="nonzero"/></clipPath><clipPath id="97322916d2"><path d="M 0 0 L 50 0 L 50 29 L 0 29 Z M 0 0 " clip-rule="nonzero"/></clipPath><clipPath id="b90f41a2f0"><path d="M -1.253906 24.335938 L 2.378906 -2.472656 L 51.492188 4.179688 L 47.859375 30.988281 Z M -1.253906 24.335938 " clip-rule="nonzero"/></clipPath><clipPath id="6b73a5524a"><path d="M 0.5625 10.933594 C -0.441406 18.335938 9.738281 25.828125 23.300781 27.664062 C 36.863281 29.5 48.667969 24.988281 49.671875 17.585938 C 50.671875 10.179688 40.492188 2.691406 26.929688 0.855469 C 13.371094 -0.980469 1.566406 3.53125 0.5625 10.933594 Z M 0.5625 10.933594 " clip-rule="nonzero"/></clipPath><clipPath id="dc231d7ed7"><rect x="0" width="50" y="0" height="29"/></clipPath><clipPath id="ebd2542b7a"><path d="M 209 127 L 262 127 L 262 157 L 209 157 Z M 209 127 " clip-rule="nonzero"/></clipPath><clipPath id="efd563bd37"><path d="M 210.363281 158.394531 L 207.976562 129.765625 L 260.429688 125.390625 L 262.816406 154.023438 Z M 210.363281 158.394531 " clip-rule="nonzero"/></clipPath><clipPath id="9ce5c040a9"><path d="M 209.167969 144.082031 C 209.828125 151.988281 222.101562 157.417969 236.585938 156.210938 C 251.070312 155.003906 262.277344 147.613281 261.617188 139.707031 C 260.957031 131.800781 248.683594 126.371094 234.199219 127.578125 C 219.714844 128.785156 208.511719 136.175781 209.167969 144.082031 Z M 209.167969 144.082031 " clip-rule="nonzero"/></clipPath><clipPath id="d1ef9fbf36"><path d="M 0 0 L 53 0 L 53 30 L 0 30 Z M 0 0 " clip-rule="nonzero"/></clipPath><clipPath id="993aaecce5"><path d="M 1.363281 31.394531 L -1.023438 2.765625 L 51.429688 -1.609375 L 53.816406 27.023438 Z M 1.363281 31.394531 " clip-rule="nonzero"/></clipPath><clipPath id="c0273073cf"><path d="M 0.167969 17.082031 C 0.828125 24.988281 13.101562 30.417969 27.585938 29.210938 C 42.070312 28.003906 53.277344 20.613281 52.617188 12.707031 C 51.957031 4.800781 39.683594 -0.628906 25.199219 0.578125 C 10.714844 1.785156 -0.488281 9.175781 0.167969 17.082031 Z M 0.167969 17.082031 " clip-rule="nonzero"/></clipPath><clipPath id="91fe80c952"><rect x="0" width="53" y="0" height="30"/></clipPath><clipPath id="dc22ec01fd"><path d="M 210 128 L 261 128 L 261 156 L 210 156 Z M 210 128 " clip-rule="nonzero"/></clipPath><clipPath id="a352e45cd4"><path d="M 211.828125 157.429688 L 209.582031 130.472656 L 258.972656 126.355469 L 261.21875 153.3125 Z M 211.828125 157.429688 " clip-rule="nonzero"/></clipPath><clipPath id="06013874f5"><path d="M 210.703125 143.949219 C 211.324219 151.394531 222.882812 156.507812 236.519531 155.371094 C 250.15625 154.234375 260.710938 147.277344 260.089844 139.835938 C 259.46875 132.390625 247.910156 127.277344 234.273438 128.414062 C 220.636719 129.550781 210.082031 136.507812 210.703125 143.949219 Z M 210.703125 143.949219 " clip-rule="nonzero"/></clipPath><clipPath id="62430c3fc9"><path d="M 0 0 L 50.839844 0 L 50.839844 28 L 0 28 Z M 0 0 " clip-rule="nonzero"/></clipPath><clipPath id="8594108adc"><path d="M 1.828125 29.429688 L -0.417969 2.472656 L 48.972656 -1.644531 L 51.21875 25.3125 Z M 1.828125 29.429688 " clip-rule="nonzero"/></clipPath><clipPath id="03473aa645"><path d="M 0.703125 15.949219 C 1.324219 23.394531 12.882812 28.507812 26.519531 27.371094 C 40.15625 26.234375 50.710938 19.277344 50.089844 11.835938 C 49.46875 4.390625 37.910156 -0.722656 24.273438 0.414062 C 10.636719 1.550781 0.0820312 8.507812 0.703125 15.949219 Z M 0.703125 15.949219 " clip-rule="nonzero"/></clipPath><clipPath id="b5bf31bf04"><rect x="0" width="51" y="0" height="28"/></clipPath><clipPath id="3c3661e02b"><path d="M 170.390625 141.898438 L 205.304688 141.898438 L 205.304688 163.382812 L 170.390625 163.382812 Z M 170.390625 141.898438 " clip-rule="nonzero"/></clipPath><clipPath id="c40bfb65a2"><path d="M 184.636719 141.898438 L 190.996094 141.898438 L 205.242188 163.382812 L 170.390625 163.382812 Z M 184.636719 141.898438 " clip-rule="nonzero"/></clipPath><clipPath id="ac801a74cd"><path d="M 0.390625 0.898438 L 35.21875 0.898438 L 35.21875 22.382812 L 0.390625 22.382812 Z M 0.390625 0.898438 " clip-rule="nonzero"/></clipPath><clipPath id="f6988a1a24"><path d="M 14.636719 0.898438 L 20.996094 0.898438 L 35.242188 22.382812 L 0.390625 22.382812 Z M 14.636719 0.898438 " clip-rule="nonzero"/></clipPath><linearGradient x1="207.638" gradientTransform="matrix(0.0839237, 0, 0, 0.0839237, 0.391744, 0.897228)" y1="255.999985" x2="207.638" gradientUnits="userSpaceOnUse" y2="-0.000000000000227374" id="6c18d7cb5f"><stop stop-opacity="1" stop-color="rgb(23.529053%, 14.898682%, 14.898682%)" offset="0"/><stop stop-opacity="1" stop-color="rgb(23.939514%, 15.238953%, 15.190125%)" offset="0.00390625"/><stop stop-opacity="1" stop-color="rgb(24.349976%, 15.579224%, 15.481567%)" offset="0.0078125"/><stop stop-opacity="1" stop-color="rgb(24.760437%, 15.919495%, 15.771484%)" offset="0.0117188"/><stop stop-opacity="1" stop-color="rgb(25.170898%, 16.259766%, 16.062927%)" offset="0.015625"/><stop stop-opacity="1" stop-color="rgb(25.58136%, 16.600037%, 16.35437%)" offset="0.0195312"/><stop stop-opacity="1" stop-color="rgb(25.991821%, 16.940308%, 16.645813%)" offset="0.0234375"/><stop stop-opacity="1" stop-color="rgb(26.402283%, 17.279053%, 16.937256%)" offset="0.0273438"/><stop stop-opacity="1" stop-color="rgb(26.81427%, 17.619324%, 17.228699%)" offset="0.03125"/><stop stop-opacity="1" stop-color="rgb(27.224731%, 17.959595%, 17.518616%)" offset="0.0351563"/><stop stop-opacity="1" stop-color="rgb(27.635193%, 18.299866%, 17.810059%)" offset="0.0390625"/><stop stop-opacity="1" stop-color="rgb(28.045654%, 18.640137%, 18.101501%)" offset="0.0429687"/><stop stop-opacity="1" stop-color="rgb(28.456116%, 18.980408%, 18.392944%)" offset="0.046875"/><stop stop-opacity="1" stop-color="rgb(28.866577%, 19.320679%, 18.682861%)" offset="0.0507813"/><stop stop-opacity="1" stop-color="rgb(29.277039%, 19.66095%, 18.974304%)" offset="0.0546875"/><stop stop-opacity="1" stop-color="rgb(29.6875%, 19.999695%, 19.265747%)" offset="0.0585937"/><stop stop-opacity="1" stop-color="rgb(30.097961%, 20.339966%, 19.55719%)" offset="0.0625"/><stop stop-opacity="1" stop-color="rgb(30.508423%, 20.680237%, 19.847107%)" offset="0.0664062"/><stop stop-opacity="1" stop-color="rgb(30.918884%, 21.020508%, 20.13855%)" offset="0.0703125"/><stop stop-opacity="1" stop-color="rgb(31.329346%, 21.360779%, 20.429993%)" offset="0.0742188"/><stop stop-opacity="1" stop-color="rgb(31.739807%, 21.70105%, 20.721436%)" offset="0.078125"/><stop stop-opacity="1" stop-color="rgb(32.150269%, 22.041321%, 21.011353%)" offset="0.0820312"/><stop stop-opacity="1" stop-color="rgb(32.56073%, 22.381592%, 21.302795%)" offset="0.0859375"/><stop stop-opacity="1" stop-color="rgb(32.971191%, 22.720337%, 21.594238%)" offset="0.0898438"/><stop stop-opacity="1" stop-color="rgb(33.381653%, 23.060608%, 21.885681%)" offset="0.09375"/><stop stop-opacity="1" stop-color="rgb(33.792114%, 23.400879%, 22.175598%)" offset="0.0976562"/><stop stop-opacity="1" stop-color="rgb(34.204102%, 23.74115%, 22.467041%)" offset="0.101563"/><stop stop-opacity="1" stop-color="rgb(34.614563%, 24.081421%, 22.758484%)" offset="0.105469"/><stop stop-opacity="1" stop-color="rgb(35.025024%, 24.421692%, 23.049927%)" offset="0.109375"/><stop stop-opacity="1" stop-color="rgb(35.435486%, 24.761963%, 23.34137%)" offset="0.113281"/><stop stop-opacity="1" stop-color="rgb(35.845947%, 25.102234%, 23.632812%)" offset="0.117187"/><stop stop-opacity="1" stop-color="rgb(36.256409%, 25.440979%, 23.922729%)" offset="0.121094"/><stop stop-opacity="1" stop-color="rgb(36.66687%, 25.78125%, 24.214172%)" offset="0.125"/><stop stop-opacity="1" stop-color="rgb(37.077332%, 26.121521%, 24.505615%)" offset="0.128906"/><stop stop-opacity="1" stop-color="rgb(37.487793%, 26.461792%, 24.797058%)" offset="0.132812"/><stop stop-opacity="1" stop-color="rgb(37.898254%, 26.802063%, 25.086975%)" offset="0.136719"/><stop stop-opacity="1" stop-color="rgb(38.308716%, 27.142334%, 25.378418%)" offset="0.140625"/><stop stop-opacity="1" stop-color="rgb(38.719177%, 27.482605%, 25.669861%)" offset="0.144531"/><stop stop-opacity="1" stop-color="rgb(39.129639%, 27.822876%, 25.961304%)" offset="0.148438"/><stop stop-opacity="1" stop-color="rgb(39.5401%, 28.161621%, 26.251221%)" offset="0.152344"/><stop stop-opacity="1" stop-color="rgb(39.950562%, 28.501892%, 26.542664%)" offset="0.15625"/><stop stop-opacity="1" stop-color="rgb(40.361023%, 28.842163%, 26.834106%)" offset="0.160156"/><stop stop-opacity="1" stop-color="rgb(40.771484%, 29.182434%, 27.125549%)" offset="0.164062"/><stop stop-opacity="1" stop-color="rgb(41.181946%, 29.522705%, 27.415466%)" offset="0.167969"/><stop stop-opacity="1" stop-color="rgb(41.593933%, 29.862976%, 27.706909%)" offset="0.171875"/><stop stop-opacity="1" stop-color="rgb(42.004395%, 30.203247%, 27.998352%)" offset="0.175781"/><stop stop-opacity="1" stop-color="rgb(42.414856%, 30.543518%, 28.289795%)" offset="0.179688"/><stop stop-opacity="1" stop-color="rgb(42.825317%, 30.882263%, 28.579712%)" offset="0.183594"/><stop stop-opacity="1" stop-color="rgb(43.235779%, 31.222534%, 28.871155%)" offset="0.1875"/><stop stop-opacity="1" stop-color="rgb(43.64624%, 31.562805%, 29.162598%)" offset="0.191406"/><stop stop-opacity="1" stop-color="rgb(44.056702%, 31.903076%, 29.454041%)" offset="0.195312"/><stop stop-opacity="1" stop-color="rgb(44.467163%, 32.243347%, 29.743958%)" offset="0.199219"/><stop stop-opacity="1" stop-color="rgb(44.877625%, 32.583618%, 30.0354%)" offset="0.203125"/><stop stop-opacity="1" stop-color="rgb(45.288086%, 32.923889%, 30.326843%)" offset="0.207031"/><stop stop-opacity="1" stop-color="rgb(45.698547%, 33.26416%, 30.618286%)" offset="0.210938"/><stop stop-opacity="1" stop-color="rgb(46.109009%, 33.602905%, 30.909729%)" offset="0.214844"/><stop stop-opacity="1" stop-color="rgb(46.51947%, 33.943176%, 31.201172%)" offset="0.21875"/><stop stop-opacity="1" stop-color="rgb(46.929932%, 34.283447%, 31.491089%)" offset="0.222656"/><stop stop-opacity="1" stop-color="rgb(47.340393%, 34.623718%, 31.782532%)" offset="0.226562"/><stop stop-opacity="1" stop-color="rgb(47.750854%, 34.963989%, 32.073975%)" offset="0.230469"/><stop stop-opacity="1" stop-color="rgb(48.161316%, 35.30426%, 32.365417%)" offset="0.234375"/><stop stop-opacity="1" stop-color="rgb(48.571777%, 35.644531%, 32.655334%)" offset="0.238281"/><stop stop-opacity="1" stop-color="rgb(48.983765%, 35.984802%, 32.946777%)" offset="0.242188"/><stop stop-opacity="1" stop-color="rgb(49.394226%, 36.323547%, 33.23822%)" offset="0.246094"/><stop stop-opacity="1" stop-color="rgb(49.804688%, 36.663818%, 33.529663%)" offset="0.25"/><stop stop-opacity="1" stop-color="rgb(50.215149%, 37.004089%, 33.81958%)" offset="0.253906"/><stop stop-opacity="1" stop-color="rgb(50.62561%, 37.34436%, 34.111023%)" offset="0.257813"/><stop stop-opacity="1" stop-color="rgb(51.036072%, 37.684631%, 34.402466%)" offset="0.261719"/><stop stop-opacity="1" stop-color="rgb(51.446533%, 38.024902%, 34.693909%)" offset="0.265625"/><stop stop-opacity="1" stop-color="rgb(51.856995%, 38.365173%, 34.983826%)" offset="0.269531"/><stop stop-opacity="1" stop-color="rgb(52.267456%, 38.705444%, 35.275269%)" offset="0.273438"/><stop stop-opacity="1" stop-color="rgb(52.677917%, 39.044189%, 35.566711%)" offset="0.277344"/><stop stop-opacity="1" stop-color="rgb(53.088379%, 39.38446%, 35.858154%)" offset="0.28125"/><stop stop-opacity="1" stop-color="rgb(53.49884%, 39.724731%, 36.148071%)" offset="0.285156"/><stop stop-opacity="1" stop-color="rgb(53.909302%, 40.065002%, 36.439514%)" offset="0.289062"/><stop stop-opacity="1" stop-color="rgb(54.319763%, 40.405273%, 36.730957%)" offset="0.292969"/><stop stop-opacity="1" stop-color="rgb(54.730225%, 40.745544%, 37.0224%)" offset="0.296875"/><stop stop-opacity="1" stop-color="rgb(55.140686%, 41.085815%, 37.313843%)" offset="0.300781"/><stop stop-opacity="1" stop-color="rgb(55.551147%, 41.426086%, 37.605286%)" offset="0.304688"/><stop stop-opacity="1" stop-color="rgb(55.961609%, 41.764832%, 37.895203%)" offset="0.308594"/><stop stop-opacity="1" stop-color="rgb(56.373596%, 42.105103%, 38.186646%)" offset="0.3125"/><stop stop-opacity="1" stop-color="rgb(56.784058%, 42.445374%, 38.478088%)" offset="0.316406"/><stop stop-opacity="1" stop-color="rgb(57.194519%, 42.785645%, 38.769531%)" offset="0.320312"/><stop stop-opacity="1" stop-color="rgb(57.60498%, 43.125916%, 39.059448%)" offset="0.324219"/><stop stop-opacity="1" stop-color="rgb(58.015442%, 43.466187%, 39.350891%)" offset="0.328125"/><stop stop-opacity="1" stop-color="rgb(58.425903%, 43.804932%, 39.642334%)" offset="0.332031"/><stop stop-opacity="1" stop-color="rgb(58.836365%, 44.145203%, 39.933777%)" offset="0.335938"/><stop stop-opacity="1" stop-color="rgb(59.246826%, 44.485474%, 40.223694%)" offset="0.339844"/><stop stop-opacity="1" stop-color="rgb(59.657288%, 44.825745%, 40.515137%)" offset="0.34375"/><stop stop-opacity="1" stop-color="rgb(60.067749%, 45.166016%, 40.80658%)" offset="0.347656"/><stop stop-opacity="1" stop-color="rgb(60.47821%, 45.506287%, 41.098022%)" offset="0.351562"/><stop stop-opacity="1" stop-color="rgb(60.888672%, 45.846558%, 41.387939%)" offset="0.355469"/><stop stop-opacity="1" stop-color="rgb(61.299133%, 46.186829%, 41.679382%)" offset="0.359375"/><stop stop-opacity="1" stop-color="rgb(61.709595%, 46.525574%, 41.970825%)" offset="0.363281"/><stop stop-opacity="1" stop-color="rgb(62.120056%, 46.865845%, 42.262268%)" offset="0.367187"/><stop stop-opacity="1" stop-color="rgb(62.530518%, 47.206116%, 42.552185%)" offset="0.371094"/><stop stop-opacity="1" stop-color="rgb(62.940979%, 47.546387%, 42.843628%)" offset="0.375"/><stop stop-opacity="1" stop-color="rgb(63.35144%, 47.886658%, 43.135071%)" offset="0.378906"/><stop stop-opacity="1" stop-color="rgb(63.763428%, 48.226929%, 43.426514%)" offset="0.382813"/><stop stop-opacity="1" stop-color="rgb(64.173889%, 48.5672%, 43.716431%)" offset="0.386719"/><stop stop-opacity="1" stop-color="rgb(64.584351%, 48.907471%, 44.007874%)" offset="0.390625"/><stop stop-opacity="1" stop-color="rgb(64.994812%, 49.246216%, 44.299316%)" offset="0.394531"/><stop stop-opacity="1" stop-color="rgb(65.405273%, 49.586487%, 44.590759%)" offset="0.398438"/><stop stop-opacity="1" stop-color="rgb(65.815735%, 49.926758%, 44.882202%)" offset="0.402344"/><stop stop-opacity="1" stop-color="rgb(66.226196%, 50.267029%, 45.173645%)" offset="0.40625"/><stop stop-opacity="1" stop-color="rgb(66.636658%, 50.6073%, 45.463562%)" offset="0.410156"/><stop stop-opacity="1" stop-color="rgb(67.047119%, 50.947571%, 45.755005%)" offset="0.414062"/><stop stop-opacity="1" stop-color="rgb(67.457581%, 51.287842%, 46.046448%)" offset="0.417969"/><stop stop-opacity="1" stop-color="rgb(67.868042%, 51.628113%, 46.337891%)" offset="0.421875"/><stop stop-opacity="1" stop-color="rgb(68.278503%, 51.966858%, 46.627808%)" offset="0.425781"/><stop stop-opacity="1" stop-color="rgb(68.688965%, 52.307129%, 46.91925%)" offset="0.429688"/><stop stop-opacity="1" stop-color="rgb(69.099426%, 52.6474%, 47.210693%)" offset="0.433594"/><stop stop-opacity="1" stop-color="rgb(69.509888%, 52.987671%, 47.502136%)" offset="0.4375"/><stop stop-opacity="1" stop-color="rgb(69.920349%, 53.327942%, 47.792053%)" offset="0.441406"/><stop stop-opacity="1" stop-color="rgb(70.332336%, 53.668213%, 48.083496%)" offset="0.445312"/><stop stop-opacity="1" stop-color="rgb(70.742798%, 54.008484%, 48.374939%)" offset="0.449219"/><stop stop-opacity="1" stop-color="rgb(71.153259%, 54.348755%, 48.666382%)" offset="0.453125"/><stop stop-opacity="1" stop-color="rgb(71.563721%, 54.6875%, 48.956299%)" offset="0.457031"/><stop stop-opacity="1" stop-color="rgb(71.974182%, 55.027771%, 49.247742%)" offset="0.460938"/><stop stop-opacity="1" stop-color="rgb(72.384644%, 55.368042%, 49.539185%)" offset="0.464844"/><stop stop-opacity="1" stop-color="rgb(72.795105%, 55.708313%, 49.830627%)" offset="0.46875"/><stop stop-opacity="1" stop-color="rgb(73.205566%, 56.048584%, 50.120544%)" offset="0.472656"/><stop stop-opacity="1" stop-color="rgb(73.616028%, 56.388855%, 50.411987%)" offset="0.476562"/><stop stop-opacity="1" stop-color="rgb(74.026489%, 56.729126%, 50.70343%)" offset="0.480469"/><stop stop-opacity="1" stop-color="rgb(74.436951%, 57.069397%, 50.994873%)" offset="0.484375"/><stop stop-opacity="1" stop-color="rgb(74.847412%, 57.408142%, 51.286316%)" offset="0.488281"/><stop stop-opacity="1" stop-color="rgb(75.257874%, 57.748413%, 51.577759%)" offset="0.492187"/><stop stop-opacity="1" stop-color="rgb(75.668335%, 58.088684%, 51.867676%)" offset="0.496094"/><stop stop-opacity="1" stop-color="rgb(76.078796%, 58.428955%, 52.159119%)" offset="0.5"/><stop stop-opacity="1" stop-color="rgb(76.234436%, 58.685303%, 52.284241%)" offset="0.503906"/><stop stop-opacity="1" stop-color="rgb(76.391602%, 58.943176%, 52.410889%)" offset="0.507812"/><stop stop-opacity="1" stop-color="rgb(76.547241%, 59.20105%, 52.536011%)" offset="0.511719"/><stop stop-opacity="1" stop-color="rgb(76.704407%, 59.458923%, 52.661133%)" offset="0.515625"/><stop stop-opacity="1" stop-color="rgb(76.860046%, 59.715271%, 52.786255%)" offset="0.519531"/><stop stop-opacity="1" stop-color="rgb(77.017212%, 59.973145%, 52.912903%)" offset="0.523438"/><stop stop-opacity="1" stop-color="rgb(77.172852%, 60.229492%, 53.038025%)" offset="0.527344"/><stop stop-opacity="1" stop-color="rgb(77.328491%, 60.487366%, 53.164673%)" offset="0.53125"/><stop stop-opacity="1" stop-color="rgb(77.484131%, 60.745239%, 53.289795%)" offset="0.535156"/><stop stop-opacity="1" stop-color="rgb(77.641296%, 61.003113%, 53.414917%)" offset="0.539063"/><stop stop-opacity="1" stop-color="rgb(77.796936%, 61.25946%, 53.540039%)" offset="0.542969"/><stop stop-opacity="1" stop-color="rgb(77.954102%, 61.517334%, 53.666687%)" offset="0.546875"/><stop stop-opacity="1" stop-color="rgb(78.109741%, 61.773682%, 53.791809%)" offset="0.550781"/><stop stop-opacity="1" stop-color="rgb(78.266907%, 62.031555%, 53.918457%)" offset="0.554688"/><stop stop-opacity="1" stop-color="rgb(78.422546%, 62.289429%, 54.043579%)" offset="0.558594"/><stop stop-opacity="1" stop-color="rgb(78.579712%, 62.547302%, 54.168701%)" offset="0.5625"/><stop stop-opacity="1" stop-color="rgb(78.735352%, 62.80365%, 54.293823%)" offset="0.566406"/><stop stop-opacity="1" stop-color="rgb(78.890991%, 63.061523%, 54.420471%)" offset="0.570312"/><stop stop-opacity="1" stop-color="rgb(79.046631%, 63.317871%, 54.545593%)" offset="0.574219"/><stop stop-opacity="1" stop-color="rgb(79.203796%, 63.575745%, 54.672241%)" offset="0.578125"/><stop stop-opacity="1" stop-color="rgb(79.359436%, 63.833618%, 54.797363%)" offset="0.582031"/><stop stop-opacity="1" stop-color="rgb(79.516602%, 64.091492%, 54.922485%)" offset="0.585938"/><stop stop-opacity="1" stop-color="rgb(79.672241%, 64.347839%, 55.047607%)" offset="0.589844"/><stop stop-opacity="1" stop-color="rgb(79.829407%, 64.605713%, 55.174255%)" offset="0.59375"/><stop stop-opacity="1" stop-color="rgb(79.985046%, 64.862061%, 55.299377%)" offset="0.597656"/><stop stop-opacity="1" stop-color="rgb(80.142212%, 65.119934%, 55.426025%)" offset="0.601562"/><stop stop-opacity="1" stop-color="rgb(80.297852%, 65.376282%, 55.551147%)" offset="0.605469"/><stop stop-opacity="1" stop-color="rgb(80.453491%, 65.634155%, 55.67627%)" offset="0.609375"/><stop stop-opacity="1" stop-color="rgb(80.609131%, 65.892029%, 55.801392%)" offset="0.613281"/><stop stop-opacity="1" stop-color="rgb(80.766296%, 66.149902%, 55.92804%)" offset="0.617188"/><stop stop-opacity="1" stop-color="rgb(80.921936%, 66.40625%, 56.053162%)" offset="0.621094"/><stop stop-opacity="1" stop-color="rgb(81.079102%, 66.664124%, 56.17981%)" offset="0.625"/><stop stop-opacity="1" stop-color="rgb(81.234741%, 66.920471%, 56.304932%)" offset="0.628906"/><stop stop-opacity="1" stop-color="rgb(81.391907%, 67.178345%, 56.430054%)" offset="0.632812"/><stop stop-opacity="1" stop-color="rgb(81.547546%, 67.436218%, 56.555176%)" offset="0.636719"/><stop stop-opacity="1" stop-color="rgb(81.704712%, 67.694092%, 56.681824%)" offset="0.640625"/><stop stop-opacity="1" stop-color="rgb(81.860352%, 67.950439%, 56.806946%)" offset="0.644531"/><stop stop-opacity="1" stop-color="rgb(82.015991%, 68.208313%, 56.933594%)" offset="0.648438"/><stop stop-opacity="1" stop-color="rgb(82.171631%, 68.464661%, 57.058716%)" offset="0.652344"/><stop stop-opacity="1" stop-color="rgb(82.328796%, 68.722534%, 57.183838%)" offset="0.65625"/><stop stop-opacity="1" stop-color="rgb(82.484436%, 68.980408%, 57.30896%)" offset="0.660156"/><stop stop-opacity="1" stop-color="rgb(82.641602%, 69.238281%, 57.435608%)" offset="0.664062"/><stop stop-opacity="1" stop-color="rgb(82.797241%, 69.494629%, 57.56073%)" offset="0.667969"/><stop stop-opacity="1" stop-color="rgb(82.954407%, 69.752502%, 57.687378%)" offset="0.671875"/><stop stop-opacity="1" stop-color="rgb(83.110046%, 70.00885%, 57.8125%)" offset="0.675781"/><stop stop-opacity="1" stop-color="rgb(83.267212%, 70.266724%, 57.937622%)" offset="0.679688"/><stop stop-opacity="1" stop-color="rgb(83.422852%, 70.524597%, 58.062744%)" offset="0.683594"/><stop stop-opacity="1" stop-color="rgb(83.578491%, 70.782471%, 58.189392%)" offset="0.6875"/><stop stop-opacity="1" stop-color="rgb(83.734131%, 71.038818%, 58.314514%)" offset="0.691406"/><stop stop-opacity="1" stop-color="rgb(83.891296%, 71.296692%, 58.441162%)" offset="0.695312"/><stop stop-opacity="1" stop-color="rgb(84.046936%, 71.55304%, 58.566284%)" offset="0.699219"/><stop stop-opacity="1" stop-color="rgb(84.204102%, 71.810913%, 58.691406%)" offset="0.703125"/><stop stop-opacity="1" stop-color="rgb(84.359741%, 72.067261%, 58.816528%)" offset="0.707031"/><stop stop-opacity="1" stop-color="rgb(84.516907%, 72.325134%, 58.943176%)" offset="0.710937"/><stop stop-opacity="1" stop-color="rgb(84.672546%, 72.583008%, 59.068298%)" offset="0.714844"/><stop stop-opacity="1" stop-color="rgb(84.829712%, 72.840881%, 59.194946%)" offset="0.71875"/><stop stop-opacity="1" stop-color="rgb(84.985352%, 73.097229%, 59.320068%)" offset="0.722656"/><stop stop-opacity="1" stop-color="rgb(85.140991%, 73.355103%, 59.44519%)" offset="0.726562"/><stop stop-opacity="1" stop-color="rgb(85.296631%, 73.61145%, 59.570312%)" offset="0.730469"/><stop stop-opacity="1" stop-color="rgb(85.453796%, 73.869324%, 59.69696%)" offset="0.734375"/><stop stop-opacity="1" stop-color="rgb(85.609436%, 74.127197%, 59.822083%)" offset="0.738281"/><stop stop-opacity="1" stop-color="rgb(85.766602%, 74.385071%, 59.94873%)" offset="0.742188"/><stop stop-opacity="1" stop-color="rgb(85.922241%, 74.641418%, 60.073853%)" offset="0.746094"/><stop stop-opacity="1" stop-color="rgb(86.079407%, 74.899292%, 60.198975%)" offset="0.75"/><stop stop-opacity="1" stop-color="rgb(86.235046%, 75.15564%, 60.324097%)" offset="0.753906"/><stop stop-opacity="1" stop-color="rgb(86.392212%, 75.413513%, 60.450745%)" offset="0.757812"/><stop stop-opacity="1" stop-color="rgb(86.547852%, 75.671387%, 60.575867%)" offset="0.761719"/><stop stop-opacity="1" stop-color="rgb(86.703491%, 75.92926%, 60.700989%)" offset="0.765625"/><stop stop-opacity="1" stop-color="rgb(86.859131%, 76.185608%, 60.826111%)" offset="0.769531"/><stop stop-opacity="1" stop-color="rgb(87.016296%, 76.443481%, 60.952759%)" offset="0.773438"/><stop stop-opacity="1" stop-color="rgb(87.171936%, 76.699829%, 61.077881%)" offset="0.777344"/><stop stop-opacity="1" stop-color="rgb(87.329102%, 76.957703%, 61.204529%)" offset="0.78125"/><stop stop-opacity="1" stop-color="rgb(87.484741%, 77.21405%, 61.329651%)" offset="0.785156"/><stop stop-opacity="1" stop-color="rgb(87.641907%, 77.471924%, 61.454773%)" offset="0.789063"/><stop stop-opacity="1" stop-color="rgb(87.797546%, 77.729797%, 61.579895%)" offset="0.792969"/><stop stop-opacity="1" stop-color="rgb(87.954712%, 77.987671%, 61.706543%)" offset="0.796875"/><stop stop-opacity="1" stop-color="rgb(88.110352%, 78.244019%, 61.831665%)" offset="0.800781"/><stop stop-opacity="1" stop-color="rgb(88.265991%, 78.501892%, 61.958313%)" offset="0.804688"/><stop stop-opacity="1" stop-color="rgb(88.421631%, 78.75824%, 62.083435%)" offset="0.808594"/><stop stop-opacity="1" stop-color="rgb(88.578796%, 79.016113%, 62.208557%)" offset="0.8125"/><stop stop-opacity="1" stop-color="rgb(88.734436%, 79.273987%, 62.333679%)" offset="0.816406"/><stop stop-opacity="1" stop-color="rgb(88.891602%, 79.53186%, 62.460327%)" offset="0.820312"/><stop stop-opacity="1" stop-color="rgb(89.047241%, 79.788208%, 62.585449%)" offset="0.824219"/><stop stop-opacity="1" stop-color="rgb(89.204407%, 80.046082%, 62.712097%)" offset="0.828125"/><stop stop-opacity="1" stop-color="rgb(89.360046%, 80.302429%, 62.837219%)" offset="0.832031"/><stop stop-opacity="1" stop-color="rgb(89.517212%, 80.560303%, 62.962341%)" offset="0.835938"/><stop stop-opacity="1" stop-color="rgb(89.672852%, 80.818176%, 63.087463%)" offset="0.839844"/><stop stop-opacity="1" stop-color="rgb(89.828491%, 81.07605%, 63.214111%)" offset="0.84375"/><stop stop-opacity="1" stop-color="rgb(89.984131%, 81.332397%, 63.339233%)" offset="0.847656"/><stop stop-opacity="1" stop-color="rgb(90.141296%, 81.590271%, 63.465881%)" offset="0.851562"/><stop stop-opacity="1" stop-color="rgb(90.296936%, 81.846619%, 63.591003%)" offset="0.855469"/><stop stop-opacity="1" stop-color="rgb(90.454102%, 82.104492%, 63.716125%)" offset="0.859375"/><stop stop-opacity="1" stop-color="rgb(90.609741%, 82.362366%, 63.841248%)" offset="0.863281"/><stop stop-opacity="1" stop-color="rgb(90.766907%, 82.620239%, 63.967896%)" offset="0.867188"/><stop stop-opacity="1" stop-color="rgb(90.922546%, 82.876587%, 64.093018%)" offset="0.871094"/><stop stop-opacity="1" stop-color="rgb(91.079712%, 83.13446%, 64.219666%)" offset="0.875"/><stop stop-opacity="1" stop-color="rgb(91.235352%, 83.390808%, 64.344788%)" offset="0.878906"/><stop stop-opacity="1" stop-color="rgb(91.390991%, 83.648682%, 64.46991%)" offset="0.882812"/><stop stop-opacity="1" stop-color="rgb(91.546631%, 83.905029%, 64.595032%)" offset="0.886719"/><stop stop-opacity="1" stop-color="rgb(91.703796%, 84.162903%, 64.72168%)" offset="0.890625"/><stop stop-opacity="1" stop-color="rgb(91.859436%, 84.420776%, 64.846802%)" offset="0.894531"/><stop stop-opacity="1" stop-color="rgb(92.016602%, 84.67865%, 64.97345%)" offset="0.898438"/><stop stop-opacity="1" stop-color="rgb(92.172241%, 84.934998%, 65.098572%)" offset="0.902344"/><stop stop-opacity="1" stop-color="rgb(92.329407%, 85.192871%, 65.223694%)" offset="0.90625"/><stop stop-opacity="1" stop-color="rgb(92.485046%, 85.449219%, 65.348816%)" offset="0.910156"/><stop stop-opacity="1" stop-color="rgb(92.642212%, 85.707092%, 65.475464%)" offset="0.914062"/><stop stop-opacity="1" stop-color="rgb(92.797852%, 85.964966%, 65.600586%)" offset="0.917969"/><stop stop-opacity="1" stop-color="rgb(92.953491%, 86.222839%, 65.727234%)" offset="0.921875"/><stop stop-opacity="1" stop-color="rgb(93.109131%, 86.479187%, 65.852356%)" offset="0.925781"/><stop stop-opacity="1" stop-color="rgb(93.266296%, 86.737061%, 65.977478%)" offset="0.929688"/><stop stop-opacity="1" stop-color="rgb(93.421936%, 86.993408%, 66.1026%)" offset="0.933594"/><stop stop-opacity="1" stop-color="rgb(93.579102%, 87.251282%, 66.229248%)" offset="0.9375"/><stop stop-opacity="1" stop-color="rgb(93.734741%, 87.509155%, 66.35437%)" offset="0.941406"/><stop stop-opacity="1" stop-color="rgb(93.891907%, 87.767029%, 66.481018%)" offset="0.945312"/><stop stop-opacity="1" stop-color="rgb(94.047546%, 88.023376%, 66.60614%)" offset="0.949219"/><stop stop-opacity="1" stop-color="rgb(94.204712%, 88.28125%, 66.731262%)" offset="0.953125"/><stop stop-opacity="1" stop-color="rgb(94.360352%, 88.537598%, 66.856384%)" offset="0.957031"/><stop stop-opacity="1" stop-color="rgb(94.515991%, 88.795471%, 66.983032%)" offset="0.960937"/><stop stop-opacity="1" stop-color="rgb(94.671631%, 89.053345%, 67.108154%)" offset="0.964844"/><stop stop-opacity="1" stop-color="rgb(94.828796%, 89.311218%, 67.234802%)" offset="0.96875"/><stop stop-opacity="1" stop-color="rgb(94.984436%, 89.567566%, 67.359924%)" offset="0.972656"/><stop stop-opacity="1" stop-color="rgb(95.141602%, 89.825439%, 67.485046%)" offset="0.976562"/><stop stop-opacity="1" stop-color="rgb(95.297241%, 90.081787%, 67.610168%)" offset="0.980469"/><stop stop-opacity="1" stop-color="rgb(95.454407%, 90.339661%, 67.736816%)" offset="0.984375"/><stop stop-opacity="1" stop-color="rgb(95.610046%, 90.596008%, 67.861938%)" offset="0.988281"/><stop stop-opacity="1" stop-color="rgb(95.767212%, 90.853882%, 67.988586%)" offset="0.992188"/><stop stop-opacity="1" stop-color="rgb(95.922852%, 91.111755%, 68.113708%)" offset="0.996094"/><stop stop-opacity="1" stop-color="rgb(96.078491%, 91.369629%, 68.238831%)" offset="1"/></linearGradient><clipPath id="e5294390cc"><rect x="0" width="36" y="0" height="23"/></clipPath><clipPath id="a321849fe2"><path d="M 169.882812 157.582031 L 205.777344 157.582031 L 205.777344 175.5625 L 169.882812 175.5625 Z M 169.882812 157.582031 " clip-rule="nonzero"/></clipPath><clipPath id="dbb6bda69a"><path d="M 187.820312 157.582031 C 177.914062 157.582031 169.882812 161.609375 169.882812 166.574219 C 169.882812 171.539062 177.914062 175.5625 187.820312 175.5625 C 197.722656 175.5625 205.753906 171.539062 205.753906 166.574219 C 205.753906 161.609375 197.722656 157.582031 187.820312 157.582031 Z M 187.820312 157.582031 " clip-rule="nonzero"/></clipPath><clipPath id="72b23c720e"><path d="M 0.882812 0.582031 L 36.777344 0.582031 L 36.777344 18.5625 L 0.882812 18.5625 Z M 0.882812 0.582031 " clip-rule="nonzero"/></clipPath><clipPath id="5b1c64826d"><path d="M 18.820312 0.582031 C 8.914062 0.582031 0.882812 4.609375 0.882812 9.574219 C 0.882812 14.539062 8.914062 18.5625 18.820312 18.5625 C 28.722656 18.5625 36.753906 14.539062 36.753906 9.574219 C 36.753906 4.609375 28.722656 0.582031 18.820312 0.582031 Z M 18.820312 0.582031 " clip-rule="nonzero"/></clipPath><clipPath id="65139f476c"><rect x="0" width="37" y="0" height="19"/></clipPath><clipPath id="3b4056d296"><path d="M 129.484375 188.949219 L 247.5 188.949219 L 247.5 295.703125 L 129.484375 295.703125 Z M 129.484375 188.949219 " clip-rule="nonzero"/></clipPath><clipPath id="6e471ded38"><path d="M 188.632812 295.703125 L 129.765625 254.925781 L 152.25 188.949219 L 225.011719 188.949219 L 247.5 254.925781 Z M 188.632812 295.703125 " clip-rule="nonzero"/></clipPath><clipPath id="142135f692"><path d="M 0.648438 0.949219 L 118.5 0.949219 L 118.5 107.703125 L 0.648438 107.703125 Z M 0.648438 0.949219 " clip-rule="nonzero"/></clipPath><clipPath id="3c3bfd2e3b"><path d="M 59.632812 107.703125 L 0.765625 66.925781 L 23.25 0.949219 L 96.011719 0.949219 L 118.5 66.925781 Z M 59.632812 107.703125 " clip-rule="nonzero"/></clipPath><clipPath id="416d67bbab"><rect x="0" width="119" y="0" height="108"/></clipPath><clipPath id="4ab87f06db"><path d="M 172 186 L 202 186 L 202 274 L 172 274 Z M 172 186 " clip-rule="nonzero"/></clipPath><clipPath id="d0cac342d3"><path d="M 201.96875 186.902344 L 199.796875 273.582031 L 172.335938 272.894531 L 174.503906 186.214844 Z M 201.96875 186.902344 " clip-rule="nonzero"/></clipPath><clipPath id="343f9e3c6b"><path d="M 199.796875 273.566406 L 201.96875 186.902344 L 187.9375 198.445312 L 174.503906 186.214844 L 172.335938 272.878906 L 186.363281 261.339844 Z M 199.796875 273.566406 " clip-rule="nonzero"/></clipPath><clipPath id="ebe4caa0ef"><path d="M 0.0976562 0.113281 L 30 0.113281 L 30 87.65625 L 0.0976562 87.65625 Z M 0.0976562 0.113281 " clip-rule="nonzero"/></clipPath><clipPath id="04daab5c45"><path d="M 29.96875 0.902344 L 27.796875 87.582031 L 0.335938 86.894531 L 2.503906 0.214844 Z M 29.96875 0.902344 " clip-rule="nonzero"/></clipPath><clipPath id="c65189e06e"><path d="M 27.796875 87.566406 L 29.96875 0.902344 L 15.9375 12.445312 L 2.503906 0.214844 L 0.335938 86.878906 L 14.363281 75.339844 Z M 27.796875 87.566406 " clip-rule="nonzero"/></clipPath><clipPath id="633f38dc4f"><rect x="0" width="30" y="0" height="88"/></clipPath><clipPath id="d269846f09"><path d="M 162.441406 198.496094 L 175.296875 198.496094 L 175.296875 246.449219 L 162.441406 246.449219 Z M 162.441406 198.496094 " clip-rule="nonzero"/></clipPath><clipPath id="b78f5275e2"><path d="M 168.867188 246.449219 L 162.441406 198.5 L 175.296875 198.5 Z M 168.867188 246.449219 " clip-rule="nonzero"/></clipPath><clipPath id="8a13925018"><path d="M 0.441406 0.496094 L 13.296875 0.496094 L 13.296875 48.449219 L 0.441406 48.449219 Z M 0.441406 0.496094 " clip-rule="nonzero"/></clipPath><clipPath id="b914473778"><path d="M 6.867188 48.449219 L 0.441406 0.5 L 13.296875 0.5 Z M 6.867188 48.449219 " clip-rule="nonzero"/></clipPath><clipPath id="6b4291bbd9"><rect x="0" width="14" y="0" height="49"/></clipPath><clipPath id="ee2f04cadc"><path d="M 137 165 L 183 165 L 183 211 L 137 211 Z M 137 165 " clip-rule="nonzero"/></clipPath><clipPath id="49e32a725d"><path d="M 163.1875 156.652344 L 191.652344 186.261719 L 157.066406 219.503906 L 128.605469 189.894531 Z M 163.1875 156.652344 " clip-rule="nonzero"/></clipPath><clipPath id="10b1a18c4e"><path d="M 177.417969 171.457031 C 169.558594 163.28125 155.46875 164.070312 145.949219 173.222656 C 136.429688 182.371094 135.082031 196.421875 142.941406 204.597656 C 150.800781 212.773438 164.890625 211.984375 174.410156 202.832031 C 183.933594 193.679688 185.28125 179.632812 177.417969 171.457031 Z M 177.417969 171.457031 " clip-rule="nonzero"/></clipPath><clipPath id="2f7d282b20"><path d="M 0 0 L 46 0 L 46 46 L 0 46 Z M 0 0 " clip-rule="nonzero"/></clipPath><clipPath id="f8f69d4c06"><path d="M 26.1875 -8.347656 L 54.652344 21.261719 L 20.066406 54.503906 L -8.394531 24.894531 Z M 26.1875 -8.347656 " clip-rule="nonzero"/></clipPath><clipPath id="27fd679f87"><path d="M 40.417969 6.457031 C 32.558594 -1.71875 18.46875 -0.929688 8.949219 8.222656 C -0.570312 17.371094 -1.917969 31.421875 5.941406 39.597656 C 13.800781 47.773438 27.890625 46.984375 37.410156 37.832031 C 46.933594 28.679688 48.28125 14.632812 40.417969 6.457031 Z M 40.417969 6.457031 " clip-rule="nonzero"/></clipPath><clipPath id="eb29273350"><rect x="0" width="46" y="0" height="46"/></clipPath><clipPath id="dab8bcdf45"><path d="M 201.96875 198.496094 L 214.820312 198.496094 L 214.820312 246.449219 L 201.96875 246.449219 Z M 201.96875 198.496094 " clip-rule="nonzero"/></clipPath><clipPath id="a527ea3c49"><path d="M 208.394531 246.449219 L 201.96875 198.5 L 214.820312 198.5 Z M 208.394531 246.449219 " clip-rule="nonzero"/></clipPath><clipPath id="37f4122906"><path d="M 0.96875 0.496094 L 13.820312 0.496094 L 13.820312 48.449219 L 0.96875 48.449219 Z M 0.96875 0.496094 " clip-rule="nonzero"/></clipPath><clipPath id="2684b00ddd"><path d="M 7.394531 48.449219 L 0.96875 0.5 L 13.820312 0.5 Z M 7.394531 48.449219 " clip-rule="nonzero"/></clipPath><clipPath id="279ad08aa3"><rect x="0" width="14" y="0" height="49"/></clipPath><clipPath id="3b488f25af"><path d="M 190 166 L 236 166 L 236 212 L 190 212 Z M 190 166 " clip-rule="nonzero"/></clipPath><clipPath id="24a31dafbc"><path d="M 181.46875 187.746094 L 209.402344 157.636719 L 244.570312 190.261719 L 216.636719 220.375 Z M 181.46875 187.746094 " clip-rule="nonzero"/></clipPath><clipPath id="f94e663157"><path d="M 195.4375 172.691406 C 187.722656 181.007812 189.316406 195.027344 199 204.011719 C 208.679688 212.992188 222.78125 213.53125 230.496094 205.21875 C 238.207031 196.902344 236.613281 182.882812 226.933594 173.898438 C 217.25 164.917969 203.148438 164.378906 195.4375 172.691406 Z M 195.4375 172.691406 " clip-rule="nonzero"/></clipPath><clipPath id="a67c493cdf"><path d="M 0 0 L 46 0 L 46 46 L 0 46 Z M 0 0 " clip-rule="nonzero"/></clipPath><clipPath id="a0e4c26874"><path d="M -8.53125 21.746094 L 19.402344 -8.363281 L 54.570312 24.261719 L 26.636719 54.375 Z M -8.53125 21.746094 " clip-rule="nonzero"/></clipPath><clipPath id="1b77edcb47"><path d="M 5.4375 6.691406 C -2.277344 15.007812 -0.683594 29.027344 9 38.011719 C 18.679688 46.992188 32.78125 47.53125 40.496094 39.21875 C 48.207031 30.902344 46.613281 16.882812 36.933594 7.898438 C 27.25 -1.082031 13.148438 -1.621094 5.4375 6.691406 Z M 5.4375 6.691406 " clip-rule="nonzero"/></clipPath><clipPath id="e165cf7dee"><rect x="0" width="46" y="0" height="46"/></clipPath><clipPath id="f09fc46b48"><path d="M 228.78125 176.339844 L 366.46875 176.339844 L 366.46875 205.746094 L 228.78125 205.746094 Z M 228.78125 176.339844 " clip-rule="nonzero"/></clipPath><clipPath id="56873bfe87"><path d="M 230.050781 176.660156 C 236.046875 176.058594 239.796875 176.507812 244.066406 177.035156 C 250.589844 177.859375 259.433594 179.132812 268.800781 181.082031 C 281.167969 183.703125 297.957031 189.101562 311.597656 192.023438 C 323.8125 194.648438 337.304688 195.996094 346.597656 198.167969 C 352.894531 199.59375 359.789062 201.390625 362.1875 202.589844 C 362.9375 203.039062 363.011719 203.714844 363.539062 203.789062 C 364.136719 203.867188 365.035156 202.742188 365.5625 202.890625 C 366.011719 203.039062 366.535156 204.015625 366.460938 204.464844 C 366.386719 204.988281 365.636719 205.738281 365.109375 205.738281 C 364.660156 205.8125 363.613281 204.914062 363.460938 204.390625 C 363.386719 204.015625 363.6875 203.339844 363.988281 203.117188 C 364.363281 202.890625 365.035156 202.667969 365.410156 202.890625 C 365.859375 203.117188 366.609375 204.390625 366.386719 204.839844 C 365.9375 205.589844 362.339844 205.589844 359.789062 205.363281 C 355.96875 204.914062 351.695312 202.441406 346 201.09375 C 337.082031 198.917969 322.988281 197.570312 310.773438 194.945312 C 297.207031 192.023438 280.644531 186.628906 268.351562 184.078125 C 259.132812 182.128906 250.289062 180.855469 243.917969 180.03125 C 239.796875 179.507812 236.273438 179.058594 233.726562 179.132812 C 232.152344 179.132812 230.726562 179.882812 229.902344 179.582031 C 229.378906 179.355469 228.851562 178.683594 228.851562 178.234375 C 228.777344 177.707031 230.050781 176.660156 230.050781 176.660156 " clip-rule="nonzero"/></clipPath><clipPath id="8d6a84989e"><path d="M 0.78125 0.339844 L 138.46875 0.339844 L 138.46875 29.746094 L 0.78125 29.746094 Z M 0.78125 0.339844 " clip-rule="nonzero"/></clipPath><clipPath id="7dc19b238b"><path d="M 2.050781 0.660156 C 8.046875 0.0585938 11.796875 0.507812 16.066406 1.035156 C 22.589844 1.859375 31.433594 3.132812 40.800781 5.082031 C 53.167969 7.703125 69.957031 13.101562 83.597656 16.023438 C 95.8125 18.648438 109.304688 19.996094 118.597656 22.167969 C 124.894531 23.59375 131.789062 25.390625 134.1875 26.589844 C 134.9375 27.039062 135.011719 27.714844 135.539062 27.789062 C 136.136719 27.867188 137.035156 26.742188 137.5625 26.890625 C 138.011719 27.039062 138.535156 28.015625 138.460938 28.464844 C 138.386719 28.988281 137.636719 29.738281 137.109375 29.738281 C 136.660156 29.8125 135.613281 28.914062 135.460938 28.390625 C 135.386719 28.015625 135.6875 27.339844 135.988281 27.117188 C 136.363281 26.890625 137.035156 26.667969 137.410156 26.890625 C 137.859375 27.117188 138.609375 28.390625 138.386719 28.839844 C 137.9375 29.589844 134.339844 29.589844 131.789062 29.363281 C 127.96875 28.914062 123.695312 26.441406 118 25.09375 C 109.082031 22.917969 94.988281 21.570312 82.773438 18.945312 C 69.207031 16.023438 52.644531 10.628906 40.351562 8.078125 C 31.132812 6.128906 22.289062 4.855469 15.917969 4.03125 C 11.796875 3.507812 8.273438 3.058594 5.726562 3.132812 C 4.152344 3.132812 2.726562 3.882812 1.902344 3.582031 C 1.378906 3.355469 0.851562 2.683594 0.851562 2.234375 C 0.777344 1.707031 2.050781 0.660156 2.050781 0.660156 " clip-rule="nonzero"/></clipPath><clipPath id="e828d00bac"><rect x="0" width="139" y="0" height="30"/></clipPath><clipPath id="0bafed0ccf"><path d="M 234.285156 184.710938 L 362.234375 184.710938 L 362.234375 230.4375 L 234.285156 230.4375 Z M 234.285156 184.710938 " clip-rule="nonzero"/></clipPath><clipPath id="90ed1c9cc4"><path d="M 236.347656 184.902344 C 276.296875 200.867188 319.765625 215.480469 334.980469 220.429688 C 341.429688 222.527344 344.277344 223.574219 348.773438 224.773438 C 352.96875 225.824219 359.265625 226.050781 360.988281 227.398438 C 361.738281 227.921875 362.1875 228.820312 362.039062 229.347656 C 361.8125 229.796875 360.464844 230.394531 360.015625 230.171875 C 359.566406 230.019531 359.039062 228.597656 359.265625 228.148438 C 359.492188 227.699219 360.839844 227.324219 361.289062 227.472656 C 361.738281 227.699219 362.1875 228.671875 362.039062 229.121094 C 361.890625 229.648438 361.140625 230.097656 360.164062 230.246094 C 357.917969 230.621094 352.070312 228.746094 347.875 227.621094 C 343.300781 226.421875 340.527344 225.449219 333.933594 223.277344 C 317.667969 217.878906 265.878906 200.492188 249.390625 193.96875 C 242.496094 191.273438 236.421875 189.398438 234.851562 187.523438 C 234.324219 186.851562 234.25 185.949219 234.476562 185.578125 C 234.699219 185.125 236.347656 184.902344 236.347656 184.902344 " clip-rule="nonzero"/></clipPath><clipPath id="2d201cf7cd"><path d="M 0.285156 0.710938 L 128.234375 0.710938 L 128.234375 46.4375 L 0.285156 46.4375 Z M 0.285156 0.710938 " clip-rule="nonzero"/></clipPath><clipPath id="16540c9837"><path d="M 2.347656 0.902344 C 42.296875 16.867188 85.765625 31.480469 100.980469 36.429688 C 107.429688 38.527344 110.277344 39.574219 114.773438 40.773438 C 118.96875 41.824219 125.265625 42.050781 126.988281 43.398438 C 127.738281 43.921875 128.1875 44.820312 128.039062 45.347656 C 127.8125 45.796875 126.464844 46.394531 126.015625 46.171875 C 125.566406 46.019531 125.039062 44.597656 125.265625 44.148438 C 125.492188 43.699219 126.839844 43.324219 127.289062 43.472656 C 127.738281 43.699219 128.1875 44.671875 128.039062 45.121094 C 127.890625 45.648438 127.140625 46.097656 126.164062 46.246094 C 123.917969 46.621094 118.070312 44.746094 113.875 43.621094 C 109.300781 42.421875 106.527344 41.449219 99.933594 39.277344 C 83.667969 33.878906 31.878906 16.492188 15.390625 9.96875 C 8.496094 7.273438 2.421875 5.398438 0.851562 3.523438 C 0.324219 2.851562 0.25 1.949219 0.476562 1.578125 C 0.699219 1.125 2.347656 0.902344 2.347656 0.902344 " clip-rule="nonzero"/></clipPath><clipPath id="cbf3a2958b"><rect x="0" width="129" y="0" height="47"/></clipPath><clipPath id="8864195186"><path d="M 232.117188 198.359375 L 342.644531 198.359375 L 342.644531 270.828125 L 232.117188 270.828125 Z M 232.117188 198.359375 " clip-rule="nonzero"/></clipPath><clipPath id="27331392fd"><path d="M 234.324219 198.617188 C 261.308594 218.179688 267.976562 222.300781 277.871094 228.523438 C 293.386719 238.191406 330.183594 259.027344 338.355469 265.023438 C 340.601562 266.671875 341.953125 267.570312 342.402344 268.621094 C 342.550781 269.144531 342.476562 269.671875 342.175781 269.96875 C 341.878906 270.34375 340.976562 270.71875 340.453125 270.570312 C 340.003906 270.417969 339.480469 269.519531 339.480469 269.070312 C 339.480469 268.621094 339.855469 268.097656 340.230469 267.871094 C 340.527344 267.648438 341.203125 267.648438 341.578125 267.796875 C 341.953125 267.945312 342.402344 268.472656 342.476562 268.921875 C 342.476562 269.371094 342.027344 270.269531 341.578125 270.496094 C 341.203125 270.71875 340.753906 270.644531 340.230469 270.417969 C 339.253906 270.046875 338.578125 268.847656 336.929688 267.648438 C 332.582031 264.574219 322.015625 259.175781 311.898438 253.105469 C 296.160156 243.511719 266.253906 225.152344 251.9375 215.332031 C 243.542969 209.636719 234.175781 203.863281 232.527344 201.015625 C 232.078125 200.191406 232.078125 199.441406 232.375 199.066406 C 232.675781 198.617188 234.324219 198.617188 234.324219 198.617188 " clip-rule="nonzero"/></clipPath><clipPath id="8e96e51bae"><path d="M 0.117188 0.585938 L 110.625 0.585938 L 110.625 72.777344 L 0.117188 72.777344 Z M 0.117188 0.585938 " clip-rule="nonzero"/></clipPath><clipPath id="243cb8273f"><path d="M 2.324219 0.617188 C 29.308594 20.179688 35.976562 24.300781 45.871094 30.523438 C 61.386719 40.191406 98.183594 61.027344 106.355469 67.023438 C 108.601562 68.671875 109.953125 69.570312 110.402344 70.621094 C 110.550781 71.144531 110.476562 71.671875 110.175781 71.96875 C 109.878906 72.34375 108.976562 72.71875 108.453125 72.570312 C 108.003906 72.417969 107.480469 71.519531 107.480469 71.070312 C 107.480469 70.621094 107.855469 70.097656 108.230469 69.871094 C 108.527344 69.648438 109.203125 69.648438 109.578125 69.796875 C 109.953125 69.945312 110.402344 70.472656 110.476562 70.921875 C 110.476562 71.371094 110.027344 72.269531 109.578125 72.496094 C 109.203125 72.71875 108.753906 72.644531 108.230469 72.417969 C 107.253906 72.046875 106.578125 70.847656 104.929688 69.648438 C 100.582031 66.574219 90.015625 61.175781 79.898438 55.105469 C 64.160156 45.511719 34.253906 27.152344 19.9375 17.332031 C 11.542969 11.636719 2.175781 5.863281 0.527344 3.015625 C 0.078125 2.191406 0.078125 1.441406 0.375 1.066406 C 0.675781 0.617188 2.324219 0.617188 2.324219 0.617188 " clip-rule="nonzero"/></clipPath><clipPath id="ef9bc45dfe"><rect x="0" width="111" y="0" height="73"/></clipPath><clipPath id="8f4945b842"><path d="M 231.554688 160.253906 L 363 160.253906 L 363 169.511719 L 231.554688 169.511719 Z M 231.554688 160.253906 " clip-rule="nonzero"/></clipPath><clipPath id="23adb99c2e"><path d="M 232.667969 165.507812 C 274.054688 165.210938 289.953125 163.636719 304.042969 163.109375 C 317.800781 162.585938 334.191406 162.960938 344.882812 162.285156 C 351.789062 161.910156 359.792969 159.363281 361.929688 160.636719 C 362.589844 161.011719 362.972656 161.835938 362.917969 162.363281 C 362.917969 162.8125 362.316406 163.636719 361.984375 163.636719 C 361.601562 163.636719 360.78125 162.734375 360.726562 162.210938 C 360.726562 161.761719 361.4375 160.710938 361.820312 160.636719 C 362.207031 160.5625 362.753906 161.3125 362.917969 161.761719 C 363.027344 162.136719 362.917969 162.734375 362.699219 163.109375 C 362.261719 163.710938 361.4375 163.859375 360.066406 164.160156 C 355.738281 165.210938 342.359375 165.359375 331.835938 165.808594 C 318.351562 166.332031 298.78125 166.257812 285.84375 166.859375 C 276.359375 167.308594 269.726562 168.28125 261.226562 168.507812 C 252.074219 168.882812 235.738281 170.457031 232.667969 168.507812 C 231.953125 168.058594 231.570312 167.382812 231.570312 166.859375 C 231.625 166.410156 232.667969 165.507812 232.667969 165.507812 " clip-rule="nonzero"/></clipPath><clipPath id="e44e197cc5"><path d="M 0.554688 0.253906 L 132 0.253906 L 132 9.511719 L 0.554688 9.511719 Z M 0.554688 0.253906 " clip-rule="nonzero"/></clipPath><clipPath id="7cccb9ad18"><path d="M 1.667969 5.507812 C 43.054688 5.210938 58.953125 3.636719 73.042969 3.109375 C 86.800781 2.585938 103.191406 2.960938 113.882812 2.285156 C 120.789062 1.910156 128.792969 -0.636719 130.929688 0.636719 C 131.589844 1.011719 131.972656 1.835938 131.917969 2.363281 C 131.917969 2.8125 131.316406 3.636719 130.984375 3.636719 C 130.601562 3.636719 129.78125 2.734375 129.726562 2.210938 C 129.726562 1.761719 130.4375 0.710938 130.820312 0.636719 C 131.207031 0.5625 131.753906 1.3125 131.917969 1.761719 C 132.027344 2.136719 131.917969 2.734375 131.699219 3.109375 C 131.261719 3.710938 130.4375 3.859375 129.066406 4.160156 C 124.738281 5.210938 111.359375 5.359375 100.835938 5.808594 C 87.351562 6.332031 67.78125 6.257812 54.84375 6.859375 C 45.359375 7.308594 38.726562 8.28125 30.226562 8.507812 C 21.074219 8.882812 4.738281 10.457031 1.667969 8.507812 C 0.953125 8.058594 0.570312 7.382812 0.570312 6.859375 C 0.625 6.410156 1.667969 5.507812 1.667969 5.507812 " clip-rule="nonzero"/></clipPath><clipPath id="d56d313799"><rect x="0" width="132" y="0" height="10"/></clipPath><clipPath id="fdbfb344d6"><path d="M 37.21875 176.554688 L 149.753906 176.554688 L 149.753906 199 L 37.21875 199 Z M 37.21875 176.554688 " clip-rule="nonzero"/></clipPath><clipPath id="d44a9181b9"><path d="M 38.003906 196.105469 C 55.691406 189.507812 62.210938 187.9375 69.105469 186.738281 C 77.050781 185.3125 85.96875 184.9375 95.113281 183.589844 C 105.53125 182.089844 118.574219 178.941406 128.242188 177.816406 C 135.660156 176.992188 145.40625 176.019531 148.179688 176.917969 C 149.078125 177.144531 149.527344 177.519531 149.675781 177.96875 C 149.75 178.492188 149.378906 179.390625 149.003906 179.691406 C 148.628906 179.917969 147.953125 179.917969 147.578125 179.765625 C 147.203125 179.617188 146.753906 179.089844 146.753906 178.640625 C 146.753906 178.117188 147.578125 176.992188 148.027344 176.917969 C 148.550781 176.84375 149.675781 177.816406 149.675781 178.34375 C 149.75 178.792969 149.152344 179.464844 148.179688 179.917969 C 145.480469 181.191406 136.035156 179.992188 128.691406 180.816406 C 119.023438 181.863281 105.757812 185.085938 95.339844 186.585938 C 86.269531 187.9375 77.5 188.234375 69.707031 189.660156 C 63.035156 190.859375 56.738281 192.359375 51.269531 194.082031 C 46.695312 195.503906 41.226562 199.101562 38.976562 198.953125 C 38.152344 198.878906 37.402344 198.429688 37.253906 197.980469 C 37.101562 197.527344 38.003906 196.105469 38.003906 196.105469 " clip-rule="nonzero"/></clipPath><clipPath id="bd170f916e"><path d="M 0.21875 0.554688 L 112.753906 0.554688 L 112.753906 23 L 0.21875 23 Z M 0.21875 0.554688 " clip-rule="nonzero"/></clipPath><clipPath id="f8557ba921"><path d="M 1.003906 20.105469 C 18.691406 13.507812 25.210938 11.9375 32.105469 10.738281 C 40.050781 9.3125 48.96875 8.9375 58.113281 7.589844 C 68.53125 6.089844 81.574219 2.941406 91.242188 1.816406 C 98.660156 0.992188 108.40625 0.0195312 111.179688 0.917969 C 112.078125 1.144531 112.527344 1.519531 112.675781 1.96875 C 112.75 2.492188 112.378906 3.390625 112.003906 3.691406 C 111.628906 3.917969 110.953125 3.917969 110.578125 3.765625 C 110.203125 3.617188 109.753906 3.089844 109.753906 2.640625 C 109.753906 2.117188 110.578125 0.992188 111.027344 0.917969 C 111.550781 0.84375 112.675781 1.816406 112.675781 2.34375 C 112.75 2.792969 112.152344 3.464844 111.179688 3.917969 C 108.480469 5.191406 99.035156 3.992188 91.691406 4.816406 C 82.023438 5.863281 68.757812 9.085938 58.339844 10.585938 C 49.269531 11.9375 40.5 12.234375 32.707031 13.660156 C 26.035156 14.859375 19.738281 16.359375 14.269531 18.082031 C 9.695312 19.503906 4.226562 23.101562 1.976562 22.953125 C 1.152344 22.878906 0.402344 22.429688 0.253906 21.980469 C 0.101562 21.527344 1.003906 20.105469 1.003906 20.105469 " clip-rule="nonzero"/></clipPath><clipPath id="04e552cdc2"><rect x="0" width="113" y="0" height="23"/></clipPath><clipPath id="a041b669c0"><path d="M 42.507812 183.378906 L 149.171875 183.378906 L 149.171875 217 L 42.507812 217 Z M 42.507812 183.378906 " clip-rule="nonzero"/></clipPath><clipPath id="afc0b15d55"><path d="M 44.074219 213.941406 C 50.367188 213.34375 64.683594 207.722656 75.101562 204.875 C 87.09375 201.652344 101.785156 199.628906 114.152344 195.957031 C 125.769531 192.433594 143.082031 183.140625 147.277344 183.515625 C 148.328125 183.589844 149 184.113281 149.152344 184.636719 C 149.226562 185.085938 148.402344 186.363281 147.878906 186.4375 C 147.429688 186.511719 146.230469 185.613281 146.152344 185.085938 C 146.152344 184.636719 147.054688 183.515625 147.578125 183.4375 C 148.027344 183.363281 148.925781 184.039062 149.078125 184.488281 C 149.226562 184.9375 149.152344 185.539062 148.476562 186.210938 C 145.703125 189.058594 127.191406 195.054688 114.824219 198.878906 C 100.058594 203.375 78.175781 206.898438 65.582031 210.496094 C 57.636719 212.742188 50.144531 216.714844 46.320312 216.941406 C 44.746094 217.089844 43.398438 216.867188 42.875 216.339844 C 42.574219 215.96875 42.5 215.292969 42.722656 214.917969 C 42.875 214.542969 44.074219 213.941406 44.074219 213.941406 " clip-rule="nonzero"/></clipPath><clipPath id="7d62021bb5"><path d="M 0.507812 0.378906 L 107.171875 0.378906 L 107.171875 34 L 0.507812 34 Z M 0.507812 0.378906 " clip-rule="nonzero"/></clipPath><clipPath id="d95a4113b0"><path d="M 2.074219 30.941406 C 8.367188 30.34375 22.683594 24.722656 33.101562 21.875 C 45.09375 18.652344 59.785156 16.628906 72.152344 12.957031 C 83.769531 9.433594 101.082031 0.140625 105.277344 0.515625 C 106.328125 0.589844 107 1.113281 107.152344 1.636719 C 107.226562 2.085938 106.402344 3.363281 105.878906 3.4375 C 105.429688 3.511719 104.230469 2.613281 104.152344 2.085938 C 104.152344 1.636719 105.054688 0.515625 105.578125 0.4375 C 106.027344 0.363281 106.925781 1.039062 107.078125 1.488281 C 107.226562 1.9375 107.152344 2.539062 106.476562 3.210938 C 103.703125 6.058594 85.191406 12.054688 72.824219 15.878906 C 58.058594 20.375 36.175781 23.898438 23.582031 27.496094 C 15.636719 29.742188 8.144531 33.714844 4.320312 33.941406 C 2.746094 34.089844 1.398438 33.867188 0.875 33.339844 C 0.574219 32.96875 0.5 32.292969 0.722656 31.917969 C 0.875 31.542969 2.074219 30.941406 2.074219 30.941406 " clip-rule="nonzero"/></clipPath><clipPath id="d9a0537937"><rect x="0" width="108" y="0" height="34"/></clipPath><clipPath id="fe2c84073a"><path d="M 63.082031 195.371094 L 145.6875 195.371094 L 145.6875 236.488281 L 63.082031 236.488281 Z M 63.082031 195.371094 " clip-rule="nonzero"/></clipPath><clipPath id="491fb93cd5"><path d="M 63.851562 233.730469 C 98.328125 213.71875 104.546875 210.871094 111.371094 208.246094 C 118.039062 205.773438 126.132812 204.199219 131.679688 202.175781 C 135.578125 200.675781 139.550781 199.179688 141.5 197.753906 C 142.546875 197.003906 142.773438 195.730469 143.523438 195.503906 C 144.121094 195.429688 145.320312 195.957031 145.546875 196.40625 C 145.695312 196.855469 145.019531 198.203125 144.570312 198.355469 C 144.121094 198.503906 142.773438 197.753906 142.699219 197.304688 C 142.546875 196.78125 143.371094 195.582031 143.820312 195.429688 C 144.273438 195.28125 145.246094 195.804688 145.472656 196.253906 C 145.695312 196.628906 145.695312 197.15625 145.472656 197.679688 C 144.871094 198.804688 141.875 200.527344 139.773438 201.726562 C 137.453125 203.074219 135.277344 203.898438 132.128906 205.097656 C 127.183594 206.972656 118.339844 208.921875 112.644531 211.019531 C 107.996094 212.667969 105 214.019531 100.425781 216.191406 C 94.207031 219.191406 85.0625 223.984375 78.765625 227.734375 C 73.667969 230.730469 67.75 236.054688 65.199219 236.429688 C 64.300781 236.578125 63.550781 236.351562 63.328125 235.902344 C 63.027344 235.453125 63.851562 233.730469 63.851562 233.730469 " clip-rule="nonzero"/></clipPath><clipPath id="0800082cda"><path d="M 0.0820312 0.371094 L 82.6875 0.371094 L 82.6875 41.488281 L 0.0820312 41.488281 Z M 0.0820312 0.371094 " clip-rule="nonzero"/></clipPath><clipPath id="2b1c567f68"><path d="M 0.851562 38.730469 C 35.328125 18.71875 41.546875 15.871094 48.371094 13.246094 C 55.039062 10.773438 63.132812 9.199219 68.679688 7.175781 C 72.578125 5.675781 76.550781 4.179688 78.5 2.753906 C 79.546875 2.003906 79.773438 0.730469 80.523438 0.503906 C 81.121094 0.429688 82.320312 0.957031 82.546875 1.40625 C 82.695312 1.855469 82.019531 3.203125 81.570312 3.355469 C 81.121094 3.503906 79.773438 2.753906 79.699219 2.304688 C 79.546875 1.78125 80.371094 0.582031 80.820312 0.429688 C 81.273438 0.28125 82.246094 0.804688 82.472656 1.253906 C 82.695312 1.628906 82.695312 2.15625 82.472656 2.679688 C 81.871094 3.804688 78.875 5.527344 76.773438 6.726562 C 74.453125 8.074219 72.277344 8.898438 69.128906 10.097656 C 64.183594 11.972656 55.339844 13.921875 49.644531 16.019531 C 44.996094 17.667969 42 19.019531 37.425781 21.191406 C 31.207031 24.191406 22.0625 28.984375 15.765625 32.734375 C 10.667969 35.730469 4.75 41.054688 2.199219 41.429688 C 1.300781 41.578125 0.550781 41.351562 0.328125 40.902344 C 0.0273438 40.453125 0.851562 38.730469 0.851562 38.730469 " clip-rule="nonzero"/></clipPath><clipPath id="01e1d3c174"><rect x="0" width="83" y="0" height="42"/></clipPath><clipPath id="7e9bcbd14d"><path d="M 29.457031 160.464844 L 124.773438 160.464844 L 124.773438 173.960938 L 29.457031 173.960938 Z M 29.457031 160.464844 " clip-rule="nonzero"/></clipPath><clipPath id="7e32430bf6"><path d="M 124.082031 173.921875 C 87.726562 172.796875 81.542969 170.996094 75.066406 170.472656 C 68.949219 169.949219 62.734375 170.472656 57.167969 170.097656 C 52.316406 169.796875 47.207031 169.125 43.53125 168.523438 C 41.058594 168.074219 39.496094 167.851562 37.347656 167.101562 C 35.003906 166.277344 31.03125 164.851562 30.023438 163.503906 C 29.699219 163.128906 29.472656 162.679688 29.472656 162.230469 C 29.472656 161.703125 29.863281 160.578125 30.058594 160.578125 C 30.285156 160.503906 30.773438 161.554688 30.773438 162.003906 C 30.773438 162.527344 30.316406 163.578125 30.089844 163.578125 C 29.863281 163.503906 29.4375 162.378906 29.472656 161.929688 C 29.503906 161.402344 29.796875 160.804688 30.21875 160.578125 C 31.359375 159.980469 35.199219 163.277344 37.511719 164.101562 C 39.625 164.851562 41.15625 165.078125 43.5625 165.527344 C 47.207031 166.125 52.316406 166.800781 57.167969 167.101562 C 62.734375 167.476562 69.015625 166.949219 75.132812 167.476562 C 81.609375 168 87.726562 169.796875 94.984375 170.398438 C 103.773438 171.074219 121.574219 168.300781 124.082031 170.921875 C 124.535156 171.371094 124.730469 172.046875 124.730469 172.570312 C 124.730469 173.097656 124.082031 173.921875 124.082031 173.921875 " clip-rule="nonzero"/></clipPath><clipPath id="a54f39c8e2"><path d="M 0.457031 0.464844 L 95.773438 0.464844 L 95.773438 13.960938 L 0.457031 13.960938 Z M 0.457031 0.464844 " clip-rule="nonzero"/></clipPath><clipPath id="3b17c3aa04"><path d="M 95.082031 13.921875 C 58.726562 12.796875 52.542969 10.996094 46.066406 10.472656 C 39.949219 9.949219 33.734375 10.472656 28.167969 10.097656 C 23.316406 9.796875 18.207031 9.125 14.53125 8.523438 C 12.058594 8.074219 10.496094 7.851562 8.347656 7.101562 C 6.003906 6.277344 2.03125 4.851562 1.023438 3.503906 C 0.699219 3.128906 0.472656 2.679688 0.472656 2.230469 C 0.472656 1.703125 0.863281 0.578125 1.058594 0.578125 C 1.285156 0.503906 1.773438 1.554688 1.773438 2.003906 C 1.773438 2.527344 1.316406 3.578125 1.089844 3.578125 C 0.863281 3.503906 0.4375 2.378906 0.472656 1.929688 C 0.503906 1.402344 0.796875 0.804688 1.21875 0.578125 C 2.359375 -0.0195312 6.199219 3.277344 8.511719 4.101562 C 10.625 4.851562 12.15625 5.078125 14.5625 5.527344 C 18.207031 6.125 23.316406 6.800781 28.167969 7.101562 C 33.734375 7.476562 40.015625 6.949219 46.132812 7.476562 C 52.609375 8 58.726562 9.796875 65.984375 10.398438 C 74.773438 11.074219 92.574219 8.300781 95.082031 10.921875 C 95.535156 11.371094 95.730469 12.046875 95.730469 12.570312 C 95.730469 13.097656 95.082031 13.921875 95.082031 13.921875 " clip-rule="nonzero"/></clipPath><clipPath id="c9c0393ab1"><rect x="0" width="96" y="0" height="14"/></clipPath><clipPath id="67bca72c1e"><path d="M 159.585938 104.320312 L 166.382812 104.320312 L 166.382812 128.621094 L 159.585938 128.621094 Z M 159.585938 104.320312 " clip-rule="nonzero"/></clipPath><clipPath id="4bac2fb723"><path d="M 162.296875 104.910156 C 166.722656 118.402344 166.722656 125.59375 166.046875 127.46875 C 165.820312 128.070312 165.523438 128.367188 165.148438 128.519531 C 164.773438 128.667969 164.097656 128.59375 163.722656 128.292969 C 163.125 127.84375 162.296875 125.96875 162.375 125.144531 C 162.449219 124.472656 162.972656 123.796875 163.421875 123.648438 C 163.796875 123.496094 164.472656 123.570312 164.773438 123.871094 C 165.148438 124.097656 165.371094 124.695312 165.371094 125.144531 C 165.371094 125.519531 164.996094 126.121094 164.621094 126.34375 C 164.324219 126.570312 163.648438 126.644531 163.273438 126.421875 C 162.824219 126.195312 162.375 125.296875 162.375 124.769531 C 162.449219 124.394531 162.898438 123.871094 163.273438 123.722656 C 163.648438 123.496094 164.246094 123.496094 164.695312 123.796875 C 165.296875 124.246094 166.269531 126.644531 166.046875 127.46875 C 165.894531 127.992188 165.222656 128.519531 164.773438 128.59375 C 164.324219 128.667969 163.648438 128.445312 163.273438 127.769531 C 162.222656 126.046875 163.796875 118.324219 162.972656 114.429688 C 162.296875 111.207031 159.449219 107.53125 159.601562 105.882812 C 159.601562 105.210938 159.976562 104.609375 160.425781 104.386719 C 160.875 104.160156 162.296875 104.910156 162.296875 104.910156 " clip-rule="nonzero"/></clipPath><clipPath id="ac5a176d42"><path d="M 0.585938 0.320312 L 7.382812 0.320312 L 7.382812 24.621094 L 0.585938 24.621094 Z M 0.585938 0.320312 " clip-rule="nonzero"/></clipPath><clipPath id="78fa70df3c"><path d="M 3.296875 0.910156 C 7.722656 14.402344 7.722656 21.59375 7.046875 23.46875 C 6.820312 24.070312 6.523438 24.367188 6.148438 24.519531 C 5.773438 24.667969 5.097656 24.59375 4.722656 24.292969 C 4.125 23.84375 3.296875 21.96875 3.375 21.144531 C 3.449219 20.472656 3.972656 19.796875 4.421875 19.648438 C 4.796875 19.496094 5.472656 19.570312 5.773438 19.871094 C 6.148438 20.097656 6.371094 20.695312 6.371094 21.144531 C 6.371094 21.519531 5.996094 22.121094 5.621094 22.34375 C 5.324219 22.570312 4.648438 22.644531 4.273438 22.421875 C 3.824219 22.195312 3.375 21.296875 3.375 20.769531 C 3.449219 20.394531 3.898438 19.871094 4.273438 19.722656 C 4.648438 19.496094 5.246094 19.496094 5.695312 19.796875 C 6.296875 20.246094 7.269531 22.644531 7.046875 23.46875 C 6.894531 23.992188 6.222656 24.519531 5.773438 24.59375 C 5.324219 24.667969 4.648438 24.445312 4.273438 23.769531 C 3.222656 22.046875 4.796875 14.324219 3.972656 10.429688 C 3.296875 7.207031 0.449219 3.53125 0.601562 1.882812 C 0.601562 1.210938 0.976562 0.609375 1.425781 0.386719 C 1.875 0.160156 3.296875 0.910156 3.296875 0.910156 " clip-rule="nonzero"/></clipPath><clipPath id="e897042e78"><rect x="0" width="8" y="0" height="25"/></clipPath><clipPath id="0e1303dd0a"><path d="M 177.785156 100.371094 L 183.699219 100.371094 L 183.699219 121.289062 L 177.785156 121.289062 Z M 177.785156 100.371094 " clip-rule="nonzero"/></clipPath><clipPath id="6f4f8f5b81"><path d="M 181.183594 101.835938 C 181.632812 114.800781 183.957031 118.023438 183.65625 119.597656 C 183.507812 120.421875 182.757812 121.171875 182.234375 121.246094 C 181.859375 121.398438 181.183594 121.023438 180.960938 120.722656 C 180.734375 120.273438 180.660156 119.296875 180.960938 118.847656 C 181.183594 118.550781 181.785156 118.25 182.234375 118.25 C 182.609375 118.324219 183.207031 118.625 183.433594 119 C 183.65625 119.449219 183.582031 120.421875 183.207031 120.796875 C 182.910156 121.171875 182.007812 121.398438 181.484375 121.097656 C 180.511719 120.648438 179.6875 118.25 179.160156 116.75 C 178.5625 115.25 178.410156 113.976562 178.1875 112.105469 C 177.886719 109.40625 177.511719 103.710938 178.1875 101.835938 C 178.488281 101.085938 179.011719 100.410156 179.535156 100.410156 C 179.984375 100.335938 181.183594 101.835938 181.183594 101.835938 " clip-rule="nonzero"/></clipPath><clipPath id="99619e6789"><path d="M 0.785156 0.371094 L 6.699219 0.371094 L 6.699219 21.289062 L 0.785156 21.289062 Z M 0.785156 0.371094 " clip-rule="nonzero"/></clipPath><clipPath id="0b174dc158"><path d="M 4.183594 1.835938 C 4.632812 14.800781 6.957031 18.023438 6.65625 19.597656 C 6.507812 20.421875 5.757812 21.171875 5.234375 21.246094 C 4.859375 21.398438 4.183594 21.023438 3.960938 20.722656 C 3.734375 20.273438 3.660156 19.296875 3.960938 18.847656 C 4.183594 18.550781 4.785156 18.25 5.234375 18.25 C 5.609375 18.324219 6.207031 18.625 6.433594 19 C 6.65625 19.449219 6.582031 20.421875 6.207031 20.796875 C 5.910156 21.171875 5.007812 21.398438 4.484375 21.097656 C 3.511719 20.648438 2.6875 18.25 2.160156 16.75 C 1.5625 15.25 1.410156 13.976562 1.1875 12.105469 C 0.886719 9.40625 0.511719 3.710938 1.1875 1.835938 C 1.488281 1.085938 2.011719 0.410156 2.535156 0.410156 C 2.984375 0.335938 4.183594 1.835938 4.183594 1.835938 " clip-rule="nonzero"/></clipPath><clipPath id="17f83e0aef"><rect x="0" width="7" y="0" height="22"/></clipPath><clipPath id="e7fe6fc503"><path d="M 189.953125 98.257812 L 196.261719 98.257812 L 196.261719 123.0625 L 189.953125 123.0625 Z M 189.953125 98.257812 " clip-rule="nonzero"/></clipPath><clipPath id="4e7c6d3d3e"><path d="M 196.25 100.039062 C 192.578125 122.746094 191.980469 123.121094 191.53125 123.046875 C 191.003906 122.972656 190.105469 121.847656 190.105469 121.324219 C 190.179688 120.875 191.378906 120.050781 191.902344 120.050781 C 192.355469 120.050781 192.804688 120.574219 193.027344 120.949219 C 193.179688 121.324219 193.179688 121.996094 192.878906 122.371094 C 192.578125 122.746094 191.679688 123.121094 191.230469 122.972656 C 190.703125 122.824219 190.332031 122.296875 190.105469 121.472656 C 189.582031 119.449219 190.78125 113.152344 191.304688 109.257812 C 191.902344 105.734375 192.277344 100.636719 193.402344 99.136719 C 193.929688 98.539062 194.753906 98.164062 195.203125 98.3125 C 195.652344 98.464844 196.25 100.039062 196.25 100.039062 " clip-rule="nonzero"/></clipPath><clipPath id="a7607b7d4e"><path d="M 0.953125 0.257812 L 7.261719 0.257812 L 7.261719 25.0625 L 0.953125 25.0625 Z M 0.953125 0.257812 " clip-rule="nonzero"/></clipPath><clipPath id="b2365ab6bb"><path d="M 7.25 2.039062 C 3.578125 24.746094 2.980469 25.121094 2.53125 25.046875 C 2.003906 24.972656 1.105469 23.847656 1.105469 23.324219 C 1.179688 22.875 2.378906 22.050781 2.902344 22.050781 C 3.355469 22.050781 3.804688 22.574219 4.027344 22.949219 C 4.179688 23.324219 4.179688 23.996094 3.878906 24.371094 C 3.578125 24.746094 2.679688 25.121094 2.230469 24.972656 C 1.703125 24.824219 1.332031 24.296875 1.105469 23.472656 C 0.582031 21.449219 1.78125 15.152344 2.304688 11.257812 C 2.902344 7.734375 3.277344 2.636719 4.402344 1.136719 C 4.929688 0.539062 5.753906 0.164062 6.203125 0.3125 C 6.652344 0.464844 7.25 2.039062 7.25 2.039062 " clip-rule="nonzero"/></clipPath><clipPath id="06ed9fc148"><rect x="0" width="8" y="0" height="26"/></clipPath><clipPath id="0cfd2218bb"><path d="M 210.476562 102.199219 L 223.691406 102.199219 L 223.691406 120.640625 L 210.476562 120.640625 Z M 210.476562 102.199219 " clip-rule="nonzero"/></clipPath><clipPath id="05b5559ce6"><path d="M 223.605469 104.683594 C 217.910156 113.527344 214.761719 116.375 213.789062 118.023438 C 213.335938 118.847656 213.488281 119.671875 213.113281 120.121094 C 212.738281 120.421875 212.136719 120.648438 211.765625 120.574219 C 211.3125 120.496094 210.789062 120.121094 210.640625 119.75 C 210.488281 119.296875 210.714844 118.25 211.015625 117.949219 C 211.3125 117.648438 211.988281 117.5 212.363281 117.648438 C 212.8125 117.722656 213.261719 118.175781 213.414062 118.625 C 213.5625 119 213.414062 119.671875 213.1875 119.972656 C 212.964844 120.273438 212.363281 120.648438 211.914062 120.574219 C 211.464844 120.496094 210.640625 119.972656 210.566406 119.375 C 210.339844 118.550781 211.3125 117.125 212.289062 115.476562 C 214.085938 112.328125 219.257812 103.785156 221.433594 102.585938 C 222.257812 102.136719 223.082031 102.136719 223.457031 102.433594 C 223.832031 102.808594 223.605469 104.683594 223.605469 104.683594 " clip-rule="nonzero"/></clipPath><clipPath id="5295b64a27"><path d="M 0.476562 0.199219 L 13.691406 0.199219 L 13.691406 18.640625 L 0.476562 18.640625 Z M 0.476562 0.199219 " clip-rule="nonzero"/></clipPath><clipPath id="688db0412a"><path d="M 13.605469 2.683594 C 7.910156 11.527344 4.761719 14.375 3.789062 16.023438 C 3.335938 16.847656 3.488281 17.671875 3.113281 18.121094 C 2.738281 18.421875 2.136719 18.648438 1.765625 18.574219 C 1.3125 18.496094 0.789062 18.121094 0.640625 17.75 C 0.488281 17.296875 0.714844 16.25 1.015625 15.949219 C 1.3125 15.648438 1.988281 15.5 2.363281 15.648438 C 2.8125 15.722656 3.261719 16.175781 3.414062 16.625 C 3.5625 17 3.414062 17.671875 3.1875 17.972656 C 2.964844 18.273438 2.363281 18.648438 1.914062 18.574219 C 1.464844 18.496094 0.640625 17.972656 0.566406 17.375 C 0.339844 16.550781 1.3125 15.125 2.289062 13.476562 C 4.085938 10.328125 9.257812 1.785156 11.433594 0.585938 C 12.257812 0.136719 13.082031 0.136719 13.457031 0.433594 C 13.832031 0.808594 13.605469 2.683594 13.605469 2.683594 " clip-rule="nonzero"/></clipPath><clipPath id="11e1b4452b"><rect x="0" width="14" y="0" height="19"/></clipPath><clipPath id="084e8ba45c"><path d="M 223.605469 104.578125 L 227.90625 104.578125 L 227.90625 125.855469 L 223.605469 125.855469 Z M 223.605469 104.578125 " clip-rule="nonzero"/></clipPath><clipPath id="402bb8235e"><path d="M 227.878906 105.882812 C 226.679688 125.519531 226.078125 125.894531 225.628906 125.820312 C 225.105469 125.820312 224.28125 125.144531 224.207031 124.695312 C 224.128906 124.171875 224.957031 122.972656 225.480469 122.894531 C 225.929688 122.820312 227.128906 123.71875 227.203125 124.171875 C 227.203125 124.695312 226.304688 125.820312 225.78125 125.820312 C 225.253906 125.894531 224.582031 125.21875 224.207031 124.320312 C 223.082031 121.695312 223.757812 108.503906 224.878906 105.957031 C 225.253906 105.132812 225.855469 104.609375 226.378906 104.609375 C 226.828125 104.609375 227.878906 105.882812 227.878906 105.882812 " clip-rule="nonzero"/></clipPath><clipPath id="2a9814de21"><path d="M 0.605469 0.578125 L 4.90625 0.578125 L 4.90625 21.855469 L 0.605469 21.855469 Z M 0.605469 0.578125 " clip-rule="nonzero"/></clipPath><clipPath id="835a765d41"><path d="M 4.878906 1.882812 C 3.679688 21.519531 3.078125 21.894531 2.628906 21.820312 C 2.105469 21.820312 1.28125 21.144531 1.207031 20.695312 C 1.128906 20.171875 1.957031 18.972656 2.480469 18.894531 C 2.929688 18.820312 4.128906 19.71875 4.203125 20.171875 C 4.203125 20.695312 3.304688 21.820312 2.78125 21.820312 C 2.253906 21.894531 1.582031 21.21875 1.207031 20.320312 C 0.0820312 17.695312 0.757812 4.503906 1.878906 1.957031 C 2.253906 1.132812 2.855469 0.609375 3.378906 0.609375 C 3.828125 0.609375 4.878906 1.882812 4.878906 1.882812 " clip-rule="nonzero"/></clipPath><clipPath id="a391b82431"><rect x="0" width="5" y="0" height="22"/></clipPath><clipPath id="c095ed0632"><path d="M 91.894531 144.304688 L 115.589844 144.304688 L 115.589844 172.925781 L 91.894531 172.925781 Z M 91.894531 144.304688 " clip-rule="nonzero"/></clipPath><clipPath id="05d21acc8a"><path d="M 115.304688 146.957031 C 103.011719 156.175781 101.589844 157.597656 100.089844 159.320312 C 98.515625 161.121094 96.644531 163.070312 95.820312 165.316406 C 94.917969 167.417969 95.742188 171.3125 94.84375 172.289062 C 94.394531 172.8125 93.496094 173.039062 93.046875 172.8125 C 92.59375 172.589844 92.144531 171.238281 92.296875 170.789062 C 92.445312 170.339844 93.046875 169.964844 93.421875 169.890625 C 93.871094 169.890625 94.542969 170.039062 94.769531 170.414062 C 95.070312 170.789062 94.917969 172.136719 94.621094 172.589844 C 94.320312 172.886719 93.644531 172.960938 93.269531 172.8125 C 92.820312 172.664062 92.371094 172.0625 92.144531 171.390625 C 91.769531 170.113281 92.070312 167.417969 92.519531 165.691406 C 92.96875 164.042969 93.570312 162.84375 94.769531 161.195312 C 96.566406 158.496094 100.914062 153.699219 103.3125 152.050781 C 104.664062 151.078125 105.5625 151.300781 106.835938 150.476562 C 108.785156 149.277344 111.78125 145.15625 113.507812 144.558594 C 114.257812 144.332031 115.15625 144.332031 115.457031 144.707031 C 115.753906 145.15625 115.304688 146.957031 115.304688 146.957031 " clip-rule="nonzero"/></clipPath><clipPath id="3ec587fedb"><path d="M 0.894531 0.304688 L 24.589844 0.304688 L 24.589844 28.925781 L 0.894531 28.925781 Z M 0.894531 0.304688 " clip-rule="nonzero"/></clipPath><clipPath id="6ca0dd331d"><path d="M 24.304688 2.957031 C 12.011719 12.175781 10.589844 13.597656 9.089844 15.320312 C 7.515625 17.121094 5.644531 19.070312 4.820312 21.316406 C 3.917969 23.417969 4.742188 27.3125 3.84375 28.289062 C 3.394531 28.8125 2.496094 29.039062 2.046875 28.8125 C 1.59375 28.589844 1.144531 27.238281 1.296875 26.789062 C 1.445312 26.339844 2.046875 25.964844 2.421875 25.890625 C 2.871094 25.890625 3.542969 26.039062 3.769531 26.414062 C 4.070312 26.789062 3.917969 28.136719 3.621094 28.589844 C 3.320312 28.886719 2.644531 28.960938 2.269531 28.8125 C 1.820312 28.664062 1.371094 28.0625 1.144531 27.390625 C 0.769531 26.113281 1.070312 23.417969 1.519531 21.691406 C 1.96875 20.042969 2.570312 18.84375 3.769531 17.195312 C 5.566406 14.496094 9.914062 9.699219 12.3125 8.050781 C 13.664062 7.078125 14.5625 7.300781 15.835938 6.476562 C 17.785156 5.277344 20.78125 1.15625 22.507812 0.558594 C 23.257812 0.332031 24.15625 0.332031 24.457031 0.707031 C 24.753906 1.15625 24.304688 2.957031 24.304688 2.957031 " clip-rule="nonzero"/></clipPath><clipPath id="8dd51cc0bb"><rect x="0" width="25" y="0" height="29"/></clipPath><clipPath id="ef3508916a"><path d="M 258.949219 136.804688 L 282.886719 136.804688 L 282.886719 165.945312 L 258.949219 165.945312 Z M 258.949219 136.804688 " clip-rule="nonzero"/></clipPath><clipPath id="afd88653f0"><path d="M 260.480469 136.910156 C 272.398438 142.007812 277.417969 147.554688 279.292969 150.253906 C 280.265625 151.601562 280.566406 152.351562 281.015625 153.699219 C 281.617188 155.347656 281.992188 157.671875 282.292969 159.621094 C 282.515625 161.34375 283.117188 163.742188 282.589844 164.71875 C 282.367188 165.390625 281.691406 165.84375 281.167969 165.84375 C 280.71875 165.917969 279.894531 165.242188 279.742188 164.792969 C 279.59375 164.417969 279.742188 163.742188 280.042969 163.445312 C 280.265625 163.144531 280.867188 162.84375 281.316406 162.917969 C 281.765625 162.992188 282.589844 163.667969 282.664062 164.117188 C 282.664062 164.644531 281.839844 165.765625 281.390625 165.84375 C 280.941406 165.992188 280.191406 165.617188 279.816406 164.941406 C 278.84375 163.519531 279.519531 158.046875 278.769531 155.574219 C 278.167969 153.699219 277.496094 152.726562 276.296875 151 C 274.269531 148.378906 270.148438 143.730469 266.925781 141.78125 C 264.453125 140.359375 260.480469 140.582031 259.429688 139.535156 C 258.980469 139.011719 258.90625 138.261719 259.058594 137.886719 C 259.207031 137.4375 260.480469 136.910156 260.480469 136.910156 " clip-rule="nonzero"/></clipPath><clipPath id="38c2bd1302"><path d="M 0.949219 0.804688 L 24.886719 0.804688 L 24.886719 29.945312 L 0.949219 29.945312 Z M 0.949219 0.804688 " clip-rule="nonzero"/></clipPath><clipPath id="b15b7579d1"><path d="M 2.480469 0.910156 C 14.398438 6.007812 19.417969 11.554688 21.292969 14.253906 C 22.265625 15.601562 22.566406 16.351562 23.015625 17.699219 C 23.617188 19.347656 23.992188 21.671875 24.292969 23.621094 C 24.515625 25.34375 25.117188 27.742188 24.589844 28.71875 C 24.367188 29.390625 23.691406 29.84375 23.167969 29.84375 C 22.71875 29.917969 21.894531 29.242188 21.742188 28.792969 C 21.59375 28.417969 21.742188 27.742188 22.042969 27.445312 C 22.265625 27.144531 22.867188 26.84375 23.316406 26.917969 C 23.765625 26.992188 24.589844 27.667969 24.664062 28.117188 C 24.664062 28.644531 23.839844 29.765625 23.390625 29.84375 C 22.941406 29.992188 22.191406 29.617188 21.816406 28.941406 C 20.84375 27.519531 21.519531 22.046875 20.769531 19.574219 C 20.167969 17.699219 19.496094 16.726562 18.296875 15 C 16.269531 12.378906 12.148438 7.730469 8.925781 5.78125 C 6.453125 4.359375 2.480469 4.582031 1.429688 3.535156 C 0.980469 3.011719 0.90625 2.261719 1.058594 1.886719 C 1.207031 1.4375 2.480469 0.910156 2.480469 0.910156 " clip-rule="nonzero"/></clipPath><clipPath id="1ea7f6fec0"><rect x="0" width="25" y="0" height="30"/></clipPath></defs><g clip-path="url(#640b37afe4)"><g clip-path="url(#3c0df5a255)"><g transform="matrix(1, 0, 0, 1, 68, 90)"><g clip-path="url(#a05c81a4a6)"><g clip-path="url(#485199b0b1)"><g clip-path="url(#d2b288fa6c)"><path fill="#bfa06f" d="M 0.269531 0.660156 L 242.730469 0.660156 L 242.730469 194.625 L 0.269531 194.625 Z M 0.269531 0.660156 " fill-opacity="1" fill-rule="nonzero"/></g></g></g></g></g></g><g clip-path="url(#9d60ae9a06)"><g clip-path="url(#ba47930530)"><g transform="matrix(1, 0, 0, 1, 143, 139)"><g clip-path="url(#0f9f89e00d)"><g clip-path="url(#ad35b3f496)"><g clip-path="url(#2e54add4f2)"><rect x="-231.44" width="578.88" fill="#bfa06f" height="532.439987" y="-220.344998" fill-opacity="1"/></g></g></g></g></g></g><g clip-path="url(#f0a51d7eec)"><g clip-path="url(#0b74521b3e)"><g clip-path="url(#10bd56c306)"><g transform="matrix(1, 0, 0, 1, 113, 126)"><g clip-path="url(#d40aa69eeb)"><g clip-path="url(#5d8f1085d0)"><g clip-path="url(#ed7e4b006a)"><g clip-path="url(#a3906c64fb)"><path fill="#3a291b" d="M -0.890625 25.964844 L 2.964844 -2.507812 L 55.125 4.558594 L 51.265625 33.027344 Z M -0.890625 25.964844 " fill-opacity="1" fill-rule="nonzero"/></g></g></g></g></g></g></g></g><g clip-path="url(#0f0e6c2968)"><g clip-path="url(#9134af3953)"><g clip-path="url(#c6918b24a9)"><g transform="matrix(1, 0, 0, 1, 115, 127)"><g clip-path="url(#dc231d7ed7)"><g clip-path="url(#97322916d2)"><g clip-path="url(#b90f41a2f0)"><g clip-path="url(#6b73a5524a)"><path fill="#ccb287" d="M -1.253906 24.335938 L 2.378906 -2.472656 L 51.492188 4.179688 L 47.859375 30.988281 Z M -1.253906 24.335938 " fill-opacity="1" fill-rule="nonzero"/></g></g></g></g></g></g></g></g><g clip-path="url(#ebd2542b7a)"><g clip-path="url(#efd563bd37)"><g clip-path="url(#9ce5c040a9)"><g transform="matrix(1, 0, 0, 1, 209, 127)"><g clip-path="url(#91fe80c952)"><g clip-path="url(#d1ef9fbf36)"><g clip-path="url(#993aaecce5)"><g clip-path="url(#c0273073cf)"><path fill="#3a291b" d="M 1.363281 31.394531 L -1.023438 2.765625 L 51.429688 -1.609375 L 53.816406 27.023438 Z M 1.363281 31.394531 " fill-opacity="1" fill-rule="nonzero"/></g></g></g></g></g></g></g></g><g clip-path="url(#dc22ec01fd)"><g clip-path="url(#a352e45cd4)"><g clip-path="url(#06013874f5)"><g transform="matrix(1, 0, 0, 1, 210, 128)"><g clip-path="url(#b5bf31bf04)"><g clip-path="url(#62430c3fc9)"><g clip-path="url(#8594108adc)"><g clip-path="url(#03473aa645)"><path fill="#ccb287" d="M 1.828125 29.429688 L -0.417969 2.472656 L 48.972656 -1.644531 L 51.21875 25.3125 Z M 1.828125 29.429688 " fill-opacity="1" fill-rule="nonzero"/></g></g></g></g></g></g></g></g><g clip-path="url(#3c3661e02b)"><g clip-path="url(#c40bfb65a2)"><g transform="matrix(1, 0, 0, 1, 170, 141)"><g clip-path="url(#e5294390cc)"><g clip-path="url(#ac801a74cd)"><g clip-path="url(#f6988a1a24)"><path fill="url(#6c18d7cb5f)" d="M 0.390625 0.898438 L 0.390625 22.382812 L 35.21875 22.382812 L 35.21875 0.898438 Z M 0.390625 0.898438 " fill-rule="nonzero"/></g></g></g></g></g></g><g clip-path="url(#a321849fe2)"><g clip-path="url(#dbb6bda69a)"><g transform="matrix(1, 0, 0, 1, 169, 157)"><g clip-path="url(#65139f476c)"><g clip-path="url(#72b23c720e)"><g clip-path="url(#5b1c64826d)"><path fill="#a07358" d="M 0.882812 0.582031 L 36.777344 0.582031 L 36.777344 18.5625 L 0.882812 18.5625 Z M 0.882812 0.582031 " fill-opacity="1" fill-rule="nonzero"/></g></g></g></g></g></g><g clip-path="url(#3b4056d296)"><g clip-path="url(#6e471ded38)"><g transform="matrix(1, 0, 0, 1, 129, 188)"><g clip-path="url(#416d67bbab)"><g clip-path="url(#142135f692)"><g clip-path="url(#3c3bfd2e3b)"><path fill="#8f5554" d="M 118.5 107.703125 L 0.902344 107.703125 L 0.902344 0.949219 L 118.5 0.949219 Z M 118.5 107.703125 " fill-opacity="1" fill-rule="nonzero"/></g></g></g></g></g></g><g clip-path="url(#4ab87f06db)"><g clip-path="url(#d0cac342d3)"><g clip-path="url(#343f9e3c6b)"><g transform="matrix(1, 0, 0, 1, 172, 186)"><g clip-path="url(#633f38dc4f)"><g clip-path="url(#ebe4caa0ef)"><g clip-path="url(#04daab5c45)"><g clip-path="url(#c65189e06e)"><path fill="#a55048" d="M 29.96875 0.902344 L 27.796875 87.582031 L 0.335938 86.894531 L 2.503906 0.214844 Z M 29.96875 0.902344 " fill-opacity="1" fill-rule="nonzero"/></g></g></g></g></g></g></g></g><g clip-path="url(#d269846f09)"><g clip-path="url(#b78f5275e2)"><g transform="matrix(1, 0, 0, 1, 162, 198)"><g clip-path="url(#6b4291bbd9)"><g clip-path="url(#8a13925018)"><g clip-path="url(#b914473778)"><path fill="#c2b19d" d="M 13.296875 48.449219 L 0.441406 48.449219 L 0.441406 0.496094 L 13.296875 0.496094 Z M 13.296875 48.449219 " fill-opacity="1" fill-rule="nonzero"/></g></g></g></g></g></g><g clip-path="url(#ee2f04cadc)"><g clip-path="url(#49e32a725d)"><g clip-path="url(#10b1a18c4e)"><g transform="matrix(1, 0, 0, 1, 137, 165)"><g clip-path="url(#eb29273350)"><g clip-path="url(#2f7d282b20)"><g clip-path="url(#f8f69d4c06)"><g clip-path="url(#27fd679f87)"><path fill="#d0cebd" d="M 26.1875 -8.347656 L 54.652344 21.261719 L 20.183594 54.394531 L -8.28125 24.785156 Z M 26.1875 -8.347656 " fill-opacity="1" fill-rule="nonzero"/></g></g></g></g></g></g></g></g><g clip-path="url(#dab8bcdf45)"><g clip-path="url(#a527ea3c49)"><g transform="matrix(1, 0, 0, 1, 201, 198)"><g clip-path="url(#279ad08aa3)"><g clip-path="url(#37f4122906)"><g clip-path="url(#2684b00ddd)"><path fill="#c2b19d" d="M 13.820312 48.449219 L 0.96875 48.449219 L 0.96875 0.496094 L 13.820312 0.496094 Z M 13.820312 48.449219 " fill-opacity="1" fill-rule="nonzero"/></g></g></g></g></g></g><g clip-path="url(#3b488f25af)"><g clip-path="url(#24a31dafbc)"><g clip-path="url(#f94e663157)"><g transform="matrix(1, 0, 0, 1, 190, 166)"><g clip-path="url(#e165cf7dee)"><g clip-path="url(#a67c493cdf)"><g clip-path="url(#a0e4c26874)"><g clip-path="url(#1b77edcb47)"><path fill="#d0cebd" d="M -8.53125 21.746094 L 19.402344 -8.363281 L 54.453125 24.15625 L 26.519531 54.265625 Z M -8.53125 21.746094 " fill-opacity="1" fill-rule="nonzero"/></g></g></g></g></g></g></g></g><g clip-path="url(#f09fc46b48)"><g clip-path="url(#56873bfe87)"><g transform="matrix(1, 0, 0, 1, 228, 176)"><g clip-path="url(#e828d00bac)"><g clip-path="url(#8d6a84989e)"><g clip-path="url(#7dc19b238b)"><rect x="-316.44" width="578.88" fill="#ffffff" height="532.439987" y="-257.344998" fill-opacity="1"/></g></g></g></g></g></g><g clip-path="url(#0bafed0ccf)"><g clip-path="url(#90ed1c9cc4)"><g transform="matrix(1, 0, 0, 1, 234, 184)"><g clip-path="url(#cbf3a2958b)"><g clip-path="url(#2d201cf7cd)"><g clip-path="url(#16540c9837)"><rect x="-322.44" width="578.88" fill="#ffffff" height="532.439987" y="-265.344998" fill-opacity="1"/></g></g></g></g></g></g><g clip-path="url(#8864195186)"><g clip-path="url(#27331392fd)"><g transform="matrix(1, 0, 0, 1, 232, 198)"><g clip-path="url(#ef9bc45dfe)"><g clip-path="url(#8e96e51bae)"><g clip-path="url(#243cb8273f)"><rect x="-320.44" width="578.88" fill="#ffffff" height="532.439987" y="-279.344998" fill-opacity="1"/></g></g></g></g></g></g><g clip-path="url(#8f4945b842)"><g clip-path="url(#23adb99c2e)"><g transform="matrix(1, 0, 0, 1, 231, 160)"><g clip-path="url(#d56d313799)"><g clip-path="url(#e44e197cc5)"><g clip-path="url(#7cccb9ad18)"><rect x="-319.44" width="578.88" fill="#ffffff" height="532.439987" y="-241.344998" fill-opacity="1"/></g></g></g></g></g></g><g clip-path="url(#fdbfb344d6)"><g clip-path="url(#d44a9181b9)"><g transform="matrix(1, 0, 0, 1, 37, 176)"><g clip-path="url(#04e552cdc2)"><g clip-path="url(#bd170f916e)"><g clip-path="url(#f8557ba921)"><rect x="-125.44" width="578.88" fill="#ffffff" height="532.439987" y="-257.344998" fill-opacity="1"/></g></g></g></g></g></g><g clip-path="url(#a041b669c0)"><g clip-path="url(#afc0b15d55)"><g transform="matrix(1, 0, 0, 1, 42, 183)"><g clip-path="url(#d9a0537937)"><g clip-path="url(#7d62021bb5)"><g clip-path="url(#d95a4113b0)"><rect x="-130.44" width="578.88" fill="#ffffff" height="532.439987" y="-264.344998" fill-opacity="1"/></g></g></g></g></g></g><g clip-path="url(#fe2c84073a)"><g clip-path="url(#491fb93cd5)"><g transform="matrix(1, 0, 0, 1, 63, 195)"><g clip-path="url(#01e1d3c174)"><g clip-path="url(#0800082cda)"><g clip-path="url(#2b1c567f68)"><rect x="-151.44" width="578.88" fill="#ffffff" height="532.439987" y="-276.344998" fill-opacity="1"/></g></g></g></g></g></g><g clip-path="url(#7e9bcbd14d)"><g clip-path="url(#7e32430bf6)"><g transform="matrix(1, 0, 0, 1, 29, 160)"><g clip-path="url(#c9c0393ab1)"><g clip-path="url(#a54f39c8e2)"><g clip-path="url(#3b17c3aa04)"><rect x="-117.44" width="578.88" fill="#ffffff" height="532.439987" y="-241.344998" fill-opacity="1"/></g></g></g></g></g></g><g clip-path="url(#67bca72c1e)"><g clip-path="url(#4bac2fb723)"><g transform="matrix(1, 0, 0, 1, 159, 104)"><g clip-path="url(#e897042e78)"><g clip-path="url(#ac5a176d42)"><g clip-path="url(#78fa70df3c)"><rect x="-247.44" width="578.88" fill="#9d7f51" height="532.439987" y="-185.344998" fill-opacity="1"/></g></g></g></g></g></g><g clip-path="url(#0e1303dd0a)"><g clip-path="url(#6f4f8f5b81)"><g transform="matrix(1, 0, 0, 1, 177, 100)"><g clip-path="url(#17f83e0aef)"><g clip-path="url(#99619e6789)"><g clip-path="url(#0b174dc158)"><rect x="-265.44" width="578.88" fill="#9d7f51" height="532.439987" y="-181.344998" fill-opacity="1"/></g></g></g></g></g></g><g clip-path="url(#e7fe6fc503)"><g clip-path="url(#4e7c6d3d3e)"><g transform="matrix(1, 0, 0, 1, 189, 98)"><g clip-path="url(#06ed9fc148)"><g clip-path="url(#a7607b7d4e)"><g clip-path="url(#b2365ab6bb)"><rect x="-277.44" width="578.88" fill="#9d7f51" height="532.439987" y="-179.344998" fill-opacity="1"/></g></g></g></g></g></g><g clip-path="url(#0cfd2218bb)"><g clip-path="url(#05b5559ce6)"><g transform="matrix(1, 0, 0, 1, 210, 102)"><g clip-path="url(#11e1b4452b)"><g clip-path="url(#5295b64a27)"><g clip-path="url(#688db0412a)"><rect x="-298.44" width="578.88" fill="#9d7f51" height="532.439987" y="-183.344998" fill-opacity="1"/></g></g></g></g></g></g><g clip-path="url(#084e8ba45c)"><g clip-path="url(#402bb8235e)"><g transform="matrix(1, 0, 0, 1, 223, 104)"><g clip-path="url(#a391b82431)"><g clip-path="url(#2a9814de21)"><g clip-path="url(#835a765d41)"><rect x="-311.44" width="578.88" fill="#9d7f51" height="532.439987" y="-185.344998" fill-opacity="1"/></g></g></g></g></g></g><g clip-path="url(#c095ed0632)"><g clip-path="url(#05d21acc8a)"><g transform="matrix(1, 0, 0, 1, 91, 144)"><g clip-path="url(#8dd51cc0bb)"><g clip-path="url(#3ec587fedb)"><g clip-path="url(#6ca0dd331d)"><rect x="-179.44" width="578.88" fill="#9d7f51" height="532.439987" y="-225.344998" fill-opacity="1"/></g></g></g></g></g></g><g clip-path="url(#ef3508916a)"><g clip-path="url(#afd88653f0)"><g transform="matrix(1, 0, 0, 1, 258, 136)"><g clip-path="url(#1ea7f6fec0)"><g clip-path="url(#38c2bd1302)"><g clip-path="url(#b15b7579d1)"><rect x="-346.44" width="578.88" fill="#9d7f51" height="532.439987" y="-217.344998" fill-opacity="1"/></g></g></g></g></g></g></svg>