<svg xmlns="http://www.w3.org/2000/svg" width="445" height="313" viewBox="0 0 333.75 234.75"><defs><clipPath id="a"><path d="M34.914 0H278v214.953H34.914Zm0 0"/></clipPath><clipPath id="b"><path d="M156.285 0C89.254 0 34.915 48.117 34.915 107.477c0 59.359 54.339 107.476 121.37 107.476s121.371-48.117 121.371-107.476S223.316 0 156.286 0m0 0"/></clipPath><clipPath id="d"><path d="M.914 0h242.762v214.953H.914Zm0 0"/></clipPath><clipPath id="e"><path d="M122.285 0C55.254 0 .915 48.117.915 107.477c0 59.359 54.339 107.476 121.37 107.476s121.371-48.117 121.371-107.476S189.316 0 122.286 0m0 0"/></clipPath><clipPath id="c"><path d="M0 0h244v215H0z"/></clipPath><clipPath id="f"><path d="M160.844 132.012h52.11v52.11h-52.11Zm0 0"/></clipPath><clipPath id="g"><path d="M186.898 132.012c-14.39 0-26.054 11.664-26.054 26.054 0 14.387 11.664 26.055 26.054 26.055 14.391 0 26.055-11.668 26.055-26.055 0-14.39-11.664-26.054-26.055-26.054m0 0"/></clipPath><clipPath id="i"><path d="M.844.012h52.11v52.11H.843Zm0 0"/></clipPath><clipPath id="j"><path d="M26.898.012C12.508.012.844 11.676.844 26.066c0 14.387 11.664 26.055 26.054 26.055 14.391 0 26.055-11.668 26.055-26.055C52.953 11.676 41.29.012 26.898.012m0 0"/></clipPath><clipPath id="h"><path d="M0 0h53v53H0z"/></clipPath><clipPath id="k"><path d="M105.14 132.688h52.11v52.105h-52.11Zm0 0"/></clipPath><clipPath id="l"><path d="M131.195 132.688c-14.39 0-26.054 11.664-26.054 26.054 0 14.387 11.664 26.051 26.054 26.051s26.055-11.664 26.055-26.05c0-14.391-11.664-26.055-26.055-26.055m0 0"/></clipPath><clipPath id="n"><path d="M.14.688h52.11v52.105H.14Zm0 0"/></clipPath><clipPath id="o"><path d="M26.195.688C11.805.688.141 12.352.141 26.742c0 14.387 11.664 26.051 26.054 26.051S52.25 41.129 52.25 26.743C52.25 12.351 40.586.687 26.195.687m0 0"/></clipPath><clipPath id="m"><path d="M0 0h53v53H0z"/></clipPath><clipPath id="p"><path d="M80 52h52v47H80Zm0 0"/></clipPath><clipPath id="q"><path d="m72.234 82.21 21.16-38.655 46.208 25.293-21.16 38.656Zm0 0"/></clipPath><clipPath id="r"><path d="M82.813 62.883c-5.84 10.676-.247 24.984 12.496 31.96 12.742 6.973 27.808 3.977 33.652-6.698s.25-24.985-12.492-31.961c-12.742-6.973-27.813-3.977-33.656 6.699m0 0"/></clipPath><clipPath id="t"><path d="M0 0h52v47H0Zm0 0"/></clipPath><clipPath id="u"><path d="m-7.766 30.21 21.16-38.655 46.208 25.293-21.16 38.656Zm0 0"/></clipPath><clipPath id="v"><path d="M2.813 10.883c-5.84 10.676-.247 24.984 12.496 31.96 12.742 6.973 27.808 3.977 33.652-6.698s.25-24.985-12.492-31.961C23.727-2.79 8.656.207 2.813 10.883m0 0"/></clipPath><clipPath id="s"><path d="M0 0h52v47H0z"/></clipPath><clipPath id="w"><path d="M81 53h49v45H81Zm0 0"/></clipPath><clipPath id="x"><path d="m74.203 81.816 19.922-36.398 43.512 23.816-19.926 36.399Zm0 0"/></clipPath><clipPath id="y"><path d="M84.164 63.617c-5.5 10.051-.234 23.524 11.766 30.094 11.996 6.566 26.183 3.746 31.687-6.305 5.504-10.054.235-23.527-11.765-30.094-11.997-6.57-26.184-3.746-31.688 6.305m0 0"/></clipPath><clipPath id="A"><path d="M0 0h49v45H0Zm0 0"/></clipPath><clipPath id="B"><path d="M-6.797 28.816 13.125-7.582l43.512 23.816L36.71 52.633Zm0 0"/></clipPath><clipPath id="C"><path d="M3.164 10.617c-5.5 10.051-.234 23.524 11.766 30.094 11.996 6.566 26.183 3.746 31.687-6.305 5.504-10.054.235-23.527-11.765-30.093C22.855-2.258 8.668.566 3.164 10.617m0 0"/></clipPath><clipPath id="z"><path d="M0 0h49v45H0z"/></clipPath><clipPath id="D"><path d="M180 49h49v49h-49Zm0 0"/></clipPath><clipPath id="E"><path d="m200.207 107.473-29.965-32.32 38.633-35.813 29.96 32.32Zm0 0"/></clipPath><clipPath id="F"><path d="M185.223 91.313c8.277 8.925 23.62 8.152 34.273-1.723 10.652-9.88 12.582-25.121 4.309-34.043-8.274-8.926-23.618-8.152-34.27 1.723-10.656 9.878-12.586 25.12-4.312 34.043m0 0"/></clipPath><clipPath id="H"><path d="M0 0h49v49H0Zm0 0"/></clipPath><clipPath id="I"><path d="m20.207 58.473-29.965-32.32L28.875-9.66l29.96 32.32Zm0 0"/></clipPath><clipPath id="J"><path d="M5.223 42.313c8.277 8.925 23.62 8.152 34.273-1.723 10.652-9.88 12.582-25.121 4.309-34.043C35.53-2.38 20.188-1.605 9.535 8.27-1.12 18.148-3.05 33.39 5.223 42.313m0 0"/></clipPath><clipPath id="G"><path d="M0 0h49v49H0z"/></clipPath><clipPath id="K"><path d="M181 50h47v47h-47Zm0 0"/></clipPath><clipPath id="L"><path d="m200.457 105.477-28.21-30.43 36.374-33.719 28.211 30.43Zm0 0"/></clipPath><clipPath id="M"><path d="M186.352 90.262c7.789 8.406 22.238 7.676 32.27-1.621 10.03-9.301 11.847-23.653 4.058-32.055-7.79-8.406-22.239-7.68-32.27 1.621s-11.847 23.652-4.058 32.055m0 0"/></clipPath><clipPath id="O"><path d="M0 0h47v47H0Zm0 0"/></clipPath><clipPath id="P"><path d="m19.457 55.477-28.21-30.43L27.62-8.672l28.211 30.43Zm0 0"/></clipPath><clipPath id="Q"><path d="M5.352 40.262c7.789 8.406 22.238 7.676 32.27-1.621 10.03-9.301 11.847-23.653 4.058-32.055C33.89-1.82 19.44-1.094 9.41 8.207S-2.437 31.859 5.352 40.262m0 0"/></clipPath><clipPath id="N"><path d="M0 0h47v47H0z"/></clipPath><clipPath id="R"><path d="M34.156 19.285H78v45.13H34.156Zm0 0"/></clipPath><clipPath id="S"><path d="M76.484 22.387c-4.12.148-5.093.746-6.593 1.87-2.996 2.4-7.414 8.317-12.137 13.036-5.918 6.07-17.457 18.656-20.902 20.004-.899.3-1.575.226-1.95-.074-.37-.301-.746-1.2-.449-1.649.676-.898 5.395-.972 7.793-.672 2.246.223 4.047 1.047 6.219 2.02 2.62 1.2 7.566 3.45 8.465 4.945.375.602.3 1.426.074 1.801-.223.375-.824.672-1.274.672-.449 0-.972-.375-1.195-.672-.226-.375-.375-1.05-.152-1.426.226-.449 1.574-.972 2.023-.75.45.153.973 1.125.824 1.574-.148.524-.972 1.2-1.796 1.2-1.649.074-5.02-3.371-7.567-4.496-2.324-.973-4.945-1.649-7.195-2.024-1.945-.297-5.317.078-5.317-.223-.078-.148 1.946-.824 1.946-.824s-1.348 1.047-1.797.899c-.524-.149-1.2-1.047-1.05-2.024.75-4.496 27.57-28.394 33.265-32.965 1.722-1.422 2.324-1.945 3.672-2.472 1.199-.524 2.695-.899 3.82-.746.973.074 2.324.449 2.621.972.227.301.078.973-.148 1.348-.227.375-1.2.676-1.2.676"/></clipPath><clipPath id="U"><path d="M.156.285H44v45.13H.156Zm0 0"/></clipPath><clipPath id="V"><path d="M42.484 3.387c-4.12.148-5.093.746-6.593 1.87-2.996 2.4-7.414 8.317-12.137 13.036-5.918 6.07-17.457 18.656-20.902 20.004-.899.3-1.575.226-1.95-.074-.37-.301-.746-1.2-.449-1.649.676-.898 5.395-.972 7.793-.672 2.246.223 4.047 1.047 6.219 2.02 2.62 1.2 7.566 3.45 8.465 4.945.375.602.3 1.426.074 1.801-.223.375-.824.672-1.274.672-.449 0-.972-.375-1.195-.672-.226-.375-.375-1.05-.152-1.426.226-.449 1.574-.972 2.023-.75.45.153.973 1.125.824 1.574-.148.524-.972 1.2-1.796 1.2-1.649.074-5.02-3.371-7.567-4.496-2.324-.973-4.945-1.649-7.195-2.024-1.945-.297-5.317.078-5.317-.223-.078-.148 1.946-.824 1.946-.824s-1.348 1.047-1.797.899c-.524-.149-1.2-1.047-1.05-2.024.75-4.496 27.57-28.394 33.265-32.965 1.722-1.421 2.324-1.945 3.672-2.472C38.59.613 40.086.238 41.21.39c.973.074 2.324.449 2.621.972.227.301.078.973-.148 1.348-.227.375-1.2.676-1.2.676"/></clipPath><clipPath id="T"><path d="M0 0h44v46H0z"/></clipPath><clipPath id="W"><path d="M43.32 18.738H84v37.657H43.32Zm0 0"/></clipPath><clipPath id="X"><path d="M78.734 21.637C61.051 42.313 60.078 41.64 59.926 41.19c-.223-.449.75-1.8.75-1.8s-.598 1.875-.75 1.8c-.223 0-.297-2.398.152-3.82.75-2.398 3.672-7.492 5.242-8.469.676-.375 1.575-.375 1.95-.074.375.227.675.824.523 1.574-.523 3.223-13.41 20.305-15.957 22.176-.598.375-.973.45-1.348.3a1.57 1.57 0 0 1-1.125-.823c-.3-.899-.222-2.473.375-4.196 1.051-3.297 6.594-12.062 8.54-13.41.675-.449 1.199-.527 1.648-.375.453.074.824.598.902 1.047.149.375-.078 1.274-.3 1.348-.45.078-2.25-1.57-2.173-1.946.075-.3 1.274-.601 1.723-.375.375.149.899.75.899 1.422.074 1.051-1.2 2.625-2.399 4.57-2.398 3.598-9.59 13.786-12.062 14.985-.746.375-1.274.3-1.797.074-.524-.297-1.125-.898-1.274-1.57-.226-1.05.223-2.848.973-4.274.898-1.722 3.297-4.417 4.645-5.02.75-.296 1.5-.296 1.949.075.601.528.824 2.102.75 3.223-.149 1.426-2.172 4.12-1.875 4.644.226.227 1.125-.449 1.574-.222.523.375 1.2 2.097.973 2.77-.149.6-.746.976-1.496 1.198-1.348.45-4.872.528-6.145-.074-.75-.375-1.125-1.047-1.348-1.722-.148-.75-.148-1.575.45-2.622 1.421-2.847 9.214-9.816 12.437-12.812 1.797-1.797 2.547-2.473 4.57-3.969 3.145-2.25 9.215-6.07 12.809-8.02 2.398-1.273 4.797-3.144 6.297-2.847.898.152 2.172 1.5 2.097 2.023-.226.676-3.746 1.352-5.097 1.2-.899-.075-1.723-.301-2.172-.899-.598-.824-.523-3.222-.223-4.343.297-.903.973-1.875 1.649-2.176.449-.149 1.347-.075 1.648.3.371.375.524 1.274.149 1.95-.75 1.648-5.32 3.222-8.168 5.992-3.97 4.047-9.512 14.16-12.512 16.934-1.274 1.12-2.32 1.945-3.145 1.945-.601 0-1.347-.598-1.5-.973-.222-.45-.148-1.125.153-1.422.37-.375 1.797-.601 2.172-.3.375.374.449 1.796.148 2.171-.3.375-1.348.602-1.797.375-.45-.3-.75-1.422-.601-2.097.3-.825 1.574-1.047 2.773-2.246 2.773-2.922 8.316-12.29 12.363-16.258 2.922-2.922 6.817-6.445 8.614-6.445.824 0 1.648.675 1.8 1.347.223.824-2.023 3-1.648 3.45.375.449 3.219-1.426 4.492-1.274 1.05.074 2.625.898 2.7 1.496 0 .527-.9 1.125-1.876 1.8-1.945 1.348-7.039 2.77-10.562 4.72-3.746 2.097-7.418 4.418-11.164 7.418-4.418 3.593-11.836 10.636-13.336 12.96-.45.672-.746 1.2-.524 1.575.375.449 3.371-.602 3.895-.078.3.3.227 1.5-.074 1.648-.297.152-2.098-1.273-2.547-2.395-.598-1.8.152-6.667 1.125-7.718.45-.524 1.496-.676 1.95-.375.37.226.745 1.125.597 1.875-.301 1.347-4.196 3.968-4.797 5.316-.297.602 0 1.5-.223 1.574-.226.075-1.05-.597-1.05-1.125-.075-1.347 4.421-4.57 6.519-7.34 2.324-2.996 5.02-8.84 6.52-10.039.523-.449.898-.523 1.347-.523.375.074.973.45 1.125.824.223.45.074 1.57-.226 1.723-.375.148-2.399-1.723-2.325-2.098.078-.3 1.278-.601 1.649-.375.453.223.976.899.902 1.723-.078 2.547-8.094 11.613-8.918 14.383-.297 1.05.3 1.949-.074 2.398-.375.3-1.648.375-2.023 0-.376-.3-.524-.973-.301-1.95.902-3.444 12.965-19.925 15.808-21.726.676-.449 1.2-.523 1.649-.297.449.223.898 1.047.824 1.797-.074 1.723-3.895 5.77-4.867 7.942-.602 1.422-.375 3.37-.977 3.746-.449.3-1.347.074-1.648-.3-.375-.376-.45-1.122-.149-1.946.75-2.324 6.895-7.719 9.516-11.164 2.023-2.7 3.223-5.918 5.02-7.645 1.199-1.12 2.921-2.32 3.82-2.172.523.075 1.047.825 1.047 1.274.078.527-.82 1.5-.82 1.5"/></clipPath><clipPath id="Z"><path d="M.32.738h40.645v37.657H.32Zm0 0"/></clipPath><clipPath id="aa"><path d="M35.734 3.637C18.051 24.313 17.078 23.64 16.926 23.19c-.223-.449.75-1.8.75-1.8s-.598 1.875-.75 1.8c-.223 0-.297-2.398.152-3.82.75-2.398 3.672-7.492 5.242-8.469.676-.375 1.575-.375 1.95-.074.375.227.675.824.523 1.574-.523 3.223-13.41 20.305-15.957 22.176-.598.375-.973.45-1.348.3a1.57 1.57 0 0 1-1.125-.823c-.3-.899-.222-2.473.375-4.196 1.051-3.297 6.594-12.062 8.54-13.41.675-.449 1.199-.527 1.648-.375.453.074.824.598.902 1.047.149.375-.078 1.274-.3 1.348-.45.078-2.25-1.57-2.173-1.946.075-.3 1.274-.601 1.723-.375.375.149.899.75.899 1.422.074 1.051-1.2 2.625-2.399 4.57-2.398 3.598-9.59 13.786-12.062 14.985-.746.375-1.274.3-1.797.074-.524-.297-1.125-.898-1.274-1.57-.226-1.05.223-2.848.973-4.274.898-1.722 3.297-4.417 4.645-5.02.75-.296 1.5-.296 1.949.075.601.527.824 2.102.75 3.223-.149 1.426-2.172 4.12-1.875 4.644.226.227 1.125-.449 1.574-.222.523.375 1.2 2.097.973 2.77-.149.6-.746.976-1.496 1.198-1.348.45-4.872.528-6.145-.074-.75-.375-1.125-1.047-1.348-1.722-.148-.75-.148-1.575.45-2.622 1.421-2.847 9.214-9.816 12.437-12.812 1.797-1.797 2.547-2.473 4.57-3.969 3.145-2.25 9.215-6.07 12.809-8.02 2.398-1.273 4.797-3.144 6.297-2.847.898.152 2.172 1.5 2.097 2.023-.226.676-3.746 1.352-5.097 1.2-.899-.075-1.723-.301-2.172-.899-.598-.824-.523-3.222-.223-4.344.297-.902.973-1.874 1.649-2.175.449-.149 1.347-.075 1.648.3.371.376.524 1.274.149 1.95-.75 1.648-5.32 3.222-8.168 5.992-3.97 4.047-9.512 14.16-12.512 16.934-1.274 1.12-2.32 1.945-3.145 1.945-.601 0-1.347-.598-1.5-.973-.222-.45-.148-1.125.153-1.422.37-.375 1.797-.601 2.172-.3.375.375.449 1.796.148 2.171-.3.375-1.348.602-1.797.375-.45-.3-.75-1.422-.601-2.097.3-.825 1.574-1.047 2.773-2.246 2.773-2.922 8.316-12.29 12.363-16.258 2.922-2.922 6.817-6.445 8.614-6.445.824 0 1.648.675 1.8 1.347.223.824-2.023 3-1.648 3.45.375.449 3.219-1.426 4.492-1.274 1.05.074 2.625.898 2.7 1.496 0 .527-.9 1.125-1.876 1.8-1.945 1.348-7.039 2.77-10.562 4.72-3.746 2.097-7.418 4.418-11.164 7.418-4.418 3.593-11.836 10.636-13.336 12.96-.45.672-.746 1.2-.524 1.575.375.449 3.372-.602 3.895-.078.3.3.226 1.5-.074 1.648-.297.152-2.098-1.273-2.547-2.395-.598-1.8.152-6.667 1.125-7.718.45-.524 1.496-.676 1.95-.375.37.226.745 1.125.597 1.875-.301 1.347-4.196 3.968-4.797 5.316-.297.602 0 1.5-.223 1.574-.226.075-1.05-.597-1.05-1.125-.075-1.347 4.421-4.57 6.519-7.34 2.324-2.996 5.02-8.84 6.52-10.039.523-.449.898-.523 1.347-.523.375.074.973.45 1.125.824.223.45.074 1.57-.226 1.723-.375.148-2.399-1.723-2.325-2.098.078-.3 1.278-.601 1.649-.375.453.223.976.899.902 1.723C17.75 20.344 9.734 29.41 8.91 32.18c-.297 1.05.3 1.949-.074 2.398-.375.3-1.649.375-2.024 0-.375-.3-.523-.973-.3-1.95.902-3.444 12.965-19.925 15.808-21.726.676-.449 1.2-.523 1.649-.297.449.223.898 1.047.824 1.797-.074 1.723-3.895 5.77-4.867 7.942-.602 1.422-.375 3.37-.977 3.746-.449.3-1.347.074-1.648-.3-.375-.376-.45-1.122-.149-1.946.75-2.324 6.895-7.719 9.516-11.164 2.023-2.7 3.223-5.918 5.02-7.645 1.199-1.12 2.921-2.32 3.82-2.172.523.075 1.047.825 1.047 1.274.078.527-.82 1.5-.82 1.5"/></clipPath><clipPath id="Y"><path d="M0 0h41v39H0z"/></clipPath><clipPath id="ab"><path d="M41 17.617h44v40.254H41Zm0 0"/></clipPath><clipPath id="ac"><path d="M44.121 51.004c7.191 3.074 7.414 3.82 7.414 4.422-.074.523-.45 1.199-.972 1.574-.75.598-2.325.973-3.52.746-1.574-.223-3.824-1.723-4.871-2.844-.676-.75-1.2-1.574-1.125-2.547.074-1.425 1.574-2.921 3.223-4.945 3.222-4.047 12.062-13.562 16.03-17.008 2.098-1.722 3.223-2.472 5.173-3.523 2.32-1.274 6.14-2.098 8.015-3.219 1.2-.824 1.5-1.648 2.621-2.398 1.723-1.2 5.696-3.52 7.192-3.52.676.074 1.277.371 1.5.824.226.372.226 1.196-.149 1.645-.675.902-3.523.75-4.945 1.875-1.648 1.273-2.7 5.32-3.973 5.918-.671.375-1.648.226-1.945-.074-.375-.375-.45-1.649-.152-2.024.375-.375 1.949-.375 2.324 0 .3.227.45.973.3 1.348-.077.375-.6.902-.976 1.05-.375.075-1.047 0-1.347-.226-.376-.297-.598-.898-.598-1.273 0-.45.37-1.047.746-1.274.375-.148 1.426-.074 1.8.227.298.297.45.898.45 1.347-.074.375-.523.973-.898 1.125-.376.149-1.051.149-1.426-.074-.375-.3-.672-.902-.672-1.574.074-1.2 1.648-3.598 2.996-4.945 1.273-1.5 3.445-3.149 4.867-3.672 1.05-.3 2.176-.375 2.848-.074.449.148.824.597.898.972.078.45-.074 1.125-.597 1.649-.825.898-3.149.976-5.47 2.172-4.421 2.175-13.034 6.593-18.655 11.238-5.692 4.797-12.438 15.058-15.133 17.234-.75.598-1.723.524-1.723.973 0 .75 5.168 3.07 5.02 3.297-.075.222-4.871-.899-5.621-1.875-.45-.524-.524-1.496-.223-1.946.223-.375 1.574-.601 1.574-.601"/></clipPath><clipPath id="ae"><path d="M0 .617h44v40.254H0Zm0 0"/></clipPath><clipPath id="af"><path d="M3.121 34.004c7.192 3.074 7.414 3.82 7.414 4.422-.074.523-.45 1.199-.973 1.574-.75.598-2.324.973-3.519.746-1.574-.223-3.824-1.723-4.871-2.844-.676-.75-1.2-1.574-1.125-2.547C.12 33.93 1.62 32.434 3.27 30.41c3.222-4.047 12.062-13.562 16.03-17.008 2.098-1.722 3.223-2.472 5.173-3.523 2.32-1.274 6.14-2.098 8.015-3.219 1.2-.824 1.5-1.648 2.621-2.398 1.723-1.2 5.696-3.52 7.192-3.52.676.074 1.277.371 1.5.824.226.371.226 1.196-.149 1.645-.675.902-3.523.75-4.945 1.875-1.648 1.273-2.7 5.32-3.973 5.918-.672.375-1.648.226-1.945-.074-.375-.375-.45-1.649-.152-2.024.375-.375 1.949-.375 2.324 0 .3.227.45.973.3 1.348-.077.375-.6.902-.976 1.05-.375.075-1.047 0-1.347-.226-.376-.297-.598-.898-.598-1.273 0-.45.37-1.047.746-1.274.375-.148 1.426-.074 1.8.227.298.297.45.898.45 1.347-.074.375-.523.973-.898 1.125-.376.149-1.051.149-1.426-.074-.375-.3-.672-.902-.672-1.574.074-1.2 1.648-3.598 2.996-4.945 1.273-1.5 3.445-3.149 4.867-3.672 1.05-.3 2.176-.375 2.848-.074.449.148.824.597.898.972.078.45-.074 1.125-.597 1.649-.825.898-3.149.976-5.47 2.172-4.421 2.175-13.034 6.593-18.655 11.238C13.535 21.719 6.789 31.98 4.094 34.156c-.75.598-1.723.524-1.723.973 0 .75 5.168 3.07 5.02 3.297-.075.222-4.871-.899-5.621-1.875-.45-.524-.524-1.496-.223-1.946.223-.375 1.574-.601 1.574-.601"/></clipPath><clipPath id="ad"><path d="M0 0h44v41H0z"/></clipPath><clipPath id="ag"><path d="M229.133 20.398H270v24.473h-40.867Zm0 0"/></clipPath><clipPath id="ah"><path d="M230.672 20.438c5.918 1.05 8.914 3.296 11.16 4.046 1.8.598 3.148.375 5.02.973 2.699.898 6.968 2.773 9.218 4.195 1.422.899 1.649 2.024 3.145 2.848 2.398 1.273 9.738 1.648 10.562 3.07.375.676.078 1.5-.523 2.176-1.797 1.871-13.184 3.742-15.434 5.094-.672.45-.597.972-1.199 1.273-.898.45-2.996.973-3.82.598-.598-.3-.973-1.273-1.047-1.871-.078-.676 0-1.352.45-2.098.898-1.574 4.644-5.32 6.292-5.695.899-.223 1.871.074 2.172.523.3.375.148 1.274-.148 1.649-.375.375-1.051.3-1.801.449-1.649.152-5.02.676-7.492 0-2.844-.898-7.34-3.594-8.465-5.469-.676-1.047-.598-2.172-.301-3.222.3-1.122 1.2-2.547 2.398-3.145 1.348-.824 3.82-.898 5.621-.45 1.946.45 4.493 2.4 5.618 3.298.675.523 1.125.824 1.347 1.422.375.601.528 1.648.375 2.25-.148.523-.597.972-1.047 1.195-.449.226-1.05.152-1.875.226-1.199.075-3.37.301-5.02 0-1.722-.226-4.046-.75-5.093-1.722-.676-.75-1.347-2.324-.972-2.922.523-.75 3.667-.524 5.617-.227 2.172.227 4.496.825 6.593 1.95 2.32 1.273 5.47 3.82 6.594 5.468.598.973.973 2.172.746 2.848-.148.523-.82.898-1.422 1.047-.597.226-1.273.3-2.023.078-1.2-.45-3.297-2.098-4.195-3.297-.672-.976-1.422-2.398-1.2-3.074.153-.45.676-.672 1.352-.899 1.797-.449 8.84-.898 10.488.227.825.523 1.2 1.945.973 2.547-.149.523-1.125 1.125-1.649 1.125-.449-.078-1.347-.902-1.199-1.125.075-.45 2.848-.973 3.075-.602.222.227-.454 1.575-.977 1.727-.45.148-1.945-1.05-1.945-1.05 0-.075 2.32.597 2.32.898 0 .3-.973.601-1.797.75-1.5.375-4.723.375-6.594.074-1.347-.223-2.172-.524-3.445-1.2-1.95-1.046-5.172-3.144-6.742-5.167-1.426-1.723-1.2-4.645-2.7-5.844-1.648-1.274-6.218-.375-7.265-1.2a1.57 1.57 0 0 1-.45-1.347c0-.375.372-.898.747-1.125.601-.223 1.8-.074 2.472.227.676.375 1.5.972 1.723 1.648.3.746.153 2.098-.37 2.695-.677.75-2.4.973-3.673.973-1.347.078-3.82-.223-4.422-.899-.449-.523-.375-1.648-.074-2.023.375-.375 2.246.078 2.246 0 0-.074-1.57-.375-1.496-.45 0-.222 5.242-.671 7.418-.148 1.723.45 2.844 1.422 4.492 2.621 2.324 1.723 7.27 5.32 7.942 7.192.375.902.078 1.574-.223 2.25-.45.898-1.348 1.871-2.473 2.32-1.648.676-4.87.75-6.593.153-1.422-.45-2.922-1.801-3.446-2.7-.3-.523-.3-1.047-.152-1.648.152-.899 1.05-2.098 1.726-3.145.747-1.05 1.649-2.62 2.622-3.074.675-.371 1.347-.371 2.097-.148 1.047.375 2.922 1.574 3.672 2.699.672 1.047.899 2.695.824 3.594 0 .523-.226 1.05-.527 1.273-.45.227-1.422.3-1.871 0-.3-.223-.598-.824-.598-1.273.074-.45.746-1.2 1.196-1.348.375-.148 1.05 0 1.351.3.297.376.524 1.423.297 1.798-.223.449-1.496.898-2.098.675-.824-.449-.898-3.671-1.722-4.195-.524-.3-1.348-.226-1.871.149-.825.523-2.098 2.62-1.875 3.37.152.598 1.05.9 1.8 1.126.899.222 2.547.297 3.446 0 .75-.375 1.722-.977 1.648-1.723-.074-1.574-6.07-5.844-9.293-7.043-2.77-1.05-7.492.223-8.465-.602-.449-.375-.449-.972-.375-1.347.075-.45.375-.899.899-1.051.902-.371 4.347.902 4.496.602.074-.227-1.422-.825-1.496-1.348-.078-.45.449-1.273 1.12-1.648 1.126-.528 4.274-.227 5.622.148.898.3 1.422.75 2.023 1.348.825.675 1.723 1.574 2.32 2.546.676 1.125.45 2.774 1.426 3.973 1.274 1.723 4.118 3.672 6.743 4.645 2.996 1.05 9.664 0 10.34.972.296.375-.079 1.051-.375 1.352-.227.297-.903.523-1.274.45-.45-.075-1.351-.825-1.273-1.126.074-.45 2.468-1.047 2.77-.75.151.152-.15 1.05-.376 1.348-.297.3-.898.527-1.348.453-.449-.078-1.199-.75-1.199-1.125-.074-.375.602-1.2.602-1.2s-.375 1.126-.977 1.348c-1.047.602-4.195.153-5.543 0-.898 0-1.722.075-2.023-.3-.3-.372-.375-1.57-.074-1.723.523-.223 4.195 2.473 4.718 3.598.301.597.153 1.574 0 1.648-.375.148-1.496-2.098-2.546-3.07-1.274-1.125-2.922-2.25-4.793-3-2.399-.899-7.942-.524-8.391-1.496-.227-.45.371-1.426 1.047-1.723 1.273-.676 6.293.297 7.719.898.597.301 1.12.899 1.12.973 0 0-3.144-2.996-4.867-3.371-1.574-.45-4.496-.149-5.02.598-.374.453-.151 1.351.298 2.023.976 1.352 4.87 3.598 7.27 4.195 2.171.45 5.242-.746 6.515-.449.602.152.977.45 1.125.824.227.375.148 1.051-.148 1.649-.602 1.199-3.297 3.597-4.645 4.195-.75.375-2.023.527-2.102.375-.074-.3 12.141-5.094 15.434-6.144 1.5-.45 2.473-.82 3.297-.747.527.075 1.05.297 1.273.672.227.375.227 1.352 0 1.723-.222.375-.672.527-1.273.602-1.422.222-4.942-.45-7.34-1.426-2.773-1.121-5.394-3.746-8.016-5.168-2.398-1.274-4.722-2.324-7.043-3.145-2.175-.75-4.796-.902-6.52-1.648-1.347-.602-1.948-1.574-3.296-2.098-1.723-.676-5.242-.375-6.293-1.125-.598-.375-.898-1.05-.824-1.5.074-.523 1.5-1.348 1.5-1.348"/></clipPath><clipPath id="aj"><path d="M.133.398H41v24.473H.133Zm0 0"/></clipPath><clipPath id="ak"><path d="M1.672.438c5.918 1.05 8.914 3.296 11.16 4.046 1.8.598 3.148.375 5.02.973 2.699.898 6.968 2.773 9.218 4.195 1.422.899 1.649 2.024 3.145 2.848 2.398 1.273 9.738 1.648 10.562 3.07.375.676.078 1.5-.523 2.176-1.797 1.871-13.184 3.742-15.434 5.094-.672.45-.597.973-1.199 1.273-.898.45-2.996.973-3.82.598-.598-.3-.973-1.273-1.047-1.871-.078-.676 0-1.352.45-2.098.898-1.574 4.644-5.32 6.292-5.695.899-.223 1.871.074 2.172.523.3.375.148 1.274-.148 1.649-.375.375-1.051.3-1.801.449-1.649.152-5.02.676-7.492 0-2.844-.898-7.34-3.594-8.465-5.469-.676-1.047-.598-2.172-.301-3.222.3-1.122 1.2-2.547 2.398-3.145 1.348-.824 3.82-.898 5.621-.45 1.946.45 4.493 2.4 5.618 3.298.675.523 1.125.824 1.347 1.422.375.601.528 1.648.375 2.25-.148.523-.597.972-1.047 1.195-.449.226-1.05.152-1.875.226-1.199.075-3.37.301-5.02 0-1.722-.226-4.046-.75-5.093-1.722-.676-.75-1.348-2.324-.973-2.922.524-.75 3.668-.524 5.618-.227 2.172.227 4.496.825 6.593 1.95 2.32 1.273 5.47 3.82 6.594 5.468.598.973.973 2.172.746 2.848-.148.523-.82.898-1.422 1.047-.597.226-1.273.3-2.023.078-1.2-.45-3.297-2.098-4.195-3.297-.672-.976-1.422-2.398-1.2-3.074.153-.45.676-.672 1.352-.899 1.797-.449 8.84-.898 10.488.227.825.523 1.2 1.945.973 2.547-.148.523-1.125 1.125-1.648 1.125-.45-.078-1.348-.902-1.2-1.125.075-.45 2.848-.973 3.075-.602.222.227-.454 1.575-.977 1.727-.45.148-1.945-1.05-1.945-1.05 0-.075 2.32.597 2.32.898 0 .3-.973.601-1.797.75-1.5.375-4.723.375-6.594.074-1.347-.223-2.172-.524-3.445-1.2-1.95-1.046-5.172-3.144-6.742-5.167-1.426-1.723-1.2-4.645-2.7-5.844-1.648-1.274-6.218-.375-7.265-1.2a1.57 1.57 0 0 1-.45-1.347c0-.375.372-.898.747-1.125.601-.223 1.8-.074 2.473.226.675.375 1.5.973 1.722 1.649.3.746.152 2.098-.37 2.695-.677.75-2.4.973-3.673.973-1.347.078-3.82-.223-4.422-.899-.449-.523-.375-1.648-.074-2.023.375-.375 2.246.078 2.246 0 0-.074-1.57-.375-1.496-.45 0-.222 5.242-.671 7.418-.148 1.723.45 2.844 1.422 4.492 2.621 2.324 1.723 7.27 5.32 7.942 7.192.375.902.078 1.574-.223 2.25-.45.898-1.348 1.871-2.473 2.32-1.648.676-4.87.75-6.593.153-1.422-.45-2.922-1.801-3.446-2.7-.3-.523-.3-1.047-.152-1.648.152-.899 1.05-2.098 1.726-3.145.747-1.05 1.649-2.62 2.622-3.074.675-.371 1.347-.371 2.097-.148 1.047.375 2.922 1.574 3.672 2.699.672 1.047.899 2.695.824 3.594 0 .523-.226 1.05-.527 1.273-.45.227-1.422.3-1.871 0-.3-.223-.598-.824-.598-1.273.074-.45.746-1.2 1.196-1.348.375-.148 1.05 0 1.351.3.297.376.524 1.423.297 1.798-.223.449-1.496.898-2.098.675-.824-.449-.898-3.671-1.722-4.195-.524-.3-1.348-.226-1.871.149-.825.523-2.098 2.62-1.875 3.37.152.598 1.05.9 1.8 1.126.899.222 2.547.297 3.446 0 .75-.375 1.722-.977 1.648-1.723-.074-1.574-6.07-5.844-9.293-7.043-2.77-1.05-7.492.223-8.465-.602-.449-.375-.449-.972-.375-1.347.075-.45.375-.899.899-1.051.902-.371 4.347.902 4.496.602.074-.227-1.422-.825-1.496-1.348-.078-.45.449-1.273 1.12-1.648 1.126-.528 4.274-.227 5.622.148.898.3 1.422.75 2.023 1.348.825.675 1.723 1.574 2.32 2.546.676 1.125.45 2.774 1.426 3.973 1.274 1.723 4.118 3.672 6.743 4.645 2.996 1.05 9.664 0 10.34.972.296.375-.079 1.051-.376 1.352-.226.297-.902.523-1.273.45-.45-.075-1.352-.825-1.273-1.126.074-.45 2.468-1.047 2.77-.75.151.152-.15 1.05-.376 1.348-.297.3-.898.527-1.347.453-.45-.078-1.2-.75-1.2-1.125-.074-.375.602-1.2.602-1.2s-.375 1.126-.977 1.348c-1.047.602-4.195.153-5.543 0-.898 0-1.722.075-2.023-.3-.3-.372-.375-1.57-.074-1.723.523-.223 4.195 2.473 4.718 3.598.301.597.153 1.574 0 1.648-.375.148-1.496-2.098-2.546-3.07-1.274-1.125-2.922-2.25-4.793-3-2.399-.899-7.942-.524-8.391-1.496-.227-.45.371-1.426 1.047-1.723 1.273-.676 6.293.297 7.719.898.597.301 1.12.899 1.12.973 0 0-3.144-2.996-4.867-3.371-1.574-.45-4.496-.149-5.02.598-.374.453-.151 1.351.298 2.023.976 1.352 4.87 3.598 7.27 4.195 2.171.45 5.242-.746 6.515-.449.602.152.977.45 1.125.824.227.375.148 1.051-.148 1.649-.602 1.199-3.297 3.597-4.645 4.195-.75.375-2.023.527-2.102.375-.074-.3 12.141-5.094 15.434-6.144 1.5-.45 2.473-.82 3.297-.747.527.075 1.05.297 1.273.672.227.375.227 1.352 0 1.723-.222.375-.672.527-1.273.602-1.422.222-4.941-.45-7.34-1.426-2.773-1.121-5.394-3.746-8.016-5.168-2.398-1.274-4.722-2.324-7.043-3.145-2.175-.75-4.796-.902-6.52-1.648C9.239 5.906 8.638 4.934 7.29 4.41 5.566 3.734 2.047 4.035.996 3.285c-.598-.375-.898-1.05-.824-1.5.074-.523 1.5-1.347 1.5-1.347"/></clipPath><clipPath id="ai"><path d="M0 0h41v25H0z"/></clipPath><clipPath id="al"><path d="M136.105 67.18h40.204v89.328h-40.204Zm0 0"/></clipPath><clipPath id="am"><path d="M147.5 67.336h17.57a11.24 11.24 0 0 1 11.239 11.238v66.614c0 2.98-1.184 5.84-3.293 7.945a11.23 11.23 0 0 1-7.946 3.293H147.5a11.238 11.238 0 0 1-11.238-11.238V78.574c0-2.98 1.183-5.836 3.289-7.945a11.26 11.26 0 0 1 7.949-3.293m0 0"/></clipPath><clipPath id="ao"><path d="M.262.336h40.047v89.016H.262Zm0 0"/></clipPath><clipPath id="ap"><path d="M11.5.336h17.57A11.24 11.24 0 0 1 40.31 11.574v66.614c0 2.98-1.184 5.84-3.293 7.945a11.23 11.23 0 0 1-7.946 3.293H11.5A11.238 11.238 0 0 1 .262 78.188V11.573c0-2.98 1.183-5.836 3.289-7.945A11.26 11.26 0 0 1 11.5.336m0 0"/></clipPath><clipPath id="an"><path d="M0 0h41v90H0z"/></clipPath><clipPath id="ar"><path d="M137.55 149.29h40.747v17.284H137.55Zm0 0"/></clipPath><clipPath id="as"><path d="M137.77 158.066c2.546-4.421 3.597-5.32 5.093-5.695 2.325-.598 7.117-.074 9.442.75 1.574.524 2.547 1.05 3.672 2.324 1.722 1.946 4.867 7.414 4.644 9.29-.074.824-.976 1.574-1.426 1.722-.222.074-.449.074-.672-.148-.449-.45-.824-2.547-.75-3.746.149-1.274 1.2-2.547 1.348-3.672.152-.825-.3-1.649-.074-2.325.3-.746.75-1.199 1.5-1.796 1.422-1.051 4.57-2.247 6.89-3.149 2.25-.824 5.094-1.797 6.895-1.871 1.047 0 2.098.074 2.621.598.524.527.676 1.5.676 2.175 0 .747-.3 1.497-.676 2.098a4.33 4.33 0 0 1-1.574 1.496c-.824.602-2.098 1.051-3.445 1.348-1.575.3-4.57-.746-5.621 0-.825.601-.45 2.472-.899 3.222-.375.676-.898 1.2-1.496 1.5-.45.149-.977.223-1.5.075-.75-.227-1.574-.676-2.172-1.5-.898-1.274-1.797-4.719-1.723-6.14 0-.677.149-1.274.524-1.575.3-.3 1.348-.45 1.648-.074.598.523.676 3.82 0 4.57-.449.523-1.648.746-2.324.45-.746-.376-1.871-2.173-1.648-2.774.152-.524 1.5-1.2 2.023-.973.45.149.75 1.2.899 1.945.226 1.051.226 2.774-.223 3.672-.227.602-.899 1.125-1.348 1.274-.449.074-.898-.149-1.351-.524-.746-.675-.973-2.773-2.02-3.82-1.351-1.348-4.047-2.473-5.844-2.922-1.273-.375-2.324-.676-3.523-.152-1.871.824-5.02 6.746-5.617 6.594-.301-.149-.301-1.122-.074-1.649.37-.746 1.347-1.273 2.62-2.023 2.848-1.57 8.989-4.72 14.31-5.918 5.991-1.348 17.53-1.723 20.152-1.121.75.148 1.05.296 1.273.671.227.375-.148 1.723-.074 1.723s.375-.973.3-1.047c-.148-.074-.972 1.649-1.421 1.649-.528 0-1.575-1.051-1.575-1.575 0-.449 1.047-1.421 1.575-1.421.523 0 1.273.746 1.347 1.195.149.453-.3 1.426-.75 1.648-.449.227-1.5 0-1.797-.37-.3-.376-.375-1.427-.074-1.876.149-.375.824-.676 1.196-.597.449 0 1.199.597 1.425.972.149.375.149 1.047-.226 1.422-.899.824-4.719.902-7.64 1.125-3.821.3-9.216-.598-13.337.3-3.894.75-8.09 2.849-10.937 4.345-1.95 1.05-3.446 2.847-4.723 3.297-.672.3-1.195.3-1.797.148-.597-.074-1.496-.371-1.722-.824-.301-.524-.075-1.348.3-2.246.75-1.723 3.746-5.993 5.094-6.97.598-.374.824-.448 1.5-.448 1.348-.149 3.969.375 5.844.898 2.02.602 4.57 1.352 5.992 2.774 1.422 1.273 3.07 4.046 2.848 5.246-.075.672-1.125 1.496-1.649 1.496-.449 0-1.125-.598-1.273-1.121-.227-.75.898-2.325.824-3.223 0-.602-.676-1.125-.527-1.574.152-.524 1.125-1.2 1.648-1.125.602.078 1.727 1.648 1.649 1.726 0 0-1.422-.675-1.497-1.199-.152-.45.375-1.574.825-1.8.449-.15 1.347.077 1.87.6.9.9 1.5 5.321 2.098 5.321.375-.078.375-2.625.977-3.297.45-.601 1.121-.824 2.02-.976 1.425-.223 4.046.824 5.62.375 1.422-.45 3.672-2.32 3.52-2.547-.223-.375-10.113 3.148-12.137 4.496-.824.523-1.046.75-1.496 1.496-.675 1.426-.75 7.043-1.199 7.121-.3 0-.824-1.8-.824-1.8s.898 1.347.824 1.8c-.152.45-.824 1.121-1.426 1.047-1.12-.148-3.593-4.195-4.418-5.992-.601-1.2-.375-2.7-.976-3.45-.45-.523-.973-.523-1.797-.824-1.871-.449-6.89-1.87-9.066-.898-1.797.75-2.547 4.644-3.594 4.871-.602.149-1.274-.375-1.574-.75-.149-.3 0-1.348 0-1.348"/></clipPath><clipPath id="au"><path d="M.55.29h40.747v17.284H.55Zm0 0"/></clipPath><clipPath id="av"><path d="M.77 9.066c2.546-4.421 3.597-5.32 5.093-5.695 2.324-.598 7.117-.074 9.442.75 1.574.524 2.547 1.05 3.672 2.324 1.722 1.946 4.867 7.414 4.644 9.29-.074.824-.976 1.574-1.426 1.722-.222.074-.449.074-.672-.148-.449-.45-.824-2.547-.75-3.747.149-1.273 1.2-2.546 1.348-3.671.152-.825-.3-1.649-.074-2.325.3-.746.75-1.199 1.5-1.796 1.422-1.051 4.57-2.247 6.89-3.149 2.25-.824 5.094-1.797 6.895-1.871 1.047 0 2.098.074 2.621.598.524.527.676 1.5.676 2.175 0 .747-.3 1.497-.676 2.098a4.33 4.33 0 0 1-1.574 1.496c-.824.602-2.098 1.051-3.445 1.348-1.575.3-4.57-.746-5.621 0-.825.601-.45 2.473-.899 3.223-.375.675-.898 1.199-1.496 1.5-.45.148-.977.222-1.5.074-.75-.227-1.574-.676-2.172-1.5-.898-1.274-1.797-4.719-1.723-6.14 0-.677.149-1.274.524-1.575.3-.3 1.348-.45 1.648-.074.598.523.676 3.82 0 4.57-.449.523-1.648.746-2.324.45-.746-.376-1.871-2.173-1.648-2.774.152-.524 1.5-1.2 2.023-.973.45.149.75 1.2.899 1.945.226 1.051.226 2.774-.223 3.672-.227.602-.899 1.125-1.348 1.274-.449.074-.898-.149-1.351-.524-.746-.675-.973-2.773-2.02-3.82-1.351-1.348-4.047-2.473-5.844-2.922-1.273-.375-2.324-.676-3.523-.152-1.871.824-5.02 6.746-5.617 6.594-.301-.149-.301-1.122-.074-1.649.37-.746 1.347-1.273 2.62-2.023 2.848-1.57 8.989-4.72 14.31-5.918C25.565.375 37.104 0 39.726.602c.75.148 1.05.296 1.273.671.227.375-.148 1.723-.074 1.723s.375-.973.3-1.047c-.148-.074-.972 1.649-1.421 1.649-.528 0-1.575-1.051-1.575-1.575 0-.449 1.047-1.421 1.575-1.421.523 0 1.273.746 1.347 1.195.149.453-.3 1.426-.75 1.648-.449.227-1.5 0-1.797-.37-.3-.376-.375-1.427-.074-1.876.149-.375.824-.676 1.196-.597.449 0 1.199.597 1.425.972.149.375.149 1.047-.226 1.422-.899.824-4.719.902-7.64 1.125-3.821.3-9.216-.598-13.337.3-3.894.75-8.09 2.849-10.937 4.345-1.95 1.05-3.446 2.847-4.723 3.297-.672.3-1.195.3-1.797.148-.597-.074-1.496-.371-1.722-.824-.301-.524-.075-1.348.3-2.246.75-1.723 3.746-5.993 5.094-6.97.598-.374.824-.448 1.5-.448 1.348-.149 3.969.375 5.844.898 2.02.602 4.57 1.352 5.992 2.774 1.422 1.273 3.07 4.046 2.848 5.246-.075.672-1.125 1.496-1.649 1.496-.449 0-1.125-.598-1.273-1.121-.227-.75.898-2.325.824-3.223 0-.602-.676-1.125-.527-1.574.152-.524 1.125-1.2 1.648-1.125.602.078 1.727 1.648 1.649 1.726 0 0-1.422-.675-1.497-1.199-.152-.45.375-1.574.825-1.8.449-.15 1.347.077 1.87.6.9.9 1.5 5.321 2.098 5.321.375-.078.375-2.625.977-3.297.45-.601 1.121-.824 2.02-.976 1.425-.223 4.046.824 5.62.375 1.422-.45 3.672-2.32 3.52-2.547-.223-.375-10.113 3.148-12.137 4.496-.824.523-1.046.75-1.496 1.496-.675 1.426-.75 7.043-1.199 7.121-.3 0-.824-1.8-.824-1.8s.898 1.347.824 1.8c-.152.45-.824 1.121-1.426 1.047-1.12-.148-3.593-4.195-4.418-5.992-.601-1.2-.375-2.7-.976-3.45-.45-.523-.973-.523-1.797-.824-1.871-.449-6.89-1.87-9.066-.898-1.797.75-2.547 4.645-3.594 4.871-.602.149-1.274-.375-1.574-.75-.149-.3 0-1.348 0-1.348"/></clipPath><clipPath id="at"><path d="M0 0h42v18H0z"/></clipPath><clipPath id="aw"><path d="M156.082 152.777h9.645v11.637h-9.645Zm0 0"/></clipPath><clipPath id="ax"><path d="M163.918 159.938c-3.45 4.347-4.348 4.421-4.797 4.046-.598-.449-.75-1.949-.824-3.222 0-1.57.3-4.043.824-5.395.3-.898.676-1.722 1.348-2.172.902-.449 2.922-.523 3.746-.074.676.3 1.125.899 1.351 1.649.375 1.347-.226 4.195-.976 5.843-.598 1.5-1.723 3.371-2.77 3.672-.675.223-1.574 0-2.25-.601-1.12-1.047-1.496-5.618-2.32-6.817-.3-.523-.898-.523-1.05-.898-.075-.45.152-1.5.6-1.723.45-.3 1.872 0 2.098.375.297.45-.152 1.797-.527 2.098-.297.297-1.047.222-1.422.074-.375-.227-.75-.75-.824-1.125 0-.45.227-1.047.523-1.348.301-.3.899-.523 1.352-.3 1.047.375 3.145 4.195 3.371 5.542.074.75-.45 1.801-.45 1.801-.077 0 1.196-5.695 1.349-5.695.148 0-.153 6.445-.75 7.719-.301.523-.676.824-1.051.972-.371.075-1.047-.074-1.348-.375a1.37 1.37 0 0 1-.523-1.273c.074-1.047 1.574-3.746 2.695-4.57.824-.598 2.098-.899 2.7-.676.374.226.597.824.597 1.277 0 .371-.672 1.196-.672 1.196"/></clipPath><clipPath id="az"><path d="M.082.777h9.645v11.637H.082Zm0 0"/></clipPath><clipPath id="aA"><path d="M7.918 7.938c-3.45 4.347-4.348 4.421-4.797 4.046-.598-.449-.75-1.949-.824-3.222 0-1.57.3-4.043.824-5.395.3-.898.676-1.722 1.348-2.172C5.37.746 7.39.672 8.215 1.121c.676.3 1.125.899 1.351 1.649.375 1.347-.226 4.195-.976 5.843-.598 1.5-1.723 3.371-2.77 3.672-.675.223-1.574 0-2.25-.601-1.12-1.047-1.496-5.618-2.32-6.817C.95 4.344.352 4.344.2 3.97c-.075-.45.152-1.5.6-1.723.45-.3 1.872 0 2.098.375.297.45-.152 1.797-.527 2.098-.297.297-1.047.222-1.422.074-.375-.227-.75-.75-.824-1.125 0-.45.227-1.047.523-1.348.301-.3.899-.523 1.352-.3 1.047.375 3.145 4.195 3.371 5.542.074.75-.45 1.801-.45 1.801-.077 0 1.196-5.695 1.349-5.695.148 0-.153 6.445-.75 7.719-.301.523-.676.824-1.051.972-.371.075-1.047-.074-1.348-.375a1.37 1.37 0 0 1-.523-1.273c.074-1.047 1.574-3.746 2.695-4.57.824-.598 2.098-.899 2.7-.676.374.226.597.824.597 1.277 0 .371-.672 1.196-.672 1.196"/></clipPath><clipPath id="ay"><path d="M0 0h10v13H0z"/></clipPath><clipPath id="aB"><path d="M169.188 151.219h9.097v6.293h-9.097Zm0 0"/></clipPath><clipPath id="aC"><path d="M170.137 152.445c4.27-1.57 5.02-1.273 5.617-.972.523.3 1.05.601 1.422 1.199.527.75 1.277 2.473 1.05 3.297-.226.672-1.05 1.496-1.574 1.496-.523 0-1.273-.672-1.422-1.121-.074-.524.375-1.426.75-1.649.375-.226 1.047-.226 1.422 0 .375.149.825.75.825 1.125 0 .524-.524 1.422-.973 1.57-.45.153-1.352-.074-1.723-.523-.601-.597-.078-2.847-.824-3.297-.902-.523-3.973 1.797-4.797 1.5-.45-.226-.676-.824-.676-1.199 0-.523.903-1.426.903-1.426"/></clipPath><clipPath id="aE"><path d="M.188.219h9.097v6.293H.188Zm0 0"/></clipPath><clipPath id="aF"><path d="M1.137 1.445C5.407-.125 6.157.172 6.754.473c.523.3 1.05.601 1.422 1.199.527.75 1.277 2.473 1.05 3.297C9 5.64 8.177 6.465 7.653 6.465c-.523 0-1.273-.672-1.422-1.121-.074-.524.375-1.426.75-1.649.375-.226 1.047-.226 1.422 0 .375.149.825.75.825 1.125 0 .524-.524 1.422-.973 1.57-.45.153-1.352-.074-1.723-.523-.601-.597-.078-2.847-.824-3.297-.902-.523-3.973 1.797-4.797 1.5-.45-.226-.676-.824-.676-1.199 0-.523.903-1.426.903-1.426"/></clipPath><clipPath id="aD"><path d="M0 0h10v7H0z"/></clipPath><clipPath id="aG"><path d="M141.875 162.02h18.984v21.699h-18.984Zm0 0"/></clipPath><clipPath id="aH"><path d="M160.77 163.61c-1.274 9.59-3.82 11.613-6.293 13.636-2.922 2.32-8.465 6.293-10.563 6.367-.898 0-1.723-.597-1.875-1.125-.148-.449.3-1.422.676-1.648.523-.223 1.87.226 2.097.676.223.449-.3 1.722-.75 2.023-.375.223-1.046.074-1.421-.148-.301-.227-.75-.75-.676-1.2.148-.976 2.547-2.546 4.27-3.746 2.023-1.347 5.245-1.875 7.195-3.597 1.87-1.575 3.668-4.047 4.343-6.22.598-1.87-.449-4.718.149-5.69.375-.528 1.05-.903 1.574-.825.45.075 1.274 1.496 1.274 1.496"/></clipPath><clipPath id="aJ"><path d="M.875.02h18.984v21.699H.875Zm0 0"/></clipPath><clipPath id="aK"><path d="M19.77 1.61c-1.274 9.59-3.82 11.613-6.293 13.636-2.922 2.32-8.465 6.293-10.563 6.367-.898 0-1.723-.597-1.875-1.125-.148-.449.3-1.422.676-1.648.523-.223 1.87.226 2.097.676.223.449-.3 1.722-.75 2.023-.374.223-1.046.074-1.421-.148-.301-.227-.75-.75-.676-1.2.148-.976 2.547-2.546 4.27-3.746 2.023-1.347 5.245-1.875 7.195-3.597 1.87-1.575 3.668-4.047 4.343-6.22.598-1.87-.449-4.718.149-5.69.375-.528 1.05-.903 1.574-.825.45.075 1.274 1.496 1.274 1.496"/></clipPath><clipPath id="aI"><path d="M0 0h20v22H0z"/></clipPath><clipPath id="aL"><path d="M160 167.043h24.2v17.906H160Zm0 0"/></clipPath><clipPath id="aM"><path d="M161.82 167.055c4.121 2.922 4.27 5.394 5.317 7.27 1.125 1.948 2.847 4.57 4.273 5.695.899.746 1.57.898 2.77 1.195 2.023.375 6.968-.45 8.543 0 .597.152.972.3 1.199.601.223.375.297 1.047.148 1.422-.148.375-.597.899-1.05.899-.524.078-1.723-.746-1.797-1.196-.075-.527.824-1.648 1.347-1.726.45-.074 1.426.45 1.5.902.149.524-.148 1.57-.898 2.02-1.574.976-8.168 1.125-11.09-.149-2.77-1.273-5.02-4.57-6.441-6.816-1.125-1.875-1.125-4.274-2.172-5.621-.903-1.121-2.848-1.348-3.223-2.172-.3-.524-.3-1.348 0-1.723.223-.375 1.574-.601 1.574-.601"/></clipPath><clipPath id="aO"><path d="M0 .043h24.2v17.906H0Zm0 0"/></clipPath><clipPath id="aP"><path d="M1.82.055c4.121 2.922 4.27 5.394 5.317 7.27 1.125 1.948 2.847 4.57 4.273 5.695.899.746 1.57.898 2.77 1.195 2.023.375 6.968-.45 8.543 0 .597.152.972.3 1.199.601.223.375.297 1.047.148 1.422-.148.375-.597.899-1.05.899-.524.078-1.723-.746-1.797-1.196-.075-.527.824-1.648 1.347-1.726.45-.074 1.426.45 1.5.902.149.524-.148 1.57-.898 2.02-1.574.976-8.168 1.125-11.09-.149-2.77-1.273-5.02-4.57-6.441-6.816C4.516 8.297 4.516 5.898 3.469 4.55 2.566 3.43.62 3.203.246 2.379c-.3-.524-.3-1.348 0-1.723C.47.281 1.82.055 1.82.055"/></clipPath><clipPath id="aN"><path d="M0 0h25v18H0z"/></clipPath><clipPath id="aQ"><path d="M9.098 143.242H121.59v22.5H9.098Zm0 0"/></clipPath><clipPath id="aR"><path d="M9.879 162.785c17.684-6.594 24.2-8.164 31.094-9.363 7.941-1.426 16.855-1.8 25.996-3.149 10.414-1.496 23.453-4.644 33.117-5.77 7.414-.823 17.156-1.796 19.926-.898.902.227 1.351.602 1.5 1.051.074.524-.301 1.422-.676 1.723-.371.223-1.047.223-1.422.074-.375-.148-.824-.676-.824-1.125 0-.523.824-1.648 1.273-1.723.524-.074 1.649.899 1.649 1.426.074.45-.524 1.121-1.5 1.57-2.696 1.274-12.137.079-19.477.903-9.664 1.047-22.926 4.27-33.34 5.766-9.066 1.351-17.832 1.648-25.625 3.074-6.668 1.199-12.96 2.695-18.43 4.418-4.57 1.425-10.038 5.02-12.285 4.87-.824-.073-1.574-.523-1.722-.972-.153-.45.746-1.875.746-1.875"/></clipPath><clipPath id="aT"><path d="M.098.242H112.59v22.5H.098Zm0 0"/></clipPath><clipPath id="aU"><path d="M.879 19.785c17.684-6.594 24.2-8.164 31.094-9.363 7.941-1.426 16.855-1.8 25.996-3.149 10.414-1.496 23.453-4.644 33.117-5.77C98.5.68 108.242-.292 111.012.606c.902.227 1.351.602 1.5 1.051.074.524-.301 1.422-.676 1.723-.371.223-1.047.223-1.422.074-.375-.148-.824-.676-.824-1.125 0-.523.824-1.648 1.273-1.723.524-.074 1.649.899 1.649 1.426.074.45-.524 1.121-1.5 1.57-2.696 1.274-12.137.079-19.477.903-9.664 1.047-22.926 4.27-33.34 5.766-9.066 1.351-17.832 1.648-25.625 3.074-6.668 1.199-12.96 2.695-18.43 4.418-4.57 1.425-10.038 5.02-12.285 4.87-.824-.073-1.574-.523-1.722-.972-.153-.45.746-1.875.746-1.875"/></clipPath><clipPath id="aS"><path d="M0 0h113v23H0z"/></clipPath><clipPath id="aV"><path d="M14.387 150.063H121v33.687H14.387Zm0 0"/></clipPath><clipPath id="aW"><path d="M15.95 180.617c6.292-.597 20.6-6.219 31.015-9.066 11.988-3.219 26.672-5.242 39.035-8.914 11.613-3.524 28.918-12.813 33.113-12.438 1.051.074 1.723.598 1.875 1.125.075.45-.75 1.723-1.273 1.797-.45.074-1.649-.824-1.723-1.348 0-.449.899-1.574 1.422-1.648.45-.074 1.348.598 1.5 1.047.148.45.074 1.05-.602 1.726-2.769 2.844-21.277 8.84-33.636 12.66-14.762 4.497-36.637 8.016-49.223 11.614-7.941 2.246-15.433 6.219-19.258 6.441-1.57.149-2.922-.074-3.445-.597-.3-.375-.375-1.051-.148-1.426.148-.375 1.347-.973 1.347-.973"/></clipPath><clipPath id="aY"><path d="M.387.063H107V33.75H.387Zm0 0"/></clipPath><clipPath id="aZ"><path d="M1.95 30.617c6.292-.597 20.6-6.219 31.015-9.066C44.953 18.332 59.637 16.309 72 12.637 83.613 9.113 100.918-.176 105.113.199c1.051.074 1.723.598 1.875 1.125.075.45-.75 1.723-1.273 1.797-.45.074-1.649-.824-1.723-1.348 0-.449.899-1.574 1.422-1.648.45-.074 1.348.598 1.5 1.047.148.45.074 1.05-.602 1.726-2.769 2.844-21.277 8.84-33.636 12.66-14.762 4.497-36.637 8.016-49.223 11.614-7.941 2.246-15.433 6.219-19.258 6.441-1.57.149-2.922-.074-3.445-.597-.3-.375-.375-1.051-.148-1.426.148-.375 1.347-.973 1.347-.973"/></clipPath><clipPath id="aX"><path d="M0 0h107v34H0z"/></clipPath><clipPath id="ba"><path d="M36.309 161.527h82.574v41.102H36.309Zm0 0"/></clipPath><clipPath id="bb"><path d="M37.078 199.871c34.461-20.004 40.68-22.851 47.5-25.473 6.668-2.472 14.758-4.046 20.3-6.066 3.9-1.5 7.868-3 9.817-4.422 1.047-.75 1.274-2.023 2.024-2.246.597-.078 1.797.45 2.02.899.152.449-.524 1.796-.973 1.945-.45.152-1.797-.598-1.871-1.047-.153-.524.671-1.723 1.12-1.875.45-.149 1.426.375 1.65.824.226.375.226.899 0 1.426-.599 1.121-3.595 2.848-5.692 4.043-2.325 1.351-4.496 2.176-7.645 3.375-4.945 1.871-13.785 3.82-19.476 5.918-4.649 1.648-7.645 2.996-12.215 5.168-6.219 2.996-15.36 7.793-21.653 11.539-5.093 2.996-11.011 8.316-13.558 8.691-.899.149-1.649-.078-1.875-.527-.297-.45.527-2.172.527-2.172"/></clipPath><clipPath id="bd"><path d="M.309.527h82.574V41.63H.309Zm0 0"/></clipPath><clipPath id="be"><path d="M1.078 38.871c34.461-20.004 40.68-22.851 47.5-25.473 6.668-2.472 14.758-4.046 20.3-6.066 3.9-1.5 7.868-3 9.817-4.422C79.742 2.16 79.97.887 80.72.664c.597-.078 1.797.45 2.02.899.152.449-.524 1.796-.973 1.945-.45.152-1.797-.598-1.871-1.047-.153-.523.671-1.723 1.12-1.875.45-.148 1.426.375 1.65.824.226.375.226.899 0 1.426-.599 1.121-3.595 2.848-5.692 4.043-2.325 1.351-4.496 2.176-7.645 3.375-4.945 1.871-13.785 3.82-19.476 5.918-4.649 1.648-7.645 2.996-12.215 5.168-6.219 2.996-15.36 7.793-21.653 11.539-5.093 2.996-11.011 8.316-13.558 8.691-.899.149-1.649-.078-1.875-.527-.297-.45.527-2.172.527-2.172"/></clipPath><clipPath id="bc"><path d="M0 0h83v42H0z"/></clipPath><clipPath id="bf"><path d="M192.613 136.77h137.633v29.394H192.613Zm0 0"/></clipPath><clipPath id="bg"><path d="M193.887 137.09c5.992-.602 9.738-.153 14.008.375 6.52.82 15.359 2.097 24.722 4.043 12.363 2.625 29.145 8.015 42.781 10.937 12.211 2.625 25.696 3.973 34.989 6.145 6.293 1.426 13.183 3.222 15.582 4.422.75.449.824 1.12 1.347 1.199.602.074 1.5-1.05 2.024-.902.45.152.976 1.125.898 1.574-.074.527-.824 1.273-1.347 1.273-.45.074-1.496-.824-1.649-1.347-.074-.375.227-1.047.524-1.274.375-.226 1.05-.45 1.425-.226.45.226 1.2 1.5.973 1.949-.45.75-4.047.75-6.594.523-3.82-.449-8.09-2.922-13.785-4.27-8.914-2.171-23-3.519-35.21-6.144-13.563-2.922-30.118-8.312-42.407-10.863-9.215-1.945-18.055-3.219-24.422-4.043-4.121-.527-7.644-.977-10.191-.899-1.57 0-2.996.747-3.82.45-.524-.227-1.048-.903-1.048-1.352-.078-.523 1.2-1.57 1.2-1.57"/></clipPath><clipPath id="bi"><path d="M.613.77h137.633v29.394H.613Zm0 0"/></clipPath><clipPath id="bj"><path d="M1.887 1.09c5.992-.602 9.738-.153 14.008.375 6.52.82 15.359 2.097 24.722 4.043 12.363 2.625 29.145 8.015 42.781 10.937 12.211 2.625 25.696 3.973 34.989 6.145 6.293 1.426 13.183 3.223 15.582 4.422.75.449.824 1.12 1.347 1.199.602.074 1.5-1.05 2.024-.902.45.152.976 1.125.898 1.574-.074.527-.824 1.273-1.347 1.273-.45.074-1.496-.824-1.649-1.347-.074-.375.227-1.047.524-1.274.375-.226 1.05-.45 1.425-.226.45.226 1.2 1.5.973 1.949-.45.75-4.047.75-6.594.523-3.82-.449-8.09-2.922-13.785-4.27-8.914-2.171-23-3.519-35.21-6.144-13.563-2.922-30.118-8.312-42.407-10.863-9.215-1.945-18.055-3.219-24.422-4.043-4.121-.527-7.644-.977-10.191-.899-1.57 0-2.996.747-3.82.45C1.21 3.785.687 3.109.687 2.66c-.079-.523 1.199-1.57 1.199-1.57"/></clipPath><clipPath id="bh"><path d="M0 0h139v31H0z"/></clipPath><clipPath id="bk"><path d="M198.113 145.14H326v45.708H198.113Zm0 0"/></clipPath><clipPath id="bl"><path d="M200.18 145.328c39.93 15.961 83.383 30.57 98.593 35.512 6.442 2.101 9.29 3.148 13.786 4.347 4.195 1.047 10.488 1.274 12.21 2.622.75.523 1.2 1.425 1.051 1.949-.226.449-1.574 1.047-2.023.824-.45-.152-.973-1.574-.75-2.023.226-.45 1.574-.825 2.023-.676.45.226.899 1.199.75 1.648-.152.528-.898.977-1.875 1.125-2.246.375-8.09-1.5-12.285-2.62-4.57-1.2-7.344-2.173-13.937-4.349-16.258-5.394-68.028-22.773-84.508-29.292-6.895-2.696-12.961-4.57-14.535-6.442-.524-.676-.598-1.574-.375-1.95.226-.448 1.875-.675 1.875-.675"/></clipPath><clipPath id="bn"><path d="M.113.285H128v45.563H.113Zm0 0"/></clipPath><clipPath id="bo"><path d="M2.18.328c39.93 15.961 83.383 30.57 98.593 35.512 6.442 2.101 9.29 3.148 13.786 4.347 4.195 1.047 10.488 1.274 12.21 2.622.75.523 1.2 1.425 1.051 1.949-.226.449-1.574 1.047-2.023.824-.45-.152-.973-1.574-.75-2.023.226-.45 1.574-.825 2.023-.676.45.226.899 1.199.75 1.648-.152.528-.898.977-1.875 1.125-2.246.375-8.09-1.5-12.285-2.62-4.57-1.2-7.344-2.173-13.937-4.349-16.258-5.394-68.028-22.773-84.508-29.292C8.32 6.699 2.254 4.825.68 2.953.156 2.277.082 1.38.305 1.003.53.556 2.18.329 2.18.329"/></clipPath><clipPath id="bm"><path d="M0 0h128v46H0z"/></clipPath><clipPath id="bp"><path d="M195.95 159h110.484v72.223H195.949Zm0 0"/></clipPath><clipPath id="bq"><path d="M198.156 159.04c26.969 19.554 33.637 23.675 43.528 29.894 15.507 9.664 52.293 30.492 60.46 36.484 2.247 1.648 3.598 2.547 4.047 3.598.149.523.075 1.047-.226 1.347-.3.375-1.2.75-1.723.602-.449-.153-.972-1.05-.972-1.5s.375-.973.746-1.2c.3-.222.976-.222 1.351-.074s.824.676.899 1.125c0 .45-.45 1.348-.899 1.57-.375.227-.824.153-1.351-.073-.973-.375-1.645-1.575-3.293-2.77-4.348-3.074-14.91-8.469-25.024-14.535-15.734-9.59-45.629-27.946-59.937-37.762-8.39-5.691-17.758-11.46-19.407-14.309-.449-.824-.449-1.574-.148-1.949.3-.449 1.95-.449 1.95-.449"/></clipPath><clipPath id="bs"><path d="M.95 0h110.484v72.113H.949Zm0 0"/></clipPath><clipPath id="bt"><path d="M3.156.04c26.969 19.554 33.637 23.675 43.528 29.894 15.507 9.664 52.293 30.492 60.46 36.484 2.247 1.648 3.598 2.547 4.047 3.598.149.523.075 1.046-.226 1.347-.3.375-1.2.75-1.723.602-.449-.153-.972-1.05-.972-1.5s.375-.973.746-1.2c.3-.222.976-.222 1.351-.074s.824.676.899 1.125c0 .45-.45 1.348-.899 1.57-.375.227-.824.153-1.351-.073-.973-.376-1.645-1.575-3.293-2.77-4.348-3.074-14.91-8.469-25.024-14.535-15.734-9.59-45.629-27.946-59.937-37.762-8.39-5.691-17.758-11.46-19.407-14.308C.906 1.613.906.863 1.207.488 1.507.04 3.157.04 3.157.04"/></clipPath><clipPath id="br"><path d="M0 0h112v73H0z"/></clipPath><clipPath id="bu"><path d="M195.387 120.691h131.406v9.254H195.387Zm0 0"/></clipPath><clipPath id="bv"><path d="M196.5 125.945c41.371-.3 57.262-1.875 71.348-2.398 13.754-.524 30.136-.149 40.824-.824 6.902-.375 14.902-2.922 17.039-1.649.66.375 1.043 1.2.988 1.723 0 .45-.601 1.273-.933 1.273-.383 0-1.204-.898-1.258-1.422 0-.449.71-1.5 1.094-1.574.386-.074.933.676 1.097 1.125.11.375 0 .973-.219 1.348-.437.598-1.261.75-2.628 1.047-4.332 1.05-17.704 1.199-28.223 1.648-13.48.528-33.043.45-45.977 1.051-9.48.45-16.109 1.422-24.605 1.648-9.149.375-25.48 1.95-28.547 0-.715-.449-1.098-1.125-1.098-1.648.055-.45 1.098-1.348 1.098-1.348"/></clipPath><clipPath id="bx"><path d="M.387.691h131.406v9.254H.387Zm0 0"/></clipPath><clipPath id="by"><path d="M1.5 5.945c41.371-.3 57.262-1.875 71.348-2.398 13.754-.524 30.136-.149 40.824-.824 6.902-.375 14.902-2.922 17.039-1.649.66.375 1.043 1.2.988 1.723 0 .45-.601 1.273-.933 1.273-.383 0-1.203-.898-1.258-1.422 0-.449.71-1.5 1.094-1.574.386-.074.933.676 1.097 1.125.11.375 0 .973-.219 1.348-.437.598-1.261.75-2.628 1.047-4.332 1.05-17.704 1.199-28.223 1.648-13.48.528-33.043.45-45.977 1.051-9.48.45-16.109 1.422-24.605 1.648-9.149.375-25.48 1.95-28.547 0C.785 8.492.402 7.816.402 7.293.457 6.843 1.5 5.945 1.5 5.945"/></clipPath><clipPath id="bw"><path d="M0 0h132v10H0z"/></clipPath><clipPath id="bz"><path d="M1.34 127.156H96.62v13.492H1.34Zm0 0"/></clipPath><clipPath id="bA"><path d="M95.926 140.61c-36.336-1.126-42.52-2.923-48.992-3.446-6.118-.523-12.332 0-17.895-.375-4.848-.3-9.953-.973-13.629-1.574-2.472-.45-4.035-.672-6.183-1.422-2.344-.824-6.313-2.25-7.32-3.598-.325-.375-.552-.824-.552-1.273 0-.524.391-1.649.586-1.649.227-.074.715.973.715 1.426 0 .524-.457 1.57-.683 1.57-.227-.074-.653-1.199-.618-1.648.032-.523.325-1.121.747-1.348 1.14-.597 4.976 2.7 7.289 3.524 2.113.746 3.644.973 6.05 1.422 3.645.597 8.75 1.273 13.598 1.574 5.563.375 11.844-.152 17.957.375 6.477.523 12.594 2.32 19.848 2.922 8.781.672 26.578-2.098 29.082.523.457.45.652 1.125.652 1.649 0 .523-.652 1.347-.652 1.347"/></clipPath><clipPath id="bC"><path d="M.34.156H95.62v13.492H.34Zm0 0"/></clipPath><clipPath id="bD"><path d="M94.926 13.61c-36.336-1.126-42.52-2.922-48.992-3.446-6.118-.523-12.332 0-17.895-.375-4.848-.3-9.953-.973-13.629-1.574-2.472-.45-4.035-.672-6.183-1.422-2.344-.824-6.313-2.25-7.32-3.598C.581 2.82.354 2.371.354 1.922c0-.524.391-1.649.586-1.649.227-.074.715.973.715 1.426 0 .524-.457 1.57-.683 1.57C.746 3.196.32 2.07.355 1.622.387 1.098.68.5 1.102.273c1.14-.597 4.976 2.7 7.289 3.524 2.113.746 3.644.973 6.05 1.422 3.645.597 8.75 1.273 13.598 1.574 5.563.375 11.844-.152 17.957.375 6.477.523 12.594 2.32 19.848 2.922 8.781.672 26.578-2.098 29.082.523.457.45.652 1.125.652 1.649 0 .523-.652 1.347-.652 1.347"/></clipPath><clipPath id="bB"><path d="M0 0h96v14H0z"/></clipPath><clipPath id="bE"><path d="M113.723 50.523h18.757v20.961h-18.757Zm0 0"/></clipPath><clipPath id="bF"><path d="M115.816 50.555c6.293 4.797 13.114 13.488 15.063 16.633.898 1.347 1.723 2.398 1.496 3.148-.148.523-.973 1.047-1.496 1.047-.375 0-.977-.301-1.2-.672-.226-.375-.3-1.05-.077-1.426.152-.375.675-.75 1.05-.824.45-.148 1.047.074 1.348.375.3.3.523.898.45 1.348-.075.375-.524.898-.9 1.125-.374.148-.823.148-1.421-.149-2.324-1.273-9.816-13.71-12.887-16.41-1.347-1.2-2.922-1.121-3.297-1.945-.3-.602-.148-1.649.149-2.024.375-.3 1.722-.226 1.722-.226"/></clipPath><clipPath id="bH"><path d="M.723.523H19.48v20.961H.723Zm0 0"/></clipPath><clipPath id="bI"><path d="M2.816.555C9.11 5.352 15.93 14.043 17.88 17.188c.898 1.347 1.723 2.398 1.496 3.148-.148.523-.973 1.047-1.496 1.047-.375 0-.977-.301-1.2-.672-.226-.375-.3-1.05-.077-1.426.152-.375.675-.75 1.05-.824.45-.148 1.047.074 1.348.375.3.3.523.898.45 1.348-.075.375-.524.898-.9 1.125-.374.148-.823.148-1.421-.149C14.805 19.887 7.312 7.45 4.242 4.75 2.895 3.55 1.32 3.629.945 2.805c-.3-.602-.148-1.649.149-2.024.375-.3 1.722-.226 1.722-.226"/></clipPath><clipPath id="bG"><path d="M0 0h20v22H0z"/></clipPath><clipPath id="bJ"><path d="M117.434 49.25h23.812v28.668h-23.812Zm0 0"/></clipPath><clipPath id="bK"><path d="M118.965 49.355c7.191 3.075 9.59 5.997 11.988 9.215 3.371 4.496 9.887 14.61 10.113 17.457.075.825-.148 1.426-.601 1.649-.45.3-1.871-.074-2.098-.524-.222-.449.153-1.875.602-2.023.449-.223 1.797.3 2.097.75.223.3.075 1.047-.148 1.348-.227.375-.75.75-1.2.675-.823-.074-1.948-1.425-2.847-2.625-1.273-1.722-1.95-4.566-3.371-7.117-1.875-3.293-4.723-8.164-6.969-10.785-1.5-1.875-2.996-3.148-4.57-4.121-1.348-.824-3.672-.824-4.27-1.574-.3-.375-.3-.973-.148-1.348.223-.45 1.422-.977 1.422-.977"/></clipPath><clipPath id="bM"><path d="M.434.25h23.812v28.668H.434Zm0 0"/></clipPath><clipPath id="bN"><path d="M1.965.355c7.191 3.075 9.59 5.997 11.988 9.215 3.371 4.496 9.887 14.61 10.113 17.457.075.825-.148 1.426-.601 1.649-.45.3-1.871-.074-2.098-.524-.222-.449.153-1.875.602-2.023.449-.223 1.797.3 2.097.75.223.3.075 1.047-.148 1.348-.227.375-.75.75-1.2.675-.823-.074-1.948-1.425-2.847-2.625-1.273-1.722-1.95-4.566-3.371-7.117-1.875-3.293-4.723-8.164-6.969-10.785-1.5-1.875-2.996-3.148-4.57-4.121C3.613 3.43 1.289 3.43.69 2.68c-.3-.375-.3-.973-.148-1.348C.766.882 1.965.355 1.965.355"/></clipPath><clipPath id="bL"><path d="M0 0h25v29H0z"/></clipPath><clipPath id="bO"><path d="M171.273 43.352h26.118v36.816h-26.118Zm0 0"/></clipPath><clipPath id="bP"><path d="M196.582 46.059c-5.992 4.421-6.219 5.843-7.043 6.668-.824.824-2.398 1.05-2.848 1.726-.375.45-.074.824-.375 1.496-.972 1.797-6.14 5.543-8.015 8.465-1.574 2.473-2.696 5.172-3.145 7.492-.3 1.801.746 3.672.297 5.098-.297 1.195-1.273 2.77-2.02 2.996-.527.223-1.425-.152-1.726-.523-.297-.301-.375-.977-.223-1.352.149-.375.598-.824 1.047-.973.375-.074 1.051.075 1.352.301.297.297.523.899.523 1.348-.074.375-.449.972-.824 1.125-.45.222-1.426 0-1.797-.301-.3-.3-.453-.898-.375-1.348.149-.449.824-.601 1.047-1.273.45-1.05-.223-3.223.074-5.098.45-2.472 1.2-5.469 3.074-8.539 2.77-4.797 10.563-12.586 14.383-15.957 2.172-1.95 4.348-4.047 5.621-4.047.746 0 1.496.676 1.649 1.125.148.45-.676 1.57-.676 1.57"/></clipPath><clipPath id="bR"><path d="M.273.352h26.118v36.816H.273Zm0 0"/></clipPath><clipPath id="bS"><path d="M25.582 3.059c-5.992 4.421-6.219 5.843-7.043 6.668-.824.824-2.398 1.05-2.848 1.726-.375.45-.074.824-.375 1.496-.972 1.797-6.14 5.543-8.015 8.465-1.574 2.473-2.696 5.172-3.145 7.492-.3 1.801.746 3.672.297 5.098-.297 1.195-1.273 2.77-2.02 2.996-.527.223-1.425-.152-1.726-.523-.297-.301-.375-.977-.223-1.352.149-.375.598-.824 1.047-.973.375-.074 1.051.075 1.352.301.297.297.523.899.523 1.348-.074.375-.449.972-.824 1.125-.45.222-1.426 0-1.797-.301-.3-.3-.453-.898-.375-1.348.149-.449.824-.601 1.047-1.273.45-1.05-.223-3.223.074-5.098.45-2.472 1.2-5.468 3.074-8.539C7.375 15.57 15.168 7.781 18.988 4.41 21.16 2.46 23.336.363 24.61.363c.746 0 1.496.676 1.649 1.125.148.45-.676 1.57-.676 1.57"/></clipPath><clipPath id="bQ"><path d="M0 0h27v38H0z"/></clipPath><clipPath id="bT"><path d="M126.45 20.879h17.472V61h-17.473Zm0 0"/></clipPath><clipPath id="bU"><path d="M128.855 21.113c4.043 3.969 5.993 6.89 7.415 9.512 1.5 2.922 2.625 5.695 3.746 9.441 1.574 5.246 3.972 16.559 3.824 19.18-.078.75-.153 1.05-.453 1.348-.371.3-1.274.375-1.723.226-.375-.152-.746-.675-.824-1.125-.074-.449.3-1.199.676-1.496.375-.226 1.05-.3 1.422-.078.375.227.902 1.05.902 1.574-.078.375-.453.973-.824 1.125-.375.149-1.051.149-1.426 0-.375-.226-.75-.824-.75-1.199 0-.523.527-1.348.976-1.574.375-.149 1.047 0 1.348.226.375.223.676.899.676 1.348-.078.375-.375.973-.75 1.2-.45.148-1.2.3-1.723-.227-1.875-1.57-2.773-14.907-4.347-20.227-1.047-3.597-2.172-7.117-3.297-8.765-.524-.825-1.2-.899-1.649-1.575-.597-.824-.672-2.172-1.422-3.222-.898-1.348-3.82-2.77-4.12-3.895-.15-.75.226-1.648.675-1.95.375-.222 1.648.153 1.648.153"/></clipPath><clipPath id="bW"><path d="M.45.879h17.472V41H.449Zm0 0"/></clipPath><clipPath id="bX"><path d="M2.855 1.113c4.043 3.969 5.993 6.89 7.415 9.512 1.5 2.922 2.625 5.695 3.746 9.441 1.574 5.247 3.972 16.559 3.824 19.18-.078.75-.152 1.05-.453 1.348-.371.3-1.274.375-1.723.226-.375-.152-.746-.675-.824-1.125-.074-.449.3-1.199.676-1.496.375-.226 1.05-.3 1.422-.078.375.227.902 1.05.902 1.574-.078.375-.453.973-.824 1.125-.375.149-1.051.149-1.426 0-.375-.226-.75-.824-.75-1.199 0-.523.527-1.348.976-1.574.375-.149 1.047 0 1.348.226.375.223.676.899.676 1.348-.078.375-.375.973-.75 1.2-.45.148-1.2.3-1.723-.227-1.875-1.57-2.773-14.907-4.347-20.227-1.047-3.597-2.172-7.117-3.297-8.765-.524-.825-1.2-.899-1.649-1.575-.597-.824-.672-2.172-1.422-3.222C3.754 5.457.832 4.035.532 2.91c-.15-.75.226-1.648.675-1.95.375-.222 1.648.153 1.648.153"/></clipPath><clipPath id="bV"><path d="M0 0h18v41H0z"/></clipPath><clipPath id="bY"><path d="M143.98 13.04h8.329v40.226h-8.329Zm0 0"/></clipPath><clipPath id="bZ"><path d="M147.36 14.52c3.148 31.539 5.245 35.363 4.87 37.16-.152.75-.527 1.347-1.05 1.5-.45.148-1.348-.227-1.649-.602-.3-.3-.3-.973-.148-1.422.148-.375.672-.824 1.047-.902.527 0 1.726.75 1.8 1.277.075.524-.824 1.649-1.351 1.723-.45.074-1.047-.3-1.496-.977-1.2-1.496-1.875-5.992-2.621-10.336-1.125-6.894-3.746-23.976-2.399-27.421.375-.899 1.125-1.5 1.649-1.426.523 0 1.347 1.426 1.347 1.426"/></clipPath><clipPath id="cb"><path d="M.98.04H9.31v40.226H.98Zm0 0"/></clipPath><clipPath id="cc"><path d="M4.36 1.52c3.148 31.539 5.245 35.363 4.87 37.16-.152.75-.527 1.347-1.05 1.5-.45.148-1.348-.227-1.649-.602-.3-.3-.3-.973-.148-1.422.148-.375.672-.824 1.047-.902.527 0 1.726.75 1.8 1.277.075.524-.824 1.649-1.351 1.723-.45.074-1.047-.3-1.496-.977-1.2-1.496-1.875-5.992-2.621-10.336C2.637 22.047.016 4.965 1.363 1.52 1.738.62 2.488.02 3.012.094c.523 0 1.347 1.426 1.347 1.426"/></clipPath><clipPath id="ca"><path d="M0 0h10v41H0z"/></clipPath><clipPath id="cd"><path d="M157.613 13.383h4.282v36.734h-4.282Zm0 0"/></clipPath><clipPath id="ce"><path d="M161.742 14.895c-.37 34.687-.82 35.136-1.347 35.21-.45.075-1.2-.3-1.497-.75-.449-.671-.375-2.394-.152-3.218.074-.528.3-1.051.676-1.2.375-.3 1.422-.226 1.797.075.3.222.523.898.523 1.273-.074.45-.449.973-.82 1.2-.375.148-1.05.148-1.426 0-.3-.227-.75-.75-.75-1.2s.45-1.347.899-1.5c.453-.222 1.425 0 1.8.45.524.675.598 3.296.075 4.12-.301.528-1.348.825-1.797.676-.45-.148-.75-.523-.977-1.422-1.2-3.746-1.723-29.894 0-33.714.45-.977 1.125-1.5 1.649-1.5.527.074 1.347 1.5 1.347 1.5"/></clipPath><clipPath id="cg"><path d="M.613.383h4.282v36.734H.613Zm0 0"/></clipPath><clipPath id="ch"><path d="M4.742 1.895c-.37 34.687-.82 35.136-1.347 35.21-.45.075-1.2-.3-1.497-.75-.449-.671-.375-2.394-.152-3.218.074-.528.3-1.051.676-1.2.375-.3 1.422-.226 1.797.075.3.222.523.898.523 1.273-.074.45-.449.973-.82 1.2-.375.148-1.05.148-1.426 0-.3-.227-.75-.75-.75-1.2s.45-1.347.899-1.5c.453-.223 1.425 0 1.8.45.524.675.598 3.296.075 4.12-.301.528-1.348.825-1.797.676-.45-.148-.75-.523-.977-1.422-1.2-3.746-1.723-29.894 0-33.714.45-.977 1.125-1.5 1.649-1.5.527.074 1.347 1.5 1.347 1.5"/></clipPath><clipPath id="cf"><path d="M0 0h5v38H0z"/></clipPath><clipPath id="ci"><path d="M162.605 19.7h20.5v35.023h-20.5Zm0 0"/></clipPath><clipPath id="cj"><path d="M183.02 21.785c-11.836 23.45-15.73 30.867-17.754 32.367-.676.45-1.348.598-1.797.375-.45-.226-.977-1.648-.676-2.023.227-.45 1.648-.899 2.023-.602.45.227.75 1.649.524 2.098-.223.375-1.274.75-1.723.602-.449-.227-.972-1.051-.898-1.95.148-2.695 6.367-9.738 9.215-14.984 3.07-5.543 6.293-15.508 8.464-17.305.75-.601 1.5-.675 1.95-.449.449.223.672 1.871.672 1.871"/></clipPath><clipPath id="cl"><path d="M.605.7h20.5v35.023H.605Zm0 0"/></clipPath><clipPath id="cm"><path d="M21.02 2.785C9.184 26.235 5.29 33.652 3.266 35.152c-.676.45-1.348.598-1.797.375-.45-.226-.977-1.648-.676-2.023.227-.45 1.648-.899 2.023-.602.45.227.75 1.649.524 2.098-.223.375-1.274.75-1.723.602-.449-.227-.972-1.051-.898-1.95.148-2.695 6.367-9.738 9.215-14.984 3.07-5.543 6.293-15.508 8.464-17.305.75-.601 1.5-.675 1.95-.449.449.223.672 1.871.672 1.871"/></clipPath><clipPath id="ck"><path d="M0 0h22v36H0z"/></clipPath><clipPath id="cn"><path d="M174.14 21.023H195V57.18h-20.86Zm0 0"/></clipPath><clipPath id="co"><path d="M194.71 23.586c-5.694 9.363-11.089 22.324-14.085 27.344-1.648 2.773-2.996 5.543-4.27 5.992-.675.3-1.5.078-1.8-.297s-.45-1.426-.149-1.8c.301-.45 1.723-.747 2.172-.45.375.3.524 1.727.3 2.176-.3.37-1.347.672-1.8.449-.45-.227-.824-1.125-.746-2.023.223-2.098 3.82-5.77 5.918-9.664 2.996-5.47 7.34-16.56 9.965-20.532 1.2-1.797 2.172-3.445 3.144-3.668.528-.078 1.274.375 1.5.746.223.453-.148 1.727-.148 1.727"/></clipPath><clipPath id="cq"><path d="M.14.023H21V36.18H.14Zm0 0"/></clipPath><clipPath id="cr"><path d="M20.71 2.586C15.017 11.949 9.622 24.91 6.626 29.93c-1.648 2.773-2.996 5.543-4.27 5.992-.675.3-1.5.078-1.8-.297s-.45-1.426-.149-1.8c.301-.45 1.723-.747 2.172-.45.375.3.524 1.727.3 2.176-.3.37-1.347.672-1.8.449-.45-.227-.824-1.125-.746-2.023.223-2.098 3.82-5.77 5.918-9.664 2.996-5.47 7.34-16.56 9.965-20.532 1.2-1.797 2.172-3.445 3.144-3.668.528-.078 1.274.375 1.5.746.223.454-.148 1.727-.148 1.727"/></clipPath><clipPath id="cp"><path d="M0 0h21v37H0z"/></clipPath><clipPath id="cs"><path d="M115.95 23.79h18.26v35.12h-18.26Zm0 0"/></clipPath><clipPath id="ct"><path d="M118.29 23.883c7.792 9.441 12.437 17.008 14.16 22.176 1.273 4.046 2.023 9.293 1.573 11.238-.222.824-.597 1.351-1.046 1.5-.375.148-1.051 0-1.426-.227-.301-.297-.598-.898-.524-1.273 0-.45.301-1.047.75-1.195.45-.227 1.797.148 2.024.597.222.45-.227 1.871-.676 2.024-.45.222-1.5-.153-2.023-.825-1.274-1.574-.375-7.343-1.723-11.312-1.723-5.02-6.07-12.438-8.766-16.11-1.574-2.171-4.12-3.445-4.57-4.718-.148-.676-.074-1.348.223-1.723.375-.3 2.023-.152 2.023-.152"/></clipPath><clipPath id="cv"><path d="M.95.79h18.26v35.12H.95Zm0 0"/></clipPath><clipPath id="cw"><path d="M3.29.883c7.792 9.441 12.437 17.008 14.16 22.176 1.273 4.046 2.023 9.293 1.573 11.238-.222.824-.597 1.351-1.046 1.5-.375.148-1.051 0-1.426-.227-.301-.297-.598-.898-.524-1.273 0-.45.301-1.047.75-1.195.45-.227 1.797.148 2.024.597.222.45-.227 1.871-.676 2.024-.45.222-1.5-.153-2.023-.825-1.274-1.574-.375-7.343-1.723-11.312-1.723-5.02-6.07-12.438-8.766-16.11-1.574-2.171-4.12-3.445-4.57-4.718-.148-.676-.074-1.348.223-1.723.375-.3 2.023-.152 2.023-.152"/></clipPath><clipPath id="cu"><path d="M0 0h20v36H0z"/></clipPath><clipPath id="cx"><path d="M134.508 10.352h12.148V34.23h-12.148Zm0 0"/></clipPath><clipPath id="cy"><path d="M136.645 10.398c3.222 2.848 4.347 5.02 4.945 6.594.45 1.422.226 2.399.676 4.121.824 2.844 4.195 9.29 4.343 11.313 0 .672 0 1.047-.3 1.347-.371.301-1.348.524-1.797.375-.375-.148-.825-.675-.825-1.125-.074-.375.075-1.046.375-1.273.301-.3.973-.523 1.426-.45.371.15.899.524 1.047.973.149.45-.074 1.5-.523 1.727-.375.297-1.426.223-2.098-.375-2.172-1.8-4.348-15.512-6.52-18.805-.898-1.425-2.546-1.648-2.773-2.55-.148-.524 0-1.348.375-1.645.375-.3 1.649-.227 1.649-.227"/></clipPath><clipPath id="cA"><path d="M.508.352h12.148V24.23H.508Zm0 0"/></clipPath><clipPath id="cB"><path d="M2.645.398c3.222 2.848 4.347 5.02 4.945 6.594.45 1.422.226 2.399.676 4.121.824 2.844 4.195 9.29 4.343 11.313 0 .672 0 1.047-.3 1.347-.371.301-1.348.524-1.797.375-.375-.148-.825-.675-.825-1.125-.074-.375.075-1.046.376-1.273.3-.3.972-.523 1.425-.45.371.15.899.524 1.047.973.149.45-.074 1.5-.523 1.727-.375.297-1.426.223-2.098-.375-2.172-1.8-4.348-15.512-6.52-18.805C2.497 3.395.849 3.172.622 2.27.473 1.746.621.922.996.625c.375-.3 1.649-.227 1.649-.227"/></clipPath><clipPath id="cz"><path d="M0 0h13v25H0z"/></clipPath><clipPath id="cC"><path d="M159.723 8.902h13.855v27.555h-13.855Zm0 0"/></clipPath><clipPath id="cD"><path d="M173.508 10.922C161.82 36.32 161.218 36.469 160.77 36.32c-.375-.074-.825-.597-.973-1.047-.074-.375.074-1.05.375-1.351.223-.297.898-.598 1.273-.524.524.149 1.348 1.274 1.274 1.797 0 .45-.824 1.125-1.274 1.2-.523.074-1.347-.375-1.574-.973-.375-.899.598-3.07 1.274-4.797.898-2.098 2.62-4.043 3.972-6.816 1.871-3.895 3.969-12.813 5.844-14.383.672-.528 1.496-.602 1.945-.375.45.222.602 1.87.602 1.87"/></clipPath><clipPath id="cF"><path d="M.723.902h13.855v27.555H.723Zm0 0"/></clipPath><clipPath id="cG"><path d="M14.508 2.922C2.82 28.32 2.218 28.469 1.77 28.32c-.375-.074-.825-.597-.973-1.047-.074-.375.074-1.05.375-1.351.223-.297.898-.598 1.273-.524.524.149 1.348 1.274 1.274 1.797 0 .45-.824 1.125-1.274 1.2-.523.074-1.347-.375-1.574-.973-.375-.899.598-3.07 1.274-4.797.898-2.098 2.62-4.043 3.972-6.816 1.871-3.895 3.969-12.813 5.844-14.383.672-.528 1.496-.602 1.945-.375.45.222.602 1.87.602 1.87"/></clipPath><clipPath id="cE"><path d="M0 0h15v29H0z"/></clipPath><clipPath id="cH"><path d="M44.945 75.883h38.203v41.3H44.945Zm0 0"/></clipPath><clipPath id="cI"><path d="M82.777 78.277C76.11 89.965 76.11 93.336 75.36 95.434c-.449 1.421-.746 2.398-1.648 3.445-.973 1.2-2.246 1.875-4.27 3.07-3.82 2.324-14.382 6.52-17.68 8.766-1.425.976-2.097 1.5-2.847 2.55-.824 1.047-1.047 3.372-1.797 3.743-.527.226-1.347 0-1.722-.297-.301-.375-.528-1.348-.227-1.723.227-.449 1.648-.75 2.098-.601.3.074.523.375.601.675.149.45-.078 1.422-.453 1.797-.297.227-1.047.375-1.422.227-.449-.227-.972-1.05-.972-1.5s.296-1.047.671-1.2c.528-.222 1.875.153 2.098.524.227.453-.297 1.8-.672 2.098-.226.226-.898.152-.976.078 0-.078 1.726-.824 1.726-.824s-1.05.972-1.5.898-1.199-.824-1.347-1.426c-.227-.898.523-2.62 1.273-3.746.898-1.347 1.945-2.32 3.895-3.746 4.195-2.996 17.906-6.89 21.503-11.46 2.246-2.923 1.121-6.52 2.395-9.59 1.352-3.372 4.047-8.169 5.695-9.891.824-.824 1.649-1.422 2.246-1.348.375 0 .825.602.977.973.148.375-.227 1.351-.227 1.351"/></clipPath><clipPath id="cK"><path d="M.945.883h38.203v41.3H.945Zm0 0"/></clipPath><clipPath id="cL"><path d="M38.777 3.277C32.11 14.965 32.11 18.336 31.36 20.434c-.449 1.421-.746 2.398-1.648 3.445-.973 1.2-2.246 1.875-4.27 3.07-3.82 2.324-14.382 6.52-17.68 8.766-1.425.976-2.097 1.5-2.847 2.55-.824 1.047-1.047 3.372-1.797 3.743-.527.226-1.347 0-1.722-.297-.301-.375-.528-1.348-.227-1.723.227-.449 1.648-.75 2.098-.601.3.074.523.375.601.675.149.45-.078 1.422-.453 1.797-.297.227-1.047.375-1.422.227-.449-.227-.972-1.05-.972-1.5s.296-1.047.671-1.2c.528-.222 1.875.153 2.098.524.227.453-.297 1.8-.672 2.098-.226.226-.898.152-.976.078 0-.078 1.726-.824 1.726-.824s-1.05.972-1.5.898-1.199-.824-1.347-1.426c-.227-.898.523-2.62 1.273-3.746.898-1.347 1.945-2.32 3.895-3.746 4.195-2.996 17.906-6.89 21.503-11.46 2.247-2.923 1.122-6.52 2.395-9.59C31.438 8.82 34.133 4.022 35.78 2.3c.824-.824 1.649-1.422 2.246-1.348.375 0 .825.602.977.973.148.375-.227 1.351-.227 1.351"/></clipPath><clipPath id="cJ"><path d="M0 0h40v43H0z"/></clipPath><clipPath id="cM"><path d="M236.379 68.723h37.7v25.87h-37.7Zm0 0"/></clipPath><clipPath id="cN"><path d="M238.688 68.762c6.89 4.718 8.765 6.593 10.714 8.914 2.395 2.996 4.196 8.617 7.266 10.863 2.621 1.95 6.441 2.25 9.363 2.7 2.473.448 5.844-.602 6.969.148.676.449 1.125 1.5.973 2.023-.149.45-1.121.899-1.57.899s-.977-.45-1.2-.75c-.152-.375-.152-1.047 0-1.422.223-.375.75-.75 1.2-.825.374 0 1.046.223 1.273.524.297.3.449.973.297 1.426-.075.37-.45.746-.973.972-.973.45-3.297.301-5.395.075-3.144-.301-9.14-1.575-11.312-2.621-1.047-.45-1.273-.676-2.023-1.5-1.797-1.872-4.868-7.79-7.118-10.489-1.574-1.87-2.847-3.07-4.57-4.496-1.797-1.496-5.242-2.922-5.918-4.195-.375-.672-.3-1.649 0-2.024.375-.375 2.024-.222 2.024-.222"/></clipPath><clipPath id="cP"><path d="M.379.723h37.7v25.87H.378Zm0 0"/></clipPath><clipPath id="cQ"><path d="M2.688.762c6.89 4.718 8.765 6.593 10.714 8.914 2.395 2.996 4.196 8.617 7.266 10.863 2.621 1.95 6.441 2.25 9.363 2.7 2.473.448 5.844-.602 6.969.148.676.449 1.125 1.5.973 2.023-.149.45-1.121.899-1.57.899s-.977-.45-1.2-.75c-.152-.375-.152-1.047 0-1.422.223-.375.75-.75 1.2-.825.374 0 1.046.223 1.273.524.297.3.449.973.297 1.426-.075.37-.45.746-.973.972-.973.45-3.297.301-5.395.075-3.144-.301-9.14-1.575-11.312-2.622-1.047-.449-1.273-.675-2.023-1.5-1.797-1.87-4.868-7.789-7.118-10.488-1.574-1.87-2.847-3.07-4.57-4.496C4.785 5.707 1.34 4.281.664 3.008c-.375-.672-.3-1.649 0-2.024C1.04.61 2.688.762 2.688.762"/></clipPath><clipPath id="cO"><path d="M0 0h39v27H0z"/></clipPath><clipPath id="cR"><path d="M83.648 107.191h34.934V127H83.648Zm0 0"/></clipPath><clipPath id="cS"><path d="M85.7 107.27c5.468 2.773 8.765 6.816 12.812 9.214 5.168 2.996 17.082 5.395 19.18 7.645.675.746.898 1.648.675 2.02-.226.449-1.648.902-2.101.601-.45-.227-.746-1.723-.45-2.098.301-.449 1.727-.675 2.176-.375.375.301.598 1.348.45 1.797-.153.375-.75.824-1.575.899-2.172.226-9.367-3.07-13.035-4.645-2.848-1.2-4.797-2.023-7.344-3.594-2.996-1.949-6.816-6.218-9.14-7.644-1.274-.746-2.547-.598-3.145-1.274-.375-.449-.676-1.496-.375-1.945.223-.375 1.871-.601 1.871-.601"/></clipPath><clipPath id="cU"><path d="M.648.191h34.934V20H.648Zm0 0"/></clipPath><clipPath id="cV"><path d="M2.7.27c5.468 2.773 8.765 6.816 12.812 9.214 5.168 2.996 17.082 5.395 19.18 7.645.675.746.898 1.648.675 2.02-.226.449-1.648.902-2.101.601-.45-.227-.746-1.723-.45-2.098.301-.449 1.727-.675 2.176-.375.375.301.598 1.348.45 1.797-.153.375-.75.824-1.575.899-2.172.226-9.367-3.07-13.035-4.645-2.848-1.2-4.797-2.023-7.344-3.594-2.996-1.949-6.816-6.218-9.14-7.644-1.274-.746-2.547-.598-3.145-1.274C.828 2.367.527 1.32.828.871 1.051.496 2.7.27 2.7.27"/></clipPath><clipPath id="cT"><path d="M0 0h36v20H0z"/></clipPath><clipPath id="cW"><path d="M69.898 121.387h51.493v10.101H69.898Zm0 0"/></clipPath><clipPath id="cX"><path d="M70.941 128.621c12.813-5.918 15.207-6.742 17.082-7.043 1.348-.223 2.247-.223 3.594 0 1.801.227 3.746 1.574 6.07 2.024 3.07.527 7.493.3 10.864.375 2.847 0 5.918.523 8.015 0 1.426-.301 2.473-1.946 3.371-1.723.602.074 1.426 1.125 1.426 1.574-.074.524-1.199 1.422-1.722 1.348-.528-.074-1.352-1.274-1.274-1.723.149-.523 1.348-1.2 1.871-1.2.375.075.899.602 1.051.974.148.375.074.902-.227 1.351-.523.746-1.722 1.57-3.37 2.098-3.82 1.047-14.91.523-20.079-.078-3.37-.45-5.547-2.098-8.168-2.098-2.398.078-4.418.977-6.968 1.95-3.22 1.124-8.465 5.093-10.563 5.019-.973-.074-1.797-.672-1.945-1.125-.153-.45.972-1.723.972-1.723"/></clipPath><clipPath id="cZ"><path d="M.898.387h51.493v10.101H.898Zm0 0"/></clipPath><clipPath id="da"><path d="M1.941 7.621C14.754 1.703 17.148.88 19.023.578c1.348-.223 2.247-.223 3.594 0 1.801.227 3.746 1.574 6.07 2.024 3.07.527 7.493.3 10.864.375 2.847 0 5.918.523 8.015 0 1.426-.301 2.473-1.946 3.371-1.723.602.074 1.426 1.125 1.426 1.574-.074.524-1.199 1.422-1.722 1.348-.528-.074-1.352-1.274-1.274-1.723.149-.523 1.348-1.2 1.871-1.2.375.075.899.602 1.051.974.148.375.074.902-.227 1.351-.523.746-1.722 1.57-3.37 2.098-3.82 1.047-14.91.523-20.079-.078-3.37-.45-5.547-2.098-8.168-2.098-2.398.078-4.418.977-6.968 1.95-3.22 1.124-8.465 5.093-10.563 5.019-.973-.074-1.797-.672-1.945-1.125-.153-.45.972-1.723.972-1.723"/></clipPath><clipPath id="cY"><path d="M0 0h53v11H0z"/></clipPath><clipPath id="db"><path d="M201.164 96h31.969v26.164h-31.969Zm0 0"/></clipPath><clipPath id="dc"><path d="M232.992 98.355c-28.918 23.223-29.969 23.825-30.715 23.676-.449-.152-.902-.601-.976-.976-.149-.45-.074-1.121.226-1.422.375-.375 1.797-.524 2.172-.227.375.375.45 1.875.074 2.172-.375.375-1.796.375-2.171 0-.375-.371-.301-1.422.148-2.172.824-1.496 4.121-2.62 7.043-4.867 5.394-4.047 18.656-17.309 22.176-18.355.902-.301 1.648-.153 1.949.222.375.375.074 1.95.074 1.95"/></clipPath><clipPath id="de"><path d="M.164 0h31.969v26.164H.164Zm0 0"/></clipPath><clipPath id="df"><path d="M31.992 2.355C3.074 25.578 2.023 26.18 1.277 26.031c-.449-.152-.902-.601-.976-.976-.149-.45-.074-1.121.226-1.422.375-.375 1.797-.524 2.172-.227.375.375.45 1.875.074 2.172-.375.375-1.796.375-2.171 0-.375-.371-.301-1.422.148-2.172.824-1.496 4.121-2.62 7.043-4.867C13.188 14.492 26.449 1.23 29.969.184c.902-.301 1.648-.153 1.949.222.375.375.074 1.95.074 1.95"/></clipPath><clipPath id="dd"><path d="M0 0h33v27H0z"/></clipPath><clipPath id="dg"><path d="M201.61 109.898h62.644v14.973h-62.645Zm0 0"/></clipPath><clipPath id="dh"><path d="M202.277 122.105c14.758-6.293 18.653-6.07 22.399-7.043 3.972-.976 8.168-3.074 11.914-3.898 3.222-.746 5.695-1.496 9.215-1.195 5.02.449 15.582 4.27 17.605 5.765.602.375.75.75.824 1.125 0 .45-.222 1.051-.523 1.348-.3.227-.973.45-1.426.3-.37-.148-1.047-.972-1.047-1.5 0-.448.676-1.273 1.125-1.421.375-.148 1.047.074 1.348.3.3.302.523.9.523 1.348-.074.375-.3.899-.824 1.125-1.2.524-5.02-.75-7.64-1.574-3.075-.898-6.368-3.597-9.516-4.047-2.996-.375-5.77.602-8.914 1.348-3.746.824-8.02 2.922-11.988 3.898-3.672.899-7.418.672-10.938 1.797-3.746 1.125-8.766 5.02-10.863 5.02-.899 0-1.649-.375-1.875-.824-.223-.45.601-1.872.601-1.872"/></clipPath><clipPath id="dj"><path d="M.61.898h62.64v14.973H.61Zm0 0"/></clipPath><clipPath id="dk"><path d="M1.277 13.105c14.758-6.292 18.653-6.07 22.399-7.042 3.972-.977 8.168-3.075 11.914-3.899C38.812 1.418 41.285.668 44.805.97c5.02.449 15.582 4.27 17.605 5.765.602.375.75.75.824 1.125 0 .45-.222 1.051-.523 1.348-.3.227-.973.45-1.426.3-.37-.148-1.047-.972-1.047-1.5 0-.448.676-1.273 1.125-1.421.375-.149 1.047.074 1.348.3.3.301.523.9.523 1.348-.074.375-.3.899-.824 1.125-1.2.524-5.02-.75-7.64-1.574-3.075-.898-6.368-3.597-9.516-4.047-2.996-.375-5.77.602-8.914 1.348-3.746.824-8.02 2.922-11.988 3.898-3.672.899-7.418.672-10.938 1.797-3.746 1.125-8.766 5.02-10.863 5.02-.899 0-1.649-.375-1.875-.824-.223-.45.601-1.872.601-1.872"/></clipPath><clipPath id="di"><path d="M0 0h64v16H0z"/></clipPath><clipPath id="dl"><path d="M253.094 75.152h20.605v10.082h-20.605Zm0 0"/></clipPath><clipPath id="dm"><path d="M254.645 75.203c7.343.824 12.511 2.024 14.984 3.598 1.797 1.199 3.523 3.144 3.973 4.27.148.523.074 1.05-.079 1.425-.222.297-.824.746-1.195.672-.527 0-1.5-.973-1.648-1.496-.078-.375.37-.977.672-1.2.375-.226 1.05-.374 1.425-.152.375.227.973 1.051.899 1.575-.074.449-1.051 1.347-1.723 1.273-1.05-.074-2.25-2.922-3.898-3.895-1.871-1.199-4.72-1.875-7.118-2.398-2.32-.523-5.843-.074-6.964-.898-.602-.375-.903-1.051-.825-1.5.075-.45 1.497-1.274 1.497-1.274"/></clipPath><clipPath id="do"><path d="M.094.152h20.605v10.082H.094Zm0 0"/></clipPath><clipPath id="dp"><path d="M1.645.203c7.343.824 12.511 2.024 14.984 3.598C18.426 5 20.152 6.945 20.602 8.07c.148.523.074 1.05-.079 1.425-.222.297-.824.746-1.195.672-.527 0-1.5-.973-1.648-1.496-.078-.375.37-.977.672-1.2.375-.226 1.05-.374 1.425-.152.375.227.973 1.051.899 1.575-.074.449-1.051 1.347-1.723 1.273-1.05-.074-2.25-2.922-3.898-3.895-1.871-1.199-4.72-1.875-7.117-2.398-2.32-.523-5.844-.074-6.965-.898C.37 2.602.07 1.926.148 1.477.223 1.027 1.645.203 1.645.203"/></clipPath><clipPath id="dn"><path d="M0 0h21v11H0z"/></clipPath><clipPath id="dq"><path d="M121.953 134.727h7.16v11.898h-7.16Zm0 0"/></clipPath><clipPath id="dr"><path d="M128.328 137.313c-3.144 2.773-3.594 3.597-3.445 4.421.148.973 1.875 2.024 2.023 2.848.074.672-.226 1.422-.523 1.797-.375.223-1.051.3-1.426.148-.45-.222-1.047-1.047-.973-1.496 0-.527.75-1.273 1.2-1.351.375-.149 1.046.078 1.347.375.301.375.524 1.425.227 1.8-.227.45-1.426.825-2.098.524-1.05-.45-2.625-3.297-2.7-4.945-.073-1.649 1.2-3.97 2.099-4.946.523-.672 1.05-.898 1.722-1.199.824-.297 2.176-.746 2.7-.45.374.153.597.825.597 1.274 0 .375-.75 1.2-.75 1.2"/></clipPath><clipPath id="dt"><path d="M.953.727h7.16v11.898H.953Zm0 0"/></clipPath><clipPath id="du"><path d="M7.328 3.313C4.184 6.086 3.734 6.91 3.883 7.734c.148.973 1.875 2.024 2.023 2.848.074.672-.226 1.422-.523 1.797-.375.223-1.051.3-1.426.148-.45-.222-1.047-1.047-.973-1.496 0-.527.75-1.273 1.2-1.351.375-.149 1.046.078 1.347.375.301.375.524 1.425.227 1.8-.227.45-1.426.825-2.098.524-1.05-.45-2.625-3.297-2.7-4.945-.073-1.649 1.2-3.97 2.099-4.946.523-.672 1.05-.898 1.722-1.199.824-.297 2.176-.746 2.7-.45.374.153.597.825.597 1.274 0 .375-.75 1.2-.75 1.2"/></clipPath><clipPath id="ds"><path d="M0 0h9v13H0z"/></clipPath><clipPath id="dv"><path d="M193.77 133.512h5.597v11.37h-5.597Zm0 0"/></clipPath><clipPath id="dw"><path d="M195.984 133.64c3.22 1.876 3.22 3.45 3.293 4.57.078 1.2.153 2.4-.148 3.45-.3 1.047-.973 2.547-1.574 2.996-.45.297-1.047.223-1.422.074-.375-.148-.824-.675-.899-1.125 0-.449.45-1.347.825-1.574.375-.222 1.12-.222 1.421.078.375.223.825 1.2.676 1.649-.074.449-.898 1.12-1.426 1.12-.449 0-1.199-.448-1.421-1.046-.45-1.273 2.324-5.621 1.722-6.82-.449-.746-2.172-.45-2.695-.899-.3-.375-.527-.898-.527-1.347.078-.375.449-.899.824-1.125.3-.223 1.351 0 1.351 0"/></clipPath><clipPath id="dy"><path d="M.77.512h5.597v11.37H.77Zm0 0"/></clipPath><clipPath id="dz"><path d="M2.984.64c3.22 1.876 3.22 3.45 3.293 4.57.078 1.2.153 2.4-.148 3.45-.3 1.047-.973 2.547-1.574 2.996-.45.297-1.047.223-1.422.074-.375-.148-.824-.675-.899-1.125 0-.449.45-1.347.825-1.574.375-.222 1.12-.222 1.421.078.375.223.825 1.2.676 1.649-.074.449-.898 1.12-1.426 1.12-.449 0-1.199-.448-1.421-1.046-.45-1.273 2.324-5.621 1.722-6.82-.449-.746-2.172-.45-2.695-.899-.3-.375-.527-.898-.527-1.347.078-.375.449-.899.824-1.125.3-.223 1.351 0 1.351 0"/></clipPath><clipPath id="dx"><path d="M0 0h7v12H0z"/></clipPath><linearGradient id="aq" x1="128" x2="128" y1="569" y2="0" gradientTransform="translate(.26 .338)scale(.15644)" gradientUnits="userSpaceOnUse"><stop offset="0" stop-color="#3c2626"/><stop offset=".004" stop-color="#3d2727"/><stop offset=".008" stop-color="#3e2828"/><stop offset=".012" stop-color="#3f2928"/><stop offset=".016" stop-color="#402a29"/><stop offset=".02" stop-color="#412b2a"/><stop offset=".023" stop-color="#422b2b"/><stop offset=".027" stop-color="#442c2b"/><stop offset=".031" stop-color="#452d2c"/><stop offset=".035" stop-color="#462e2d"/><stop offset=".039" stop-color="#472f2e"/><stop offset=".043" stop-color="#48302e"/><stop offset=".047" stop-color="#49312f"/><stop offset=".051" stop-color="#4a3130"/><stop offset=".055" stop-color="#4b3231"/><stop offset=".059" stop-color="#4c3331"/><stop offset=".063" stop-color="#4d3432"/><stop offset=".066" stop-color="#4e3533"/><stop offset=".07" stop-color="#4f3634"/><stop offset=".074" stop-color="#503734"/><stop offset=".078" stop-color="#513835"/><stop offset=".082" stop-color="#523836"/><stop offset=".086" stop-color="#533936"/><stop offset=".09" stop-color="#543a37"/><stop offset=".094" stop-color="#553b38"/><stop offset=".098" stop-color="#563c39"/><stop offset=".102" stop-color="#573d39"/><stop offset=".105" stop-color="#583e3a"/><stop offset=".109" stop-color="#5a3e3b"/><stop offset=".113" stop-color="#5b3f3c"/><stop offset=".117" stop-color="#5c403c"/><stop offset=".121" stop-color="#5d413d"/><stop offset=".125" stop-color="#5e423e"/><stop offset=".129" stop-color="#5f433f"/><stop offset=".133" stop-color="#60443f"/><stop offset=".137" stop-color="#614540"/><stop offset=".141" stop-color="#624541"/><stop offset=".145" stop-color="#634642"/><stop offset=".148" stop-color="#644742"/><stop offset=".152" stop-color="#654843"/><stop offset=".156" stop-color="#664944"/><stop offset=".16" stop-color="#674a45"/><stop offset=".164" stop-color="#684b45"/><stop offset=".168" stop-color="#694b46"/><stop offset=".172" stop-color="#6a4c47"/><stop offset=".176" stop-color="#6b4d48"/><stop offset=".18" stop-color="#6c4e48"/><stop offset=".184" stop-color="#6d4f49"/><stop offset=".188" stop-color="#6e504a"/><stop offset=".191" stop-color="#6f514a"/><stop offset=".195" stop-color="#71524b"/><stop offset=".199" stop-color="#72524c"/><stop offset=".203" stop-color="#73534d"/><stop offset=".207" stop-color="#74544d"/><stop offset=".211" stop-color="#75554e"/><stop offset=".215" stop-color="#76564f"/><stop offset=".219" stop-color="#775750"/><stop offset=".223" stop-color="#785850"/><stop offset=".227" stop-color="#795851"/><stop offset=".23" stop-color="#7a5952"/><stop offset=".234" stop-color="#7b5a53"/><stop offset=".238" stop-color="#7c5b53"/><stop offset=".242" stop-color="#7d5c54"/><stop offset=".246" stop-color="#7e5d55"/><stop offset=".25" stop-color="#7f5e56"/><stop offset=".254" stop-color="#805e56"/><stop offset=".258" stop-color="#815f57"/><stop offset=".262" stop-color="#826058"/><stop offset=".266" stop-color="#836159"/><stop offset=".27" stop-color="#846259"/><stop offset=".273" stop-color="#85635a"/><stop offset=".277" stop-color="#86645b"/><stop offset=".281" stop-color="#88655c"/><stop offset=".285" stop-color="#89655c"/><stop offset=".289" stop-color="#8a665d"/><stop offset=".293" stop-color="#8b675e"/><stop offset=".297" stop-color="#8c685f"/><stop offset=".301" stop-color="#8d695f"/><stop offset=".305" stop-color="#8e6a60"/><stop offset=".309" stop-color="#8f6b61"/><stop offset=".313" stop-color="#906b61"/><stop offset=".316" stop-color="#916c62"/><stop offset=".32" stop-color="#926d63"/><stop offset=".324" stop-color="#936e64"/><stop offset=".328" stop-color="#946f64"/><stop offset=".332" stop-color="#957065"/><stop offset=".336" stop-color="#967166"/><stop offset=".34" stop-color="#977267"/><stop offset=".344" stop-color="#987267"/><stop offset=".348" stop-color="#997368"/><stop offset=".352" stop-color="#9a7469"/><stop offset=".355" stop-color="#9b756a"/><stop offset=".359" stop-color="#9c766a"/><stop offset=".363" stop-color="#9d776b"/><stop offset=".367" stop-color="#9f786c"/><stop offset=".371" stop-color="#a0786d"/><stop offset=".375" stop-color="#a1796d"/><stop offset=".379" stop-color="#a27a6e"/><stop offset=".383" stop-color="#a37b6f"/><stop offset=".387" stop-color="#a47c70"/><stop offset=".391" stop-color="#a57d70"/><stop offset=".395" stop-color="#a67e71"/><stop offset=".398" stop-color="#a77f72"/><stop offset=".402" stop-color="#a87f73"/><stop offset=".406" stop-color="#a98073"/><stop offset=".41" stop-color="#aa8174"/><stop offset=".414" stop-color="#ab8275"/><stop offset=".418" stop-color="#ac8376"/><stop offset=".422" stop-color="#ad8476"/><stop offset=".426" stop-color="#ae8577"/><stop offset=".43" stop-color="#af8578"/><stop offset=".434" stop-color="#b08678"/><stop offset=".438" stop-color="#b18779"/><stop offset=".441" stop-color="#b2887a"/><stop offset=".445" stop-color="#b3897b"/><stop offset=".449" stop-color="#b58a7b"/><stop offset=".453" stop-color="#b68b7c"/><stop offset=".457" stop-color="#b78c7d"/><stop offset=".461" stop-color="#b88c7e"/><stop offset=".465" stop-color="#b98d7e"/><stop offset=".469" stop-color="#ba8e7f"/><stop offset=".473" stop-color="#bb8f80"/><stop offset=".477" stop-color="#bc9081"/><stop offset=".48" stop-color="#bd9181"/><stop offset=".484" stop-color="#be9282"/><stop offset=".488" stop-color="#bf9283"/><stop offset=".492" stop-color="#c09384"/><stop offset=".496" stop-color="#c19484"/><stop offset=".5" stop-color="#c29585"/><stop offset=".504" stop-color="#c29685"/><stop offset=".508" stop-color="#c39686"/><stop offset=".512" stop-color="#c39786"/><stop offset=".516" stop-color="#c49886"/><stop offset=".52" stop-color="#c49887"/><stop offset=".523" stop-color="#c49987"/><stop offset=".527" stop-color="#c59a87"/><stop offset=".531" stop-color="#c59a88"/><stop offset=".535" stop-color="#c69b88"/><stop offset=".539" stop-color="#c69c88"/><stop offset=".543" stop-color="#c69c89"/><stop offset=".547" stop-color="#c79d89"/><stop offset=".551" stop-color="#c79e89"/><stop offset=".555" stop-color="#c89e8a"/><stop offset=".559" stop-color="#c89f8a"/><stop offset=".563" stop-color="#c8a08a"/><stop offset=".566" stop-color="#c9a08a"/><stop offset=".57" stop-color="#c9a18b"/><stop offset=".574" stop-color="#caa28b"/><stop offset=".578" stop-color="#caa28b"/><stop offset=".582" stop-color="#caa38c"/><stop offset=".586" stop-color="#cba38c"/><stop offset=".59" stop-color="#cba48c"/><stop offset=".594" stop-color="#cca58d"/><stop offset=".598" stop-color="#cca58d"/><stop offset=".602" stop-color="#cca68d"/><stop offset=".605" stop-color="#cda78e"/><stop offset=".609" stop-color="#cda78e"/><stop offset=".613" stop-color="#cea88e"/><stop offset=".617" stop-color="#cea98f"/><stop offset=".621" stop-color="#cea98f"/><stop offset=".625" stop-color="#cfaa8f"/><stop offset=".629" stop-color="#cfab90"/><stop offset=".633" stop-color="#d0ab90"/><stop offset=".637" stop-color="#d0ac90"/><stop offset=".641" stop-color="#d0ad91"/><stop offset=".645" stop-color="#d1ad91"/><stop offset=".648" stop-color="#d1ae91"/><stop offset=".652" stop-color="#d2af92"/><stop offset=".656" stop-color="#d2af92"/><stop offset=".66" stop-color="#d2b092"/><stop offset=".664" stop-color="#d3b192"/><stop offset=".668" stop-color="#d3b193"/><stop offset=".672" stop-color="#d4b293"/><stop offset=".676" stop-color="#d4b393"/><stop offset=".68" stop-color="#d4b394"/><stop offset=".684" stop-color="#d5b494"/><stop offset=".688" stop-color="#d5b594"/><stop offset=".691" stop-color="#d6b595"/><stop offset=".695" stop-color="#d6b695"/><stop offset=".699" stop-color="#d6b795"/><stop offset=".703" stop-color="#d7b796"/><stop offset=".707" stop-color="#d7b896"/><stop offset=".711" stop-color="#d8b896"/><stop offset=".715" stop-color="#d8b997"/><stop offset=".719" stop-color="#d8ba97"/><stop offset=".723" stop-color="#d9ba97"/><stop offset=".727" stop-color="#d9bb98"/><stop offset=".73" stop-color="#dabc98"/><stop offset=".734" stop-color="#dabc98"/><stop offset=".738" stop-color="#dabd99"/><stop offset=".742" stop-color="#dbbe99"/><stop offset=".746" stop-color="#dbbe99"/><stop offset=".75" stop-color="#dcbf9a"/><stop offset=".754" stop-color="#dcc09a"/><stop offset=".758" stop-color="#dcc09a"/><stop offset=".762" stop-color="#ddc19a"/><stop offset=".766" stop-color="#ddc29b"/><stop offset=".77" stop-color="#dec29b"/><stop offset=".773" stop-color="#dec39b"/><stop offset=".777" stop-color="#dec49c"/><stop offset=".781" stop-color="#dfc49c"/><stop offset=".785" stop-color="#dfc59c"/><stop offset=".789" stop-color="#e0c69d"/><stop offset=".793" stop-color="#e0c69d"/><stop offset=".797" stop-color="#e0c79d"/><stop offset=".801" stop-color="#e1c89e"/><stop offset=".805" stop-color="#e1c89e"/><stop offset=".809" stop-color="#e1c99e"/><stop offset=".813" stop-color="#e2ca9f"/><stop offset=".816" stop-color="#e2ca9f"/><stop offset=".82" stop-color="#e3cb9f"/><stop offset=".824" stop-color="#e3cba0"/><stop offset=".828" stop-color="#e3cca0"/><stop offset=".832" stop-color="#e4cda0"/><stop offset=".836" stop-color="#e4cda1"/><stop offset=".84" stop-color="#e5cea1"/><stop offset=".844" stop-color="#e5cfa1"/><stop offset=".848" stop-color="#e5cfa2"/><stop offset=".852" stop-color="#e6d0a2"/><stop offset=".855" stop-color="#e6d1a2"/><stop offset=".859" stop-color="#e7d1a2"/><stop offset=".863" stop-color="#e7d2a3"/><stop offset=".867" stop-color="#e7d3a3"/><stop offset=".871" stop-color="#e8d3a3"/><stop offset=".875" stop-color="#e8d4a4"/><stop offset=".879" stop-color="#e9d5a4"/><stop offset=".883" stop-color="#e9d5a4"/><stop offset=".887" stop-color="#e9d6a5"/><stop offset=".891" stop-color="#ead7a5"/><stop offset=".895" stop-color="#ead7a5"/><stop offset=".898" stop-color="#ebd8a6"/><stop offset=".902" stop-color="#ebd9a6"/><stop offset=".906" stop-color="#ebd9a6"/><stop offset=".91" stop-color="#ecdaa7"/><stop offset=".914" stop-color="#ecdba7"/><stop offset=".918" stop-color="#eddba7"/><stop offset=".922" stop-color="#eddca8"/><stop offset=".926" stop-color="#eddda8"/><stop offset=".93" stop-color="#eedda8"/><stop offset=".934" stop-color="#eedea9"/><stop offset=".938" stop-color="#efdfa9"/><stop offset=".941" stop-color="#efdfa9"/><stop offset=".945" stop-color="#efe0aa"/><stop offset=".949" stop-color="#f0e0aa"/><stop offset=".953" stop-color="#f0e1aa"/><stop offset=".957" stop-color="#f1e2aa"/><stop offset=".961" stop-color="#f1e2ab"/><stop offset=".965" stop-color="#f1e3ab"/><stop offset=".969" stop-color="#f2e4ab"/><stop offset=".973" stop-color="#f2e4ac"/><stop offset=".977" stop-color="#f3e5ac"/><stop offset=".98" stop-color="#f3e6ac"/><stop offset=".984" stop-color="#f3e6ad"/><stop offset=".988" stop-color="#f4e7ad"/><stop offset=".992" stop-color="#f4e8ad"/><stop offset=".996" stop-color="#f5e8ae"/><stop offset="1" stop-color="#f5e9ae"/></linearGradient></defs><g clip-path="url(#a)"><g clip-path="url(#b)"><g clip-path="url(#c)" transform="translate(34)"><g clip-path="url(#d)"><g clip-path="url(#e)"><path fill="#bfa06f" d="M.914 0h242.66v214.953H.914Zm0 0"/></g></g></g></g></g><g clip-path="url(#f)"><g clip-path="url(#g)"><g clip-path="url(#h)" transform="translate(160 132)"><g clip-path="url(#i)"><g clip-path="url(#j)"><path fill="#d0cebd" d="M.844.012h52.11v52.11H.843Zm0 0"/></g></g></g></g></g><g clip-path="url(#k)"><g clip-path="url(#l)"><g clip-path="url(#m)" transform="translate(105 132)"><g clip-path="url(#n)"><g clip-path="url(#o)"><path fill="#d0cebd" d="M.14.688h52.11v52.105H.14Zm0 0"/></g></g></g></g></g><g clip-path="url(#p)"><g clip-path="url(#q)"><g clip-path="url(#r)"><g clip-path="url(#s)" transform="translate(80 52)"><g clip-path="url(#t)"><g clip-path="url(#u)"><g clip-path="url(#v)"><path fill="#3a291b" d="m-7.766 30.21 21.16-38.655 46.208 25.293-21.16 38.656Zm0 0"/></g></g></g></g></g></g></g><g clip-path="url(#w)"><g clip-path="url(#x)"><g clip-path="url(#y)"><g clip-path="url(#z)" transform="translate(81 53)"><g clip-path="url(#A)"><g clip-path="url(#B)"><g clip-path="url(#C)"><path fill="#ccb287" d="M-6.797 28.816 13.125-7.582l43.512 23.816L36.71 52.633Zm0 0"/></g></g></g></g></g></g></g><g clip-path="url(#D)"><g clip-path="url(#E)"><g clip-path="url(#F)"><g clip-path="url(#G)" transform="translate(180 49)"><g clip-path="url(#H)"><g clip-path="url(#I)"><g clip-path="url(#J)"><path fill="#3a291b" d="m20.207 58.473-29.965-32.32L28.875-9.66l29.96 32.32Zm0 0"/></g></g></g></g></g></g></g><g clip-path="url(#K)"><g clip-path="url(#L)"><g clip-path="url(#M)"><g clip-path="url(#N)" transform="translate(181 50)"><g clip-path="url(#O)"><g clip-path="url(#P)"><g clip-path="url(#Q)"><path fill="#ccb287" d="m19.457 55.477-28.21-30.43L27.62-8.672l28.211 30.43Zm0 0"/></g></g></g></g></g></g></g><g clip-path="url(#R)"><g clip-path="url(#S)"><g clip-path="url(#T)" transform="translate(34 19)"><g clip-path="url(#U)"><g clip-path="url(#V)"><path fill="#bfa06f" d="M-107.425-70.645h480.6v338.04h-480.6z"/></g></g></g></g></g><g clip-path="url(#W)"><g clip-path="url(#X)"><g clip-path="url(#Y)" transform="translate(43 18)"><g clip-path="url(#Z)"><g clip-path="url(#aa)"><path fill="#bfa06f" d="M-116.425-69.645h480.6v338.04h-480.6z"/></g></g></g></g></g><g clip-path="url(#ab)"><g clip-path="url(#ac)"><g clip-path="url(#ad)" transform="translate(41 17)"><g clip-path="url(#ae)"><g clip-path="url(#af)"><path fill="#bfa06f" d="M-114.425-68.645h480.6v338.04h-480.6z"/></g></g></g></g></g><g clip-path="url(#ag)"><g clip-path="url(#ah)"><g clip-path="url(#ai)" transform="translate(229 20)"><g clip-path="url(#aj)"><g clip-path="url(#ak)"><path fill="#bfa06f" d="M-302.425-71.645h480.6v338.04h-480.6z"/></g></g></g></g></g><g clip-path="url(#al)"><g clip-path="url(#am)"><g clip-path="url(#an)" transform="translate(136 67)"><g clip-path="url(#ao)"><g clip-path="url(#ap)"><path fill="url(#aq)" d="M.262.336v89.016h40.047V.336Zm0 0"/></g></g></g></g></g><g clip-path="url(#ar)"><g clip-path="url(#as)"><g clip-path="url(#at)" transform="translate(137 149)"><g clip-path="url(#au)"><g clip-path="url(#av)"><path fill="#825740" d="M-210.425-200.645h480.6v338.04h-480.6z"/></g></g></g></g></g><g clip-path="url(#aw)"><g clip-path="url(#ax)"><g clip-path="url(#ay)" transform="translate(156 152)"><g clip-path="url(#az)"><g clip-path="url(#aA)"><path fill="#825740" d="M-229.425-203.645h480.6v338.04h-480.6z"/></g></g></g></g></g><g clip-path="url(#aB)"><g clip-path="url(#aC)"><g clip-path="url(#aD)" transform="translate(169 151)"><g clip-path="url(#aE)"><g clip-path="url(#aF)"><path fill="#825740" d="M-242.425-202.645h480.6v338.04h-480.6z"/></g></g></g></g></g><g clip-path="url(#aG)"><g clip-path="url(#aH)"><g clip-path="url(#aI)" transform="translate(141 162)"><g clip-path="url(#aJ)"><g clip-path="url(#aK)"><path fill="#825740" d="M-214.425-213.645h480.6v338.04h-480.6z"/></g></g></g></g></g><g clip-path="url(#aL)"><g clip-path="url(#aM)"><g clip-path="url(#aN)" transform="translate(160 167)"><g clip-path="url(#aO)"><g clip-path="url(#aP)"><path fill="#825740" d="M-233.425-218.645h480.6v338.04h-480.6z"/></g></g></g></g></g><g clip-path="url(#aQ)"><g clip-path="url(#aR)"><g clip-path="url(#aS)" transform="translate(9 143)"><g clip-path="url(#aT)"><g clip-path="url(#aU)"><path fill="#fff" d="M-82.425-194.645h480.6v338.04h-480.6z"/></g></g></g></g></g><g clip-path="url(#aV)"><g clip-path="url(#aW)"><g clip-path="url(#aX)" transform="translate(14 150)"><g clip-path="url(#aY)"><g clip-path="url(#aZ)"><path fill="#fff" d="M-87.425-201.645h480.6v338.04h-480.6z"/></g></g></g></g></g><g clip-path="url(#ba)"><g clip-path="url(#bb)"><g clip-path="url(#bc)" transform="translate(36 161)"><g clip-path="url(#bd)"><g clip-path="url(#be)"><path fill="#fff" d="M-109.425-212.645h480.6v338.04h-480.6z"/></g></g></g></g></g><g clip-path="url(#bf)"><g clip-path="url(#bg)"><g clip-path="url(#bh)" transform="translate(192 136)"><g clip-path="url(#bi)"><g clip-path="url(#bj)"><path fill="#fff" d="M-265.425-187.645h480.6v338.04h-480.6z"/></g></g></g></g></g><g clip-path="url(#bk)"><g clip-path="url(#bl)"><g clip-path="url(#bm)" transform="translate(198 145)"><g clip-path="url(#bn)"><g clip-path="url(#bo)"><path fill="#fff" d="M-271.425-196.645h480.6v338.04h-480.6z"/></g></g></g></g></g><g clip-path="url(#bp)"><g clip-path="url(#bq)"><g clip-path="url(#br)" transform="translate(195 159)"><g clip-path="url(#bs)"><g clip-path="url(#bt)"><path fill="#fff" d="M-268.425-210.645h480.6v338.04h-480.6z"/></g></g></g></g></g><g clip-path="url(#bu)"><g clip-path="url(#bv)"><g clip-path="url(#bw)" transform="translate(195 120)"><g clip-path="url(#bx)"><g clip-path="url(#by)"><path fill="#fff" d="M-268.425-171.645h480.6v338.04h-480.6z"/></g></g></g></g></g><g clip-path="url(#bz)"><g clip-path="url(#bA)"><g clip-path="url(#bB)" transform="translate(1 127)"><g clip-path="url(#bC)"><g clip-path="url(#bD)"><path fill="#fff" d="M-74.425-178.645h480.6v338.04h-480.6z"/></g></g></g></g></g><g clip-path="url(#bE)"><g clip-path="url(#bF)"><g clip-path="url(#bG)" transform="translate(113 50)"><g clip-path="url(#bH)"><g clip-path="url(#bI)"><path fill="#bfa06f" d="M-186.425-101.645h480.6v338.04h-480.6z"/></g></g></g></g></g><g clip-path="url(#bJ)"><g clip-path="url(#bK)"><g clip-path="url(#bL)" transform="translate(117 49)"><g clip-path="url(#bM)"><g clip-path="url(#bN)"><path fill="#ccb287" d="M-190.425-100.645h480.6v338.04h-480.6z"/></g></g></g></g></g><g clip-path="url(#bO)"><g clip-path="url(#bP)"><g clip-path="url(#bQ)" transform="translate(171 43)"><g clip-path="url(#bR)"><g clip-path="url(#bS)"><path fill="#ccb287" d="M-244.425-94.645h480.6v338.04h-480.6z"/></g></g></g></g></g><g clip-path="url(#bT)"><g clip-path="url(#bU)"><g clip-path="url(#bV)" transform="translate(126 20)"><g clip-path="url(#bW)"><g clip-path="url(#bX)"><path fill="#9d7f51" d="M-199.425-71.645h480.6v338.04h-480.6z"/></g></g></g></g></g><g clip-path="url(#bY)"><g clip-path="url(#bZ)"><g clip-path="url(#ca)" transform="translate(143 13)"><g clip-path="url(#cb)"><g clip-path="url(#cc)"><path fill="#9d7f51" d="M-216.425-64.645h480.6v338.04h-480.6z"/></g></g></g></g></g><g clip-path="url(#cd)"><g clip-path="url(#ce)"><g clip-path="url(#cf)" transform="translate(157 13)"><g clip-path="url(#cg)"><g clip-path="url(#ch)"><path fill="#9d7f51" d="M-230.425-64.645h480.6v338.04h-480.6z"/></g></g></g></g></g><g clip-path="url(#ci)"><g clip-path="url(#cj)"><g clip-path="url(#ck)" transform="translate(162 19)"><g clip-path="url(#cl)"><g clip-path="url(#cm)"><path fill="#9d7f51" d="M-235.425-70.645h480.6v338.04h-480.6z"/></g></g></g></g></g><g clip-path="url(#cn)"><g clip-path="url(#co)"><g clip-path="url(#cp)" transform="translate(174 21)"><g clip-path="url(#cq)"><g clip-path="url(#cr)"><path fill="#9d7f51" d="M-247.425-72.645h480.6v338.04h-480.6z"/></g></g></g></g></g><g clip-path="url(#cs)"><g clip-path="url(#ct)"><g clip-path="url(#cu)" transform="translate(115 23)"><g clip-path="url(#cv)"><g clip-path="url(#cw)"><path fill="#9d7f51" d="M-188.425-74.645h480.6v338.04h-480.6z"/></g></g></g></g></g><g clip-path="url(#cx)"><g clip-path="url(#cy)"><g clip-path="url(#cz)" transform="translate(134 10)"><g clip-path="url(#cA)"><g clip-path="url(#cB)"><path fill="#9d7f51" d="M-207.425-61.645h480.6v338.04h-480.6z"/></g></g></g></g></g><g clip-path="url(#cC)"><g clip-path="url(#cD)"><g clip-path="url(#cE)" transform="translate(159 8)"><g clip-path="url(#cF)"><g clip-path="url(#cG)"><path fill="#9d7f51" d="M-232.425-59.645h480.6v338.04h-480.6z"/></g></g></g></g></g><g clip-path="url(#cH)"><g clip-path="url(#cI)"><g clip-path="url(#cJ)" transform="translate(44 75)"><g clip-path="url(#cK)"><g clip-path="url(#cL)"><path fill="#9d7f51" d="M-117.425-126.645h480.6v338.04h-480.6z"/></g></g></g></g></g><g clip-path="url(#cM)"><g clip-path="url(#cN)"><g clip-path="url(#cO)" transform="translate(236 68)"><g clip-path="url(#cP)"><g clip-path="url(#cQ)"><path fill="#9d7f51" d="M-309.425-119.645h480.6v338.04h-480.6z"/></g></g></g></g></g><g clip-path="url(#cR)"><g clip-path="url(#cS)"><g clip-path="url(#cT)" transform="translate(83 107)"><g clip-path="url(#cU)"><g clip-path="url(#cV)"><path fill="#9d7f51" d="M-156.425-158.645h480.6v338.04h-480.6z"/></g></g></g></g></g><g clip-path="url(#cW)"><g clip-path="url(#cX)"><g clip-path="url(#cY)" transform="translate(69 121)"><g clip-path="url(#cZ)"><g clip-path="url(#da)"><path fill="#9d7f51" d="M-142.425-172.645h480.6v338.04h-480.6z"/></g></g></g></g></g><g clip-path="url(#db)"><g clip-path="url(#dc)"><g clip-path="url(#dd)" transform="translate(201 96)"><g clip-path="url(#de)"><g clip-path="url(#df)"><path fill="#9d7f51" d="M-274.425-147.645h480.6v338.04h-480.6z"/></g></g></g></g></g><g clip-path="url(#dg)"><g clip-path="url(#dh)"><g clip-path="url(#di)" transform="translate(201 109)"><g clip-path="url(#dj)"><g clip-path="url(#dk)"><path fill="#9d7f51" d="M-274.425-160.645h480.6v338.04h-480.6z"/></g></g></g></g></g><g clip-path="url(#dl)"><g clip-path="url(#dm)"><g clip-path="url(#dn)" transform="translate(253 75)"><g clip-path="url(#do)"><g clip-path="url(#dp)"><path fill="#9d7f51" d="M-326.425-126.645h480.6v338.04h-480.6z"/></g></g></g></g></g><g clip-path="url(#dq)"><g clip-path="url(#dr)"><g clip-path="url(#ds)" transform="translate(121 134)"><g clip-path="url(#dt)"><g clip-path="url(#du)"><path fill="#9d7f51" d="M-194.425-185.645h480.6v338.04h-480.6z"/></g></g></g></g></g><g clip-path="url(#dv)"><g clip-path="url(#dw)"><g clip-path="url(#dx)" transform="translate(193 133)"><g clip-path="url(#dy)"><g clip-path="url(#dz)"><path fill="#9d7f51" d="M-266.425-184.645h480.6v338.04h-480.6z"/></g></g></g></g></g></svg>