<svg xmlns="http://www.w3.org/2000/svg" width="536" height="493" viewBox="0 0 402 369.75"><defs><clipPath id="a"><path d="M68.27 90.66h243.218v193.965H68.27Zm0 0"/></clipPath><clipPath id="b"><path d="M189.688 90.66c-67.055 0-121.418 43.422-121.418 96.98 0 53.563 54.363 96.985 121.418 96.985 67.058 0 121.417-43.422 121.417-96.984 0-53.559-54.359-96.98-121.418-96.98m0 0"/></clipPath><clipPath id="d"><path d="M.27.66H243v193.965H.27Zm0 0"/></clipPath><clipPath id="e"><path d="M121.688.66C54.632.66.27 44.082.27 97.64c0 53.563 54.363 96.985 121.418 96.985 67.058 0 121.417-43.422 121.417-96.984 0-53.559-54.359-96.98-121.417-96.98m0 0"/></clipPath><clipPath id="c"><path d="M0 0h244v195H0z"/></clipPath><clipPath id="f"><path d="M143.273 139.871h18.762v20.965h-18.762Zm0 0"/></clipPath><clipPath id="g"><path d="M145.367 139.902c6.297 4.797 13.117 13.489 15.067 16.637.898 1.352 1.722 2.399 1.496 3.149-.149.523-.973 1.05-1.496 1.05-.375 0-.977-.3-1.2-.675-.226-.375-.3-1.047-.078-1.422.153-.375.676-.75 1.051-.825.45-.152 1.05.075 1.348.371.3.301.527.903.449 1.352-.074.375-.524.899-.899 1.125-.375.149-.824.149-1.421-.152-2.325-1.274-9.82-13.715-12.891-16.414-1.352-1.2-2.926-1.125-3.3-1.95-.298-.597-.15-1.648.152-2.023.375-.297 1.722-.223 1.722-.223"/></clipPath><clipPath id="i"><path d="M.273.871h18.762v20.965H.273Zm0 0"/></clipPath><clipPath id="j"><path d="M2.367.902C8.664 5.7 15.484 14.391 17.434 17.54c.898 1.352 1.722 2.398 1.496 3.148-.149.524-.973 1.051-1.496 1.051-.375 0-.977-.3-1.2-.675-.226-.375-.3-1.047-.078-1.422.153-.375.676-.75 1.051-.825.45-.152 1.05.075 1.348.372.3.3.527.902.449 1.351-.074.375-.524.898-.899 1.125-.375.148-.824.148-1.421-.152-2.325-1.274-9.82-13.715-12.891-16.414-1.352-1.2-2.926-1.125-3.3-1.95C.194 2.551.342 1.5.644 1.125 1.02.828 2.367.902 2.367.902"/></clipPath><clipPath id="h"><path d="M0 0h20v22H0z"/></clipPath><clipPath id="k"><path d="M113 126h54v30h-54Zm0 0"/></clipPath><clipPath id="l"><path d="m112.11 151.965 3.855-28.473 52.16 7.067-3.86 28.468Zm0 0"/></clipPath><clipPath id="m"><path d="M114.035 137.727c-1.062 7.863 9.746 15.82 24.149 17.77 14.402 1.948 26.941-2.845 28.007-10.704 1.063-7.863-9.75-15.816-24.152-17.77-14.398-1.949-26.937 2.844-28.004 10.704m0 0"/></clipPath><clipPath id="o"><path d="M0 0h54v30H0Zm0 0"/></clipPath><clipPath id="p"><path d="M-.89 25.965 2.964-2.508l52.16 7.067-3.86 28.468Zm0 0"/></clipPath><clipPath id="q"><path d="M1.035 11.727c-1.062 7.863 9.746 15.82 24.149 17.77 14.402 1.948 26.941-2.845 28.007-10.704 1.063-7.863-9.75-15.816-24.152-17.77C14.641-.926 2.102 3.867 1.035 11.727m0 0"/></clipPath><clipPath id="n"><path d="M0 0h54v30H0z"/></clipPath><clipPath id="r"><path d="M115 127h50v29h-50Zm0 0"/></clipPath><clipPath id="s"><path d="m113.746 151.336 3.633-26.809 49.113 6.653-3.633 26.808Zm0 0"/></clipPath><clipPath id="t"><path d="M115.563 137.934c-1.004 7.402 9.175 14.894 22.738 16.73s25.367-2.676 26.37-10.078c1-7.406-9.179-14.895-22.741-16.73-13.559-1.836-25.364 2.675-26.368 10.078m0 0"/></clipPath><clipPath id="v"><path d="M0 0h50v29H0Zm0 0"/></clipPath><clipPath id="w"><path d="M-1.254 24.336 2.38-2.473 51.492 4.18 47.86 30.988Zm0 0"/></clipPath><clipPath id="x"><path d="M.563 10.934C-.441 18.336 9.738 25.828 23.3 27.664s25.367-2.676 26.37-10.078c1-7.406-9.179-14.895-22.741-16.73C13.37-.98 1.566 3.53.563 10.933m0 0"/></clipPath><clipPath id="u"><path d="M0 0h50v29H0z"/></clipPath><clipPath id="y"><path d="M209 127h53v30h-53Zm0 0"/></clipPath><clipPath id="z"><path d="m210.363 158.395-2.386-28.63 52.453-4.374 2.386 28.632Zm0 0"/></clipPath><clipPath id="A"><path d="M209.168 144.082c.66 7.906 12.934 13.336 27.418 12.129s25.691-8.598 25.031-16.504-12.933-13.336-27.418-12.129-25.687 8.598-25.031 16.504m0 0"/></clipPath><clipPath id="C"><path d="M0 0h53v30H0Zm0 0"/></clipPath><clipPath id="D"><path d="m1.363 31.395-2.386-28.63L51.43-1.608l2.386 28.632Zm0 0"/></clipPath><clipPath id="E"><path d="M.168 17.082c.66 7.906 12.934 13.336 27.418 12.129s25.691-8.598 25.031-16.504S39.684-.629 25.2.578-.488 9.176.168 17.082m0 0"/></clipPath><clipPath id="B"><path d="M0 0h53v30H0z"/></clipPath><clipPath id="F"><path d="M210 128h51v28h-51Zm0 0"/></clipPath><clipPath id="G"><path d="m211.828 157.43-2.246-26.957 49.39-4.118 2.247 26.957Zm0 0"/></clipPath><clipPath id="H"><path d="M210.703 143.95c.621 7.445 12.18 12.558 25.817 11.421 13.636-1.137 24.19-8.094 23.57-15.535-.621-7.445-12.18-12.559-25.817-11.422-13.636 1.137-24.191 8.094-23.57 15.535m0 0"/></clipPath><clipPath id="J"><path d="M0 0h50.84v28H0Zm0 0"/></clipPath><clipPath id="K"><path d="M1.828 29.43-.418 2.473l49.39-4.118 2.247 26.958Zm0 0"/></clipPath><clipPath id="L"><path d="M.703 15.95c.621 7.445 12.18 12.558 25.817 11.421 13.636-1.137 24.19-8.094 23.57-15.535C49.469 4.39 37.91-.723 24.273.414 10.637 1.551.082 8.508.703 15.95m0 0"/></clipPath><clipPath id="I"><path d="M0 0h51v28H0z"/></clipPath><clipPath id="M"><path d="M170.39 141.898h34.915v21.485H170.39Zm0 0"/></clipPath><clipPath id="N"><path d="M184.637 141.898h6.36l14.245 21.485h-34.851Zm0 0"/></clipPath><clipPath id="P"><path d="M.39.898H35.22v21.485H.39Zm0 0"/></clipPath><clipPath id="Q"><path d="M14.637.898h6.36l14.245 21.485H.391Zm0 0"/></clipPath><clipPath id="O"><path d="M0 0h36v23H0z"/></clipPath><clipPath id="S"><path d="M169.883 157.582h35.894v17.98h-35.894Zm0 0"/></clipPath><clipPath id="T"><path d="M187.82 157.582c-9.906 0-17.937 4.027-17.937 8.992s8.031 8.988 17.937 8.988c9.903 0 17.934-4.023 17.934-8.988s-8.031-8.992-17.934-8.992m0 0"/></clipPath><clipPath id="V"><path d="M.883.582h35.894v17.98H.883Zm0 0"/></clipPath><clipPath id="W"><path d="M18.82.582C8.914.582.883 4.609.883 9.574s8.031 8.989 17.937 8.989c9.903 0 17.934-4.024 17.934-8.989S28.723.582 18.82.582m0 0"/></clipPath><clipPath id="U"><path d="M0 0h37v19H0z"/></clipPath><clipPath id="X"><path d="M129.484 188.95H247.5v106.753H129.484Zm0 0"/></clipPath><clipPath id="Y"><path d="m188.633 295.703-58.867-40.777 22.484-65.977h72.762l22.488 65.977Zm0 0"/></clipPath><clipPath id="aa"><path d="M.648.95H118.5v106.753H.648Zm0 0"/></clipPath><clipPath id="ab"><path d="M59.633 107.703.766 66.926 23.25.949h72.762L118.5 66.926Zm0 0"/></clipPath><clipPath id="Z"><path d="M0 0h119v108H0z"/></clipPath><clipPath id="ac"><path d="M172 186h30v88h-30Zm0 0"/></clipPath><clipPath id="ad"><path d="m201.969 186.902-2.172 86.68-27.461-.687 2.168-86.68Zm0 0"/></clipPath><clipPath id="ae"><path d="m199.797 273.566 2.172-86.664-14.031 11.543-13.434-12.23-2.168 86.664 14.027-11.54Zm0 0"/></clipPath><clipPath id="ag"><path d="M.098.113H30v87.543H.098Zm0 0"/></clipPath><clipPath id="ah"><path d="m29.969.902-2.172 86.68-27.461-.687L2.504.215Zm0 0"/></clipPath><clipPath id="ai"><path d="M27.797 87.566 29.969.902 15.937 12.445 2.505.215.336 86.879l14.027-11.54Zm0 0"/></clipPath><clipPath id="af"><path d="M0 0h30v88H0z"/></clipPath><clipPath id="aj"><path d="M162.441 198.496h12.856v47.953H162.44Zm0 0"/></clipPath><clipPath id="ak"><path d="m168.867 246.45-6.426-47.95h12.856Zm0 0"/></clipPath><clipPath id="am"><path d="M.441.496h12.856V48.45H.44Zm0 0"/></clipPath><clipPath id="an"><path d="M6.867 48.45.441.5h12.856Zm0 0"/></clipPath><clipPath id="al"><path d="M0 0h14v49H0z"/></clipPath><clipPath id="ao"><path d="M137 165h46v46h-46Zm0 0"/></clipPath><clipPath id="ap"><path d="m163.188 156.652 28.464 29.61-34.586 33.242-28.46-29.61Zm0 0"/></clipPath><clipPath id="aq"><path d="M177.418 171.457c-7.86-8.176-21.95-7.387-31.469 1.766-9.52 9.148-10.867 23.199-3.008 31.375s21.95 7.386 31.47-1.766c9.523-9.152 10.87-23.2 3.007-31.375m0 0"/></clipPath><clipPath id="as"><path d="M0 0h46v46H0Zm0 0"/></clipPath><clipPath id="at"><path d="m26.188-8.348 28.464 29.61-34.586 33.242-28.46-29.61Zm0 0"/></clipPath><clipPath id="au"><path d="M40.418 6.457C32.558-1.719 18.468-.93 8.949 8.223-.57 17.37-1.918 31.422 5.941 39.598s21.95 7.386 31.47-1.766c9.523-9.152 10.87-23.2 3.007-31.375m0 0"/></clipPath><clipPath id="ar"><path d="M0 0h46v46H0z"/></clipPath><clipPath id="av"><path d="M201.969 198.496h12.851v47.953H201.97Zm0 0"/></clipPath><clipPath id="aw"><path d="m208.395 246.45-6.426-47.95h12.851Zm0 0"/></clipPath><clipPath id="ay"><path d="M.969.496H13.82V48.45H.97Zm0 0"/></clipPath><clipPath id="az"><path d="M7.395 48.45.969.5H13.82Zm0 0"/></clipPath><clipPath id="ax"><path d="M0 0h14v49H0z"/></clipPath><clipPath id="aA"><path d="M190 166h46v46h-46Zm0 0"/></clipPath><clipPath id="aB"><path d="m181.469 187.746 27.933-30.11 35.168 32.626-27.933 30.113Zm0 0"/></clipPath><clipPath id="aC"><path d="M195.438 172.691c-7.715 8.317-6.122 22.336 3.562 31.32 9.68 8.981 23.781 9.52 31.496 1.208 7.711-8.317 6.117-22.336-3.562-31.32-9.684-8.981-23.786-9.52-31.496-1.208m0 0"/></clipPath><clipPath id="aE"><path d="M0 0h46v46H0Zm0 0"/></clipPath><clipPath id="aF"><path d="m-8.531 21.746 27.933-30.11L54.57 24.263 26.637 54.375Zm0 0"/></clipPath><clipPath id="aG"><path d="M5.438 6.691C-2.277 15.008-.684 29.027 9 38.011c9.68 8.981 23.781 9.52 31.496 1.208 7.711-8.317 6.117-22.336-3.562-31.32C27.25-1.083 13.148-1.622 5.438 6.69m0 0"/></clipPath><clipPath id="aD"><path d="M0 0h46v46H0z"/></clipPath><clipPath id="aH"><path d="M228.781 176.34H366.47v29.406H228.78Zm0 0"/></clipPath><clipPath id="aI"><path d="M230.05 176.66c5.997-.601 9.747-.152 14.016.375 6.524.824 15.368 2.098 24.735 4.047 12.367 2.621 29.156 8.02 42.797 10.941 12.214 2.625 25.707 3.973 35 6.145 6.297 1.426 13.191 3.223 15.59 4.422.75.45.824 1.125 1.351 1.2.598.077 1.496-1.048 2.024-.9.449.15.972 1.126.898 1.575-.074.523-.824 1.273-1.352 1.273-.449.075-1.496-.824-1.648-1.347-.074-.375.226-1.051.527-1.274.375-.226 1.047-.449 1.422-.226.45.226 1.2 1.5.977 1.949-.45.75-4.047.75-6.598.523-3.82-.449-8.094-2.922-13.789-4.27-8.918-2.175-23.012-3.523-35.227-6.148-13.566-2.922-30.128-8.316-42.421-10.867-9.22-1.95-18.063-3.223-24.434-4.047-4.121-.523-7.645-.972-10.191-.898-1.575 0-3 .75-3.825.449-.523-.227-1.05-.898-1.05-1.348-.075-.527 1.199-1.574 1.199-1.574"/></clipPath><clipPath id="aK"><path d="M.781.34H138.47v29.406H.78Zm0 0"/></clipPath><clipPath id="aL"><path d="M2.05.66c5.997-.601 9.747-.152 14.016.375 6.524.824 15.368 2.098 24.735 4.047 12.367 2.621 29.156 8.02 42.797 10.941 12.215 2.625 25.707 3.973 35 6.145 6.297 1.426 13.191 3.223 15.59 4.422.75.45.824 1.125 1.351 1.2.598.077 1.496-1.048 2.024-.9.449.15.972 1.126.898 1.575-.074.523-.824 1.273-1.352 1.273-.449.075-1.496-.824-1.648-1.347-.074-.375.226-1.051.527-1.274.375-.226 1.047-.449 1.422-.226.45.226 1.2 1.5.977 1.949-.45.75-4.047.75-6.598.523-3.82-.449-8.094-2.922-13.789-4.27-8.918-2.175-23.012-3.523-35.227-6.148-13.566-2.922-30.128-8.316-42.421-10.867-9.22-1.95-18.063-3.223-24.434-4.047-4.121-.523-7.645-.972-10.191-.898-1.575 0-3 .75-3.825.449-.523-.227-1.05-.898-1.05-1.348C.777 1.707 2.05.66 2.05.66"/></clipPath><clipPath id="aJ"><path d="M0 0h139v30H0z"/></clipPath><clipPath id="aM"><path d="M234.285 184.71h127.95v45.727h-127.95Zm0 0"/></clipPath><clipPath id="aN"><path d="M236.348 184.902c39.949 15.965 83.418 30.578 98.632 35.528 6.45 2.097 9.297 3.144 13.793 4.343 4.196 1.051 10.493 1.278 12.215 2.625.75.524 1.2 1.422 1.051 1.95-.226.449-1.574 1.047-2.023.824-.45-.152-.977-1.574-.75-2.024s1.574-.824 2.023-.675c.45.226.899 1.199.75 1.648-.148.527-.898.977-1.875 1.125-2.246.375-8.094-1.5-12.289-2.625-4.574-1.2-7.348-2.172-13.941-4.344-16.266-5.398-68.055-22.785-84.543-29.308-6.895-2.696-12.97-4.57-14.54-6.446-.527-.671-.601-1.574-.374-1.945.222-.453 1.87-.676 1.87-.676"/></clipPath><clipPath id="aP"><path d="M.285.71h127.95v45.728H.284Zm0 0"/></clipPath><clipPath id="aQ"><path d="M2.348.902C42.297 16.867 85.766 31.48 100.98 36.43c6.45 2.097 9.297 3.144 13.793 4.343 4.196 1.051 10.493 1.278 12.215 2.625.75.524 1.2 1.422 1.051 1.95-.226.449-1.574 1.047-2.023.824-.45-.152-.977-1.574-.75-2.024s1.574-.824 2.023-.675c.45.226.898 1.199.75 1.648-.148.527-.898.977-1.875 1.125-2.246.375-8.094-1.5-12.289-2.625-4.574-1.2-7.348-2.172-13.941-4.344C83.668 33.88 31.879 16.492 15.39 9.97 8.496 7.273 2.42 5.399.85 3.523.325 2.852.25 1.95.478 1.578c.222-.453 1.87-.676 1.87-.676"/></clipPath><clipPath id="aO"><path d="M0 0h129v47H0z"/></clipPath><clipPath id="aR"><path d="M232.117 198.36h110.528v72.468H232.117Zm0 0"/></clipPath><clipPath id="aS"><path d="M234.324 198.617c26.985 19.563 33.653 23.684 43.547 29.906 15.516 9.668 52.313 30.504 60.484 36.5 2.247 1.649 3.598 2.547 4.047 3.598.149.524.075 1.05-.226 1.348-.297.375-1.2.75-1.723.601-.45-.152-.973-1.05-.973-1.5s.375-.972.75-1.199c.297-.223.973-.223 1.348-.074.375.148.824.676.899 1.125 0 .45-.45 1.348-.899 1.574-.375.223-.824.149-1.348-.078-.976-.371-1.652-1.57-3.3-2.77-4.348-3.074-14.914-8.472-25.032-14.543-15.738-9.593-45.644-27.953-59.96-37.773-8.395-5.695-17.762-11.469-19.41-14.316-.45-.825-.45-1.575-.153-1.95.3-.449 1.95-.449 1.95-.449"/></clipPath><clipPath id="aU"><path d="M.117.586h110.508v72.191H.117Zm0 0"/></clipPath><clipPath id="aV"><path d="M2.324.617C29.31 20.18 35.977 24.301 45.871 30.523c15.516 9.668 52.313 30.504 60.484 36.5 2.247 1.649 3.598 2.547 4.047 3.598.149.524.075 1.05-.226 1.348-.297.375-1.2.75-1.723.601-.45-.152-.973-1.05-.973-1.5s.375-.972.75-1.199c.297-.223.973-.223 1.348-.074.375.148.824.676.899 1.125 0 .45-.45 1.348-.899 1.574-.375.223-.824.149-1.348-.078-.976-.371-1.652-1.57-3.3-2.77-4.348-3.074-14.914-8.472-25.032-14.543-15.738-9.593-45.644-27.953-59.96-37.773C11.543 11.637 2.175 5.863.527 3.016.077 2.19.077 1.44.374 1.066c.3-.449 1.95-.449 1.95-.449"/></clipPath><clipPath id="aT"><path d="M0 0h111v73H0z"/></clipPath><clipPath id="aW"><path d="M231.555 160.254H363v9.258H231.555Zm0 0"/></clipPath><clipPath id="aX"><path d="M232.668 165.508c41.387-.297 57.285-1.871 71.375-2.399 13.758-.523 30.148-.148 40.84-.824 6.906-.375 14.91-2.922 17.047-1.648.66.375 1.043 1.199.988 1.726 0 .45-.602 1.274-.934 1.274-.382 0-1.203-.903-1.257-1.426 0-.45.71-1.5 1.093-1.574.387-.075.934.675 1.098 1.125.11.375 0 .972-.219 1.347-.437.602-1.262.75-2.633 1.051-4.328 1.05-17.707 1.2-28.23 1.649-13.484.523-33.055.449-45.992 1.05-9.485.45-16.117 1.422-24.617 1.649-9.153.375-25.489 1.949-28.559 0-.715-.45-1.098-1.125-1.098-1.649.055-.449 1.098-1.351 1.098-1.351"/></clipPath><clipPath id="aZ"><path d="M.555.254H132v9.258H.555Zm0 0"/></clipPath><clipPath id="ba"><path d="M1.668 5.508c41.387-.297 57.285-1.871 71.375-2.399 13.758-.523 30.148-.148 40.84-.824 6.906-.375 14.91-2.922 17.047-1.648.66.375 1.043 1.199.988 1.726 0 .45-.602 1.274-.934 1.274-.382 0-1.203-.903-1.257-1.426 0-.45.71-1.5 1.093-1.574.387-.075.934.676 1.098 1.125.11.375 0 .972-.219 1.347-.437.602-1.262.75-2.633 1.051-4.328 1.05-17.707 1.2-28.23 1.649-13.484.523-33.055.449-45.992 1.05-9.485.45-16.117 1.422-24.617 1.649-9.153.375-25.489 1.949-28.559 0C.953 8.058.57 7.383.57 6.859c.055-.449 1.098-1.351 1.098-1.351"/></clipPath><clipPath id="aY"><path d="M0 0h132v10H0z"/></clipPath><clipPath id="bb"><path d="M37.219 176.555h112.535V199H37.219Zm0 0"/></clipPath><clipPath id="bc"><path d="M38.004 196.105c17.687-6.597 24.207-8.167 31.101-9.367 7.946-1.425 16.864-1.8 26.008-3.148 10.418-1.5 23.461-4.649 33.13-5.774 7.417-.824 17.163-1.796 19.937-.898.898.227 1.347.602 1.496 1.05.074.524-.297 1.423-.672 1.723-.375.227-1.05.227-1.426.075-.375-.149-.824-.676-.824-1.125 0-.524.824-1.649 1.273-1.723.524-.074 1.649.898 1.649 1.426.074.449-.524 1.12-1.496 1.574-2.7 1.273-12.145.074-19.489.898-9.668 1.047-22.933 4.27-33.351 5.77-9.07 1.351-17.84 1.648-25.633 3.074-6.672 1.2-12.969 2.7-18.437 4.422-4.575 1.422-10.043 5.02-12.293 4.871-.825-.074-1.575-.523-1.723-.973-.152-.453.75-1.875.75-1.875"/></clipPath><clipPath id="be"><path d="M.219.555h112.535V23H.219Zm0 0"/></clipPath><clipPath id="bf"><path d="M1.004 20.105c17.687-6.597 24.207-8.167 31.101-9.367 7.946-1.425 16.864-1.8 26.008-3.148 10.418-1.5 23.461-4.649 33.13-5.774C98.66.992 108.405.02 111.18.918c.898.227 1.347.602 1.496 1.05.074.524-.297 1.423-.672 1.723-.375.227-1.05.227-1.426.075-.375-.149-.824-.676-.824-1.125 0-.524.824-1.649 1.273-1.723.524-.074 1.649.898 1.649 1.426.074.449-.524 1.12-1.496 1.574-2.7 1.273-12.145.074-19.489.898-9.668 1.047-22.933 4.27-33.351 5.77-9.07 1.351-17.84 1.648-25.633 3.074-6.672 1.2-12.969 2.7-18.437 4.422-4.575 1.422-10.043 5.02-12.293 4.871-.825-.074-1.575-.523-1.723-.973-.152-.453.75-1.875.75-1.875"/></clipPath><clipPath id="bd"><path d="M0 0h113v23H0z"/></clipPath><clipPath id="bg"><path d="M42.508 183.379h106.664V217H42.508Zm0 0"/></clipPath><clipPath id="bh"><path d="M44.074 213.941c6.293-.597 20.61-6.218 31.028-9.066 11.992-3.223 26.683-5.246 39.05-8.918 11.618-3.523 28.93-12.816 33.125-12.441 1.051.074 1.723.597 1.875 1.12.075.45-.75 1.727-1.273 1.802-.45.074-1.649-.825-1.727-1.352 0-.45.903-1.57 1.426-1.649.45-.074 1.348.602 1.5 1.051.149.45.074 1.051-.601 1.723-2.774 2.848-21.286 8.844-33.653 12.668-14.765 4.496-36.648 8.02-49.242 11.617-7.945 2.246-15.437 6.219-19.262 6.445-1.574.149-2.922-.074-3.445-.601-.3-.371-.375-1.047-.152-1.422.152-.375 1.351-.977 1.351-.977"/></clipPath><clipPath id="bj"><path d="M.508.379h106.664V34H.508Zm0 0"/></clipPath><clipPath id="bk"><path d="M2.074 30.941c6.293-.597 20.61-6.218 31.028-9.066 11.992-3.223 26.683-5.246 39.05-8.918C83.77 9.434 101.082.141 105.277.516c1.051.074 1.723.597 1.875 1.12.075.45-.75 1.727-1.273 1.802-.45.074-1.649-.825-1.727-1.352 0-.45.903-1.57 1.426-1.648.45-.075 1.348.601 1.5 1.05.149.45.074 1.051-.601 1.723-2.774 2.848-21.286 8.844-33.653 12.668-14.765 4.496-36.648 8.02-49.242 11.617-7.945 2.246-15.437 6.219-19.262 6.445-1.574.149-2.922-.074-3.445-.601-.3-.371-.375-1.047-.152-1.422.152-.375 1.351-.977 1.351-.977"/></clipPath><clipPath id="bi"><path d="M0 0h108v34H0z"/></clipPath><clipPath id="bl"><path d="M63.082 195.371h82.606v41.117H63.082Zm0 0"/></clipPath><clipPath id="bm"><path d="M63.852 233.73c34.476-20.011 40.695-22.859 47.52-25.484 6.667-2.473 14.76-4.047 20.308-6.07 3.898-1.5 7.87-2.996 9.82-4.422 1.047-.75 1.273-2.024 2.023-2.25.598-.074 1.797.453 2.024.902.148.45-.527 1.797-.977 1.95-.449.148-1.797-.602-1.87-1.051-.153-.524.671-1.723 1.12-1.875.453-.149 1.426.375 1.653.824.222.375.222.902 0 1.426-.602 1.125-3.598 2.847-5.7 4.047-2.32 1.347-4.496 2.171-7.644 3.37-4.945 1.876-13.79 3.825-19.484 5.923-4.649 1.648-7.645 3-12.22 5.171-6.218 3-15.362 7.793-21.66 11.543-5.097 2.996-11.015 8.32-13.566 8.696-.898.148-1.648-.078-1.87-.528-.302-.449.523-2.172.523-2.172"/></clipPath><clipPath id="bo"><path d="M.082.371h82.605v41.117H.082Zm0 0"/></clipPath><clipPath id="bp"><path d="M.852 38.73c34.476-20.011 40.695-22.859 47.52-25.484 6.667-2.473 14.76-4.047 20.308-6.07 3.898-1.5 7.87-2.996 9.82-4.422 1.047-.75 1.273-2.024 2.023-2.25.598-.074 1.797.453 2.024.902.148.45-.527 1.797-.977 1.95-.449.148-1.797-.602-1.87-1.051-.153-.524.671-1.723 1.12-1.875.453-.149 1.426.375 1.653.824.222.375.222.902 0 1.426-.602 1.125-3.598 2.847-5.7 4.047-2.32 1.347-4.496 2.171-7.644 3.37-4.945 1.876-13.79 3.825-19.484 5.923-4.649 1.648-7.645 3-12.22 5.171-6.218 3-15.362 7.793-21.66 11.543C10.669 35.73 4.75 41.054 2.2 41.43c-.898.148-1.648-.078-1.87-.528-.302-.449.523-2.172.523-2.172"/></clipPath><clipPath id="bn"><path d="M0 0h83v42H0z"/></clipPath><clipPath id="bq"><path d="M29.457 160.465h95.316v13.496H29.457Zm0 0"/></clipPath><clipPath id="br"><path d="M124.082 173.922c-36.355-1.125-42.539-2.926-49.016-3.45-6.117-.523-12.332 0-17.898-.374-4.852-.301-9.961-.973-13.637-1.575-2.472-.449-4.035-.671-6.183-1.421-2.344-.825-6.317-2.25-7.325-3.598-.324-.375-.55-.824-.55-1.274 0-.527.39-1.652.586-1.652.226-.074.714.977.714 1.426 0 .523-.457 1.574-.683 1.574-.227-.074-.652-1.2-.617-1.648.03-.528.324-1.125.746-1.352 1.14-.598 4.98 2.7 7.293 3.524 2.113.75 3.644.976 6.05 1.425 3.645.598 8.754 1.274 13.606 1.575 5.566.375 11.848-.153 17.965.375 6.476.523 12.594 2.32 19.851 2.921 8.79.676 26.59-2.097 29.098.524.453.45.648 1.125.648 1.648 0 .528-.648 1.352-.648 1.352"/></clipPath><clipPath id="bt"><path d="M.457.465h95.316V13.96H.457Zm0 0"/></clipPath><clipPath id="bu"><path d="M95.082 13.922c-36.355-1.125-42.539-2.926-49.016-3.45-6.117-.523-12.332 0-17.898-.374-4.852-.301-9.961-.973-13.637-1.575-2.472-.449-4.035-.671-6.183-1.421-2.344-.825-6.317-2.25-7.325-3.598C.7 3.129.473 2.68.473 2.23c0-.527.39-1.652.586-1.652.226-.074.714.977.714 1.426 0 .523-.457 1.574-.683 1.574-.227-.074-.653-1.2-.617-1.648.03-.528.324-1.125.746-1.352 1.14-.598 4.98 2.7 7.293 3.524 2.113.75 3.644.976 6.05 1.425 3.645.598 8.754 1.274 13.606 1.575 5.566.375 11.848-.153 17.965.375 6.476.523 12.594 2.32 19.851 2.921 8.79.676 26.59-2.097 29.098.524.453.45.648 1.125.648 1.648 0 .528-.648 1.352-.648 1.352"/></clipPath><clipPath id="bs"><path d="M0 0h96v14H0z"/></clipPath><clipPath id="bv"><path d="M159.586 104.32h6.797v24.301h-6.797Zm0 0"/></clipPath><clipPath id="bw"><path d="M162.297 104.91c4.426 13.492 4.426 20.684 3.75 22.559-.227.601-.524.898-.899 1.05-.375.149-1.05.075-1.425-.226-.598-.45-1.426-2.324-1.348-3.148.074-.672.598-1.348 1.047-1.497.375-.152 1.05-.078 1.351.223.375.227.598.824.598 1.274 0 .375-.375.976-.75 1.199-.297.226-.973.3-1.348.078-.449-.227-.898-1.125-.898-1.652.074-.375.523-.899.898-1.047.375-.227.973-.227 1.422.074.602.45 1.575 2.848 1.352 3.672-.152.523-.824 1.05-1.274 1.125-.449.074-1.125-.149-1.5-.824-1.05-1.723.524-9.446-.3-13.34-.676-3.223-3.524-6.899-3.371-8.547 0-.672.375-1.274.824-1.496.449-.227 1.87.523 1.87.523"/></clipPath><clipPath id="by"><path d="M.586.32h6.797v24.301H.586Zm0 0"/></clipPath><clipPath id="bz"><path d="M3.297.91c4.426 13.492 4.426 20.684 3.75 22.559-.227.601-.524.898-.899 1.05-.375.149-1.05.075-1.425-.226-.598-.45-1.426-2.324-1.348-3.148.074-.672.598-1.348 1.047-1.497.375-.152 1.05-.078 1.351.223.375.227.598.824.598 1.274 0 .375-.375.976-.75 1.199-.297.226-.973.3-1.348.078-.449-.227-.898-1.125-.898-1.652.074-.375.523-.899.898-1.047.375-.227.973-.227 1.422.074.602.45 1.575 2.848 1.352 3.672-.152.523-.824 1.05-1.274 1.125-.449.074-1.125-.149-1.5-.824-1.05-1.723.524-9.446-.3-13.34C3.297 7.207.449 3.53.602 1.883c0-.672.375-1.274.824-1.496.449-.227 1.87.523 1.87.523"/></clipPath><clipPath id="bx"><path d="M0 0h8v25H0z"/></clipPath><clipPath id="bA"><path d="M177.785 100.371h5.914v20.918h-5.914Zm0 0"/></clipPath><clipPath id="bB"><path d="M181.184 101.836c.449 12.965 2.773 16.187 2.472 17.762-.148.824-.898 1.574-1.422 1.648-.375.152-1.05-.223-1.273-.523-.227-.45-.3-1.426 0-1.875.223-.297.824-.598 1.273-.598.375.074.973.375 1.2.75.222.45.148 1.422-.227 1.797-.297.375-1.2.601-1.723.3-.972-.449-1.797-2.847-2.324-4.347-.597-1.5-.75-2.773-.972-4.645-.301-2.699-.676-8.394 0-10.27.3-.75.824-1.425 1.347-1.425.45-.074 1.649 1.426 1.649 1.426"/></clipPath><clipPath id="bD"><path d="M.785.371H6.7V21.29H.785Zm0 0"/></clipPath><clipPath id="bE"><path d="M4.184 1.836C4.633 14.8 6.957 18.023 6.656 19.598c-.148.824-.898 1.574-1.422 1.648-.375.152-1.05-.223-1.273-.523-.227-.45-.3-1.426 0-1.875.223-.297.824-.598 1.273-.598.375.074.973.375 1.2.75.222.45.148 1.422-.227 1.797-.297.375-1.2.601-1.723.3-.972-.449-1.796-2.847-2.324-4.347-.598-1.5-.75-2.773-.973-4.645-.3-2.699-.675-8.394 0-10.27.301-.75.825-1.425 1.348-1.425.45-.074 1.649 1.426 1.649 1.426"/></clipPath><clipPath id="bC"><path d="M0 0h7v22H0z"/></clipPath><clipPath id="bF"><path d="M189.953 98.258h6.309v24.805h-6.309Zm0 0"/></clipPath><clipPath id="bG"><path d="M196.25 100.04c-3.672 22.706-4.27 23.081-4.719 23.007-.527-.074-1.426-1.2-1.426-1.723.075-.449 1.274-1.273 1.797-1.273.453 0 .903.523 1.125.898.153.375.153 1.047-.148 1.422-.3.375-1.2.75-1.649.602-.527-.149-.898-.676-1.125-1.5-.523-2.024.676-8.32 1.2-12.215.597-3.524.972-8.621 2.097-10.121.528-.598 1.352-.973 1.801-.825.45.153 1.047 1.727 1.047 1.727"/></clipPath><clipPath id="bI"><path d="M.953.258h6.309v24.804H.953Zm0 0"/></clipPath><clipPath id="bJ"><path d="M7.25 2.04C3.578 24.745 2.98 25.12 2.531 25.046c-.527-.074-1.426-1.2-1.426-1.723.075-.449 1.274-1.273 1.797-1.273.453 0 .903.523 1.125.898.153.375.153 1.047-.148 1.422-.3.375-1.2.75-1.649.602-.527-.149-.898-.676-1.125-1.5-.523-2.024.676-8.32 1.2-12.215.597-3.524.972-8.621 2.097-10.121C4.93.539 5.754.164 6.203.313c.45.152 1.047 1.726 1.047 1.726"/></clipPath><clipPath id="bH"><path d="M0 0h8v26H0z"/></clipPath><clipPath id="bK"><path d="M210.477 102.2h13.214v18.44h-13.214Zm0 0"/></clipPath><clipPath id="bL"><path d="M223.605 104.684c-5.695 8.843-8.843 11.691-9.816 13.34-.453.824-.3 1.648-.676 2.097-.375.3-.976.527-1.347.453-.453-.078-.977-.453-1.125-.824-.153-.453.074-1.5.375-1.8.297-.302.972-.45 1.347-.302.45.075.899.528 1.051.977.149.375 0 1.047-.226 1.348-.223.3-.825.675-1.274.601-.45-.078-1.273-.601-1.348-1.199-.226-.824.746-2.25 1.723-3.898 1.797-3.149 6.969-11.692 9.145-12.891.824-.45 1.648-.45 2.023-.152.375.375.148 2.25.148 2.25"/></clipPath><clipPath id="bN"><path d="M.477.2H13.69v18.44H.477Zm0 0"/></clipPath><clipPath id="bO"><path d="M13.605 2.684C7.91 11.527 4.762 14.375 3.79 16.024c-.453.824-.3 1.648-.676 2.097-.375.3-.976.527-1.347.453-.453-.078-.977-.453-1.125-.824-.153-.453.074-1.5.375-1.8.297-.302.972-.45 1.347-.302.45.075.899.528 1.051.977.148.375 0 1.047-.227 1.348-.222.3-.824.675-1.273.601-.45-.078-1.273-.601-1.348-1.199-.226-.824.747-2.25 1.723-3.898C4.086 10.328 9.258 1.785 11.434.586c.824-.45 1.648-.45 2.023-.152.375.375.148 2.25.148 2.25"/></clipPath><clipPath id="bM"><path d="M0 0h14v19H0z"/></clipPath><clipPath id="bP"><path d="M223.605 104.578h4.301v21.277h-4.3Zm0 0"/></clipPath><clipPath id="bQ"><path d="M227.879 105.883c-1.2 19.637-1.8 20.012-2.25 19.937-.524 0-1.348-.675-1.422-1.125-.078-.523.75-1.722 1.273-1.8.45-.075 1.649.824 1.723 1.277 0 .523-.898 1.648-1.422 1.648-.527.075-1.199-.601-1.574-1.5-1.125-2.625-.45-15.816.672-18.363.375-.824.976-1.348 1.5-1.348.45 0 1.5 1.274 1.5 1.274"/></clipPath><clipPath id="bS"><path d="M.605.578h4.301v21.277h-4.3Zm0 0"/></clipPath><clipPath id="bT"><path d="M4.879 1.883c-1.2 19.637-1.8 20.012-2.25 19.937-.524 0-1.348-.675-1.422-1.125-.078-.523.75-1.722 1.273-1.8.45-.075 1.649.824 1.723 1.277 0 .523-.898 1.648-1.422 1.648-.527.075-1.199-.601-1.574-1.5-1.125-2.625-.45-15.816.672-18.363.375-.824.976-1.348 1.5-1.348.45 0 1.5 1.274 1.5 1.274"/></clipPath><clipPath id="bR"><path d="M0 0h5v22H0z"/></clipPath><clipPath id="bU"><path d="M91.895 144.305h23.695v28.62H91.895Zm0 0"/></clipPath><clipPath id="bV"><path d="M115.305 146.957c-12.293 9.219-13.715 10.64-15.215 12.363-1.574 1.801-3.445 3.75-4.27 5.996-.902 2.102-.078 5.996-.976 6.973-.45.524-1.348.75-1.797.524-.453-.223-.902-1.575-.75-2.024.148-.45.75-.824 1.125-.898.45 0 1.121.148 1.348.523.3.375.148 1.723-.149 2.176-.3.297-.976.37-1.351.222-.45-.148-.899-.75-1.125-1.421-.375-1.278-.075-3.973.375-5.7.449-1.648 1.05-2.847 2.25-4.496 1.796-2.699 6.144-7.496 8.543-9.144 1.351-.973 2.25-.75 3.523-1.574 1.95-1.2 4.945-5.32 6.672-5.918.75-.227 1.648-.227 1.949.148.297.45-.152 2.25-.152 2.25"/></clipPath><clipPath id="bX"><path d="M.895.305H24.59v28.62H.895Zm0 0"/></clipPath><clipPath id="bY"><path d="M24.305 2.957C12.012 12.176 10.59 13.597 9.09 15.32c-1.574 1.801-3.445 3.75-4.27 5.996-.902 2.102-.078 5.997-.976 6.973-.45.523-1.348.75-1.797.523-.453-.222-.902-1.574-.75-2.023.148-.45.75-.824 1.125-.898.45 0 1.121.148 1.348.523.3.375.148 1.723-.149 2.176-.3.297-.976.37-1.351.223-.45-.149-.899-.75-1.125-1.422-.375-1.278-.075-3.973.375-5.7.449-1.648 1.05-2.847 2.25-4.496 1.796-2.699 6.144-7.496 8.542-9.144 1.352-.973 2.25-.75 3.524-1.574 1.95-1.2 4.945-5.32 6.672-5.918.75-.227 1.648-.227 1.949.148.297.45-.152 2.25-.152 2.25"/></clipPath><clipPath id="bW"><path d="M0 0h25v29H0z"/></clipPath><clipPath id="bZ"><path d="M258.95 136.805h23.937v29.14h-23.938Zm0 0"/></clipPath><clipPath id="ca"><path d="M260.48 136.91c11.918 5.098 16.938 10.645 18.813 13.344.973 1.348 1.273 2.098 1.723 3.445.601 1.649.976 3.973 1.277 5.922.223 1.723.824 4.121.297 5.098-.223.672-.899 1.125-1.422 1.125-.45.074-1.273-.602-1.426-1.051-.148-.375 0-1.05.301-1.348.223-.3.824-.601 1.273-.527.45.074 1.274.75 1.348 1.2 0 .527-.824 1.648-1.273 1.726-.45.148-1.2-.227-1.575-.903-.972-1.421-.296-6.894-1.046-9.367-.602-1.875-1.274-2.847-2.473-4.574-2.027-2.621-6.149-7.27-9.371-9.219-2.473-1.422-6.446-1.199-7.496-2.246-.45-.523-.524-1.273-.371-1.648.148-.45 1.421-.977 1.421-.977"/></clipPath><clipPath id="cc"><path d="M.95.805h23.937v29.14H.949Zm0 0"/></clipPath><clipPath id="cd"><path d="M2.48.91c11.918 5.098 16.938 10.645 18.813 13.344.973 1.348 1.273 2.098 1.723 3.445.601 1.649.976 3.973 1.277 5.922.223 1.723.824 4.121.297 5.098-.223.672-.899 1.125-1.422 1.125-.45.074-1.273-.602-1.426-1.051-.148-.375 0-1.05.301-1.348.223-.3.824-.601 1.273-.527.45.074 1.274.75 1.348 1.2 0 .527-.824 1.648-1.273 1.726-.45.148-1.2-.227-1.575-.903-.972-1.421-.296-6.894-1.046-9.367-.602-1.875-1.274-2.847-2.473-4.574-2.027-2.621-6.149-7.27-9.371-9.219C6.453 4.36 2.48 4.582 1.43 3.535c-.45-.523-.524-1.273-.371-1.648C1.207 1.437 2.48.91 2.48.91"/></clipPath><clipPath id="cb"><path d="M0 0h25v30H0z"/></clipPath><linearGradient id="R" x1="207.638" x2="207.638" y1="256" y2="0" gradientTransform="translate(.392 .897)scale(.08392)" gradientUnits="userSpaceOnUse"><stop offset="0" stop-color="#3c2626"/><stop offset=".004" stop-color="#3d2727"/><stop offset=".008" stop-color="#3e2827"/><stop offset=".012" stop-color="#3f2928"/><stop offset=".016" stop-color="#402929"/><stop offset=".02" stop-color="#412a2a"/><stop offset=".023" stop-color="#422b2a"/><stop offset=".027" stop-color="#432c2b"/><stop offset=".031" stop-color="#442d2c"/><stop offset=".035" stop-color="#452e2d"/><stop offset=".039" stop-color="#462f2d"/><stop offset=".043" stop-color="#48302e"/><stop offset=".047" stop-color="#49302f"/><stop offset=".051" stop-color="#4a3130"/><stop offset=".055" stop-color="#4b3230"/><stop offset=".059" stop-color="#4c3331"/><stop offset=".063" stop-color="#4d3432"/><stop offset=".066" stop-color="#4e3533"/><stop offset=".07" stop-color="#4f3633"/><stop offset=".074" stop-color="#503634"/><stop offset=".078" stop-color="#513735"/><stop offset=".082" stop-color="#523836"/><stop offset=".086" stop-color="#533936"/><stop offset=".09" stop-color="#543a37"/><stop offset=".094" stop-color="#553b38"/><stop offset=".098" stop-color="#563c39"/><stop offset=".102" stop-color="#573d39"/><stop offset=".105" stop-color="#583d3a"/><stop offset=".109" stop-color="#593e3b"/><stop offset=".113" stop-color="#5a3f3c"/><stop offset=".117" stop-color="#5b403c"/><stop offset=".121" stop-color="#5c413d"/><stop offset=".125" stop-color="#5e423e"/><stop offset=".129" stop-color="#5f433e"/><stop offset=".133" stop-color="#60433f"/><stop offset=".137" stop-color="#614440"/><stop offset=".141" stop-color="#624541"/><stop offset=".145" stop-color="#634641"/><stop offset=".148" stop-color="#644742"/><stop offset=".152" stop-color="#654843"/><stop offset=".156" stop-color="#664944"/><stop offset=".16" stop-color="#674a44"/><stop offset=".164" stop-color="#684a45"/><stop offset=".168" stop-color="#694b46"/><stop offset=".172" stop-color="#6a4c47"/><stop offset=".176" stop-color="#6b4d47"/><stop offset=".18" stop-color="#6c4e48"/><stop offset=".184" stop-color="#6d4f49"/><stop offset=".188" stop-color="#6e504a"/><stop offset=".191" stop-color="#6f504a"/><stop offset=".195" stop-color="#70514b"/><stop offset=".199" stop-color="#71524c"/><stop offset=".203" stop-color="#72534d"/><stop offset=".207" stop-color="#73544d"/><stop offset=".211" stop-color="#75554e"/><stop offset=".215" stop-color="#76564f"/><stop offset=".219" stop-color="#775750"/><stop offset=".223" stop-color="#785750"/><stop offset=".227" stop-color="#795851"/><stop offset=".23" stop-color="#7a5952"/><stop offset=".234" stop-color="#7b5a53"/><stop offset=".238" stop-color="#7c5b53"/><stop offset=".242" stop-color="#7d5c54"/><stop offset=".246" stop-color="#7e5d55"/><stop offset=".25" stop-color="#7f5d56"/><stop offset=".254" stop-color="#805e56"/><stop offset=".258" stop-color="#815f57"/><stop offset=".262" stop-color="#826058"/><stop offset=".266" stop-color="#836158"/><stop offset=".27" stop-color="#846259"/><stop offset=".273" stop-color="#85635a"/><stop offset=".277" stop-color="#86645b"/><stop offset=".281" stop-color="#87645b"/><stop offset=".285" stop-color="#88655c"/><stop offset=".289" stop-color="#89665d"/><stop offset=".293" stop-color="#8b675e"/><stop offset=".297" stop-color="#8c685e"/><stop offset=".301" stop-color="#8d695f"/><stop offset=".305" stop-color="#8e6a60"/><stop offset=".309" stop-color="#8f6b61"/><stop offset=".313" stop-color="#906b61"/><stop offset=".316" stop-color="#916c62"/><stop offset=".32" stop-color="#926d63"/><stop offset=".324" stop-color="#936e64"/><stop offset=".328" stop-color="#946f64"/><stop offset=".332" stop-color="#957065"/><stop offset=".336" stop-color="#967166"/><stop offset=".34" stop-color="#977167"/><stop offset=".344" stop-color="#987267"/><stop offset=".348" stop-color="#997368"/><stop offset=".352" stop-color="#9a7469"/><stop offset=".355" stop-color="#9b756a"/><stop offset=".359" stop-color="#9c766a"/><stop offset=".363" stop-color="#9d776b"/><stop offset=".367" stop-color="#9e786c"/><stop offset=".371" stop-color="#9f786d"/><stop offset=".375" stop-color="#a0796d"/><stop offset=".379" stop-color="#a27a6e"/><stop offset=".383" stop-color="#a37b6f"/><stop offset=".387" stop-color="#a47c6f"/><stop offset=".391" stop-color="#a57d70"/><stop offset=".395" stop-color="#a67e71"/><stop offset=".398" stop-color="#a77e72"/><stop offset=".402" stop-color="#a87f72"/><stop offset=".406" stop-color="#a98073"/><stop offset=".41" stop-color="#aa8174"/><stop offset=".414" stop-color="#ab8275"/><stop offset=".418" stop-color="#ac8375"/><stop offset=".422" stop-color="#ad8476"/><stop offset=".426" stop-color="#ae8577"/><stop offset=".43" stop-color="#af8578"/><stop offset=".434" stop-color="#b08678"/><stop offset=".438" stop-color="#b18779"/><stop offset=".441" stop-color="#b2887a"/><stop offset=".445" stop-color="#b3897b"/><stop offset=".449" stop-color="#b48a7b"/><stop offset=".453" stop-color="#b58b7c"/><stop offset=".457" stop-color="#b68b7d"/><stop offset=".461" stop-color="#b88c7e"/><stop offset=".465" stop-color="#b98d7e"/><stop offset=".469" stop-color="#ba8e7f"/><stop offset=".473" stop-color="#bb8f80"/><stop offset=".477" stop-color="#bc9081"/><stop offset=".48" stop-color="#bd9181"/><stop offset=".484" stop-color="#be9282"/><stop offset=".488" stop-color="#bf9283"/><stop offset=".492" stop-color="#c09384"/><stop offset=".496" stop-color="#c19484"/><stop offset=".5" stop-color="#c29585"/><stop offset=".504" stop-color="#c29685"/><stop offset=".508" stop-color="#c39686"/><stop offset=".512" stop-color="#c39786"/><stop offset=".516" stop-color="#c49886"/><stop offset=".52" stop-color="#c49887"/><stop offset=".523" stop-color="#c49987"/><stop offset=".527" stop-color="#c59a87"/><stop offset=".531" stop-color="#c59a88"/><stop offset=".535" stop-color="#c69b88"/><stop offset=".539" stop-color="#c69c88"/><stop offset=".543" stop-color="#c69c89"/><stop offset=".547" stop-color="#c79d89"/><stop offset=".551" stop-color="#c79e89"/><stop offset=".555" stop-color="#c89e89"/><stop offset=".559" stop-color="#c89f8a"/><stop offset=".563" stop-color="#c89f8a"/><stop offset=".566" stop-color="#c9a08a"/><stop offset=".57" stop-color="#c9a18b"/><stop offset=".574" stop-color="#caa18b"/><stop offset=".578" stop-color="#caa28b"/><stop offset=".582" stop-color="#caa38c"/><stop offset=".586" stop-color="#cba38c"/><stop offset=".59" stop-color="#cba48c"/><stop offset=".594" stop-color="#cca58d"/><stop offset=".598" stop-color="#cca58d"/><stop offset=".602" stop-color="#cca68d"/><stop offset=".605" stop-color="#cda78e"/><stop offset=".609" stop-color="#cda78e"/><stop offset=".613" stop-color="#cea88e"/><stop offset=".617" stop-color="#cea98f"/><stop offset=".621" stop-color="#cea98f"/><stop offset=".625" stop-color="#cfaa8f"/><stop offset=".629" stop-color="#cfab90"/><stop offset=".633" stop-color="#d0ab90"/><stop offset=".637" stop-color="#d0ac90"/><stop offset=".641" stop-color="#d0ad91"/><stop offset=".645" stop-color="#d1ad91"/><stop offset=".648" stop-color="#d1ae91"/><stop offset=".652" stop-color="#d2af91"/><stop offset=".656" stop-color="#d2af92"/><stop offset=".66" stop-color="#d2b092"/><stop offset=".664" stop-color="#d3b192"/><stop offset=".668" stop-color="#d3b193"/><stop offset=".672" stop-color="#d4b293"/><stop offset=".676" stop-color="#d4b393"/><stop offset=".68" stop-color="#d4b394"/><stop offset=".684" stop-color="#d5b494"/><stop offset=".688" stop-color="#d5b494"/><stop offset=".691" stop-color="#d6b595"/><stop offset=".695" stop-color="#d6b695"/><stop offset=".699" stop-color="#d6b695"/><stop offset=".703" stop-color="#d7b796"/><stop offset=".707" stop-color="#d7b896"/><stop offset=".711" stop-color="#d8b896"/><stop offset=".715" stop-color="#d8b997"/><stop offset=".719" stop-color="#d8ba97"/><stop offset=".723" stop-color="#d9ba97"/><stop offset=".727" stop-color="#d9bb98"/><stop offset=".73" stop-color="#dabc98"/><stop offset=".734" stop-color="#dabc98"/><stop offset=".738" stop-color="#dabd99"/><stop offset=".742" stop-color="#dbbe99"/><stop offset=".746" stop-color="#dbbe99"/><stop offset=".75" stop-color="#dcbf9a"/><stop offset=".754" stop-color="#dcc09a"/><stop offset=".758" stop-color="#dcc09a"/><stop offset=".762" stop-color="#ddc19a"/><stop offset=".766" stop-color="#ddc29b"/><stop offset=".77" stop-color="#ddc29b"/><stop offset=".773" stop-color="#dec39b"/><stop offset=".777" stop-color="#dec49c"/><stop offset=".781" stop-color="#dfc49c"/><stop offset=".785" stop-color="#dfc59c"/><stop offset=".789" stop-color="#dfc69d"/><stop offset=".793" stop-color="#e0c69d"/><stop offset=".797" stop-color="#e0c79d"/><stop offset=".801" stop-color="#e1c89e"/><stop offset=".805" stop-color="#e1c89e"/><stop offset=".809" stop-color="#e1c99e"/><stop offset=".813" stop-color="#e2c99f"/><stop offset=".816" stop-color="#e2ca9f"/><stop offset=".82" stop-color="#e3cb9f"/><stop offset=".824" stop-color="#e3cba0"/><stop offset=".828" stop-color="#e3cca0"/><stop offset=".832" stop-color="#e4cda0"/><stop offset=".836" stop-color="#e4cda1"/><stop offset=".84" stop-color="#e5cea1"/><stop offset=".844" stop-color="#e5cfa1"/><stop offset=".848" stop-color="#e5cfa2"/><stop offset=".852" stop-color="#e6d0a2"/><stop offset=".855" stop-color="#e6d1a2"/><stop offset=".859" stop-color="#e7d1a2"/><stop offset=".863" stop-color="#e7d2a3"/><stop offset=".867" stop-color="#e7d3a3"/><stop offset=".871" stop-color="#e8d3a3"/><stop offset=".875" stop-color="#e8d4a4"/><stop offset=".879" stop-color="#e9d5a4"/><stop offset=".883" stop-color="#e9d5a4"/><stop offset=".887" stop-color="#e9d6a5"/><stop offset=".891" stop-color="#ead7a5"/><stop offset=".895" stop-color="#ead7a5"/><stop offset=".898" stop-color="#ebd8a6"/><stop offset=".902" stop-color="#ebd9a6"/><stop offset=".906" stop-color="#ebd9a6"/><stop offset=".91" stop-color="#ecdaa7"/><stop offset=".914" stop-color="#ecdba7"/><stop offset=".918" stop-color="#eddba7"/><stop offset=".922" stop-color="#eddca8"/><stop offset=".926" stop-color="#eddda8"/><stop offset=".93" stop-color="#eedda8"/><stop offset=".934" stop-color="#eedea9"/><stop offset=".938" stop-color="#efdea9"/><stop offset=".941" stop-color="#efdfa9"/><stop offset=".945" stop-color="#efe0aa"/><stop offset=".949" stop-color="#f0e0aa"/><stop offset=".953" stop-color="#f0e1aa"/><stop offset=".957" stop-color="#f1e2aa"/><stop offset=".961" stop-color="#f1e2ab"/><stop offset=".965" stop-color="#f1e3ab"/><stop offset=".969" stop-color="#f2e4ab"/><stop offset=".973" stop-color="#f2e4ac"/><stop offset=".977" stop-color="#f3e5ac"/><stop offset=".98" stop-color="#f3e6ac"/><stop offset=".984" stop-color="#f3e6ad"/><stop offset=".988" stop-color="#f4e7ad"/><stop offset=".992" stop-color="#f4e8ad"/><stop offset=".996" stop-color="#f5e8ae"/><stop offset="1" stop-color="#f5e9ae"/></linearGradient></defs><g clip-path="url(#a)"><g clip-path="url(#b)"><g clip-path="url(#c)" transform="translate(68 90)"><g clip-path="url(#d)"><g clip-path="url(#e)"><path fill="#bfa06f" d="M.27.66h242.46v193.965H.27Zm0 0"/></g></g></g></g></g><g clip-path="url(#f)"><g clip-path="url(#g)"><g clip-path="url(#h)" transform="translate(143 139)"><g clip-path="url(#i)"><g clip-path="url(#j)"><path fill="#bfa06f" d="M-231.44-220.345h578.88v532.44h-578.88z"/></g></g></g></g></g><g clip-path="url(#k)"><g clip-path="url(#l)"><g clip-path="url(#m)"><g clip-path="url(#n)" transform="translate(113 126)"><g clip-path="url(#o)"><g clip-path="url(#p)"><g clip-path="url(#q)"><path fill="#3a291b" d="M-.89 25.965 2.964-2.508l52.16 7.067-3.86 28.468Zm0 0"/></g></g></g></g></g></g></g><g clip-path="url(#r)"><g clip-path="url(#s)"><g clip-path="url(#t)"><g clip-path="url(#u)" transform="translate(115 127)"><g clip-path="url(#v)"><g clip-path="url(#w)"><g clip-path="url(#x)"><path fill="#ccb287" d="M-1.254 24.336 2.38-2.473 51.492 4.18 47.86 30.988Zm0 0"/></g></g></g></g></g></g></g><g clip-path="url(#y)"><g clip-path="url(#z)"><g clip-path="url(#A)"><g clip-path="url(#B)" transform="translate(209 127)"><g clip-path="url(#C)"><g clip-path="url(#D)"><g clip-path="url(#E)"><path fill="#3a291b" d="m1.363 31.395-2.386-28.63L51.43-1.608l2.386 28.632Zm0 0"/></g></g></g></g></g></g></g><g clip-path="url(#F)"><g clip-path="url(#G)"><g clip-path="url(#H)"><g clip-path="url(#I)" transform="translate(210 128)"><g clip-path="url(#J)"><g clip-path="url(#K)"><g clip-path="url(#L)"><path fill="#ccb287" d="M1.828 29.43-.418 2.473l49.39-4.118 2.247 26.958Zm0 0"/></g></g></g></g></g></g></g><g clip-path="url(#M)"><g clip-path="url(#N)"><g clip-path="url(#O)" transform="translate(170 141)"><g clip-path="url(#P)"><g clip-path="url(#Q)"><path fill="url(#R)" d="M.39.898v21.485H35.22V.898Zm0 0"/></g></g></g></g></g><g clip-path="url(#S)"><g clip-path="url(#T)"><g clip-path="url(#U)" transform="translate(169 157)"><g clip-path="url(#V)"><g clip-path="url(#W)"><path fill="#a07358" d="M.883.582h35.894v17.98H.883Zm0 0"/></g></g></g></g></g><g clip-path="url(#X)"><g clip-path="url(#Y)"><g clip-path="url(#Z)" transform="translate(129 188)"><g clip-path="url(#aa)"><g clip-path="url(#ab)"><path fill="#8f5554" d="M118.5 107.703H.902V.95H118.5Zm0 0"/></g></g></g></g></g><g clip-path="url(#ac)"><g clip-path="url(#ad)"><g clip-path="url(#ae)"><g clip-path="url(#af)" transform="translate(172 186)"><g clip-path="url(#ag)"><g clip-path="url(#ah)"><g clip-path="url(#ai)"><path fill="#a55048" d="m29.969.902-2.172 86.68-27.461-.687L2.504.215Zm0 0"/></g></g></g></g></g></g></g><g clip-path="url(#aj)"><g clip-path="url(#ak)"><g clip-path="url(#al)" transform="translate(162 198)"><g clip-path="url(#am)"><g clip-path="url(#an)"><path fill="#c2b19d" d="M13.297 48.45H.44V.495h12.856Zm0 0"/></g></g></g></g></g><g clip-path="url(#ao)"><g clip-path="url(#ap)"><g clip-path="url(#aq)"><g clip-path="url(#ar)" transform="translate(137 165)"><g clip-path="url(#as)"><g clip-path="url(#at)"><g clip-path="url(#au)"><path fill="#d0cebd" d="m26.188-8.348 28.464 29.61-34.468 33.133-28.465-29.61Zm0 0"/></g></g></g></g></g></g></g><g clip-path="url(#av)"><g clip-path="url(#aw)"><g clip-path="url(#ax)" transform="translate(201 198)"><g clip-path="url(#ay)"><g clip-path="url(#az)"><path fill="#c2b19d" d="M13.82 48.45H.97V.495H13.82Zm0 0"/></g></g></g></g></g><g clip-path="url(#aA)"><g clip-path="url(#aB)"><g clip-path="url(#aC)"><g clip-path="url(#aD)" transform="translate(190 166)"><g clip-path="url(#aE)"><g clip-path="url(#aF)"><g clip-path="url(#aG)"><path fill="#d0cebd" d="m-8.531 21.746 27.933-30.11 35.051 32.52-27.933 30.11Zm0 0"/></g></g></g></g></g></g></g><g clip-path="url(#aH)"><g clip-path="url(#aI)"><g clip-path="url(#aJ)" transform="translate(228 176)"><g clip-path="url(#aK)"><g clip-path="url(#aL)"><path fill="#fff" d="M-316.44-257.345h578.88v532.44h-578.88z"/></g></g></g></g></g><g clip-path="url(#aM)"><g clip-path="url(#aN)"><g clip-path="url(#aO)" transform="translate(234 184)"><g clip-path="url(#aP)"><g clip-path="url(#aQ)"><path fill="#fff" d="M-322.44-265.345h578.88v532.44h-578.88z"/></g></g></g></g></g><g clip-path="url(#aR)"><g clip-path="url(#aS)"><g clip-path="url(#aT)" transform="translate(232 198)"><g clip-path="url(#aU)"><g clip-path="url(#aV)"><path fill="#fff" d="M-320.44-279.345h578.88v532.44h-578.88z"/></g></g></g></g></g><g clip-path="url(#aW)"><g clip-path="url(#aX)"><g clip-path="url(#aY)" transform="translate(231 160)"><g clip-path="url(#aZ)"><g clip-path="url(#ba)"><path fill="#fff" d="M-319.44-241.345h578.88v532.44h-578.88z"/></g></g></g></g></g><g clip-path="url(#bb)"><g clip-path="url(#bc)"><g clip-path="url(#bd)" transform="translate(37 176)"><g clip-path="url(#be)"><g clip-path="url(#bf)"><path fill="#fff" d="M-125.44-257.345h578.88v532.44h-578.88z"/></g></g></g></g></g><g clip-path="url(#bg)"><g clip-path="url(#bh)"><g clip-path="url(#bi)" transform="translate(42 183)"><g clip-path="url(#bj)"><g clip-path="url(#bk)"><path fill="#fff" d="M-130.44-264.345h578.88v532.44h-578.88z"/></g></g></g></g></g><g clip-path="url(#bl)"><g clip-path="url(#bm)"><g clip-path="url(#bn)" transform="translate(63 195)"><g clip-path="url(#bo)"><g clip-path="url(#bp)"><path fill="#fff" d="M-151.44-276.345h578.88v532.44h-578.88z"/></g></g></g></g></g><g clip-path="url(#bq)"><g clip-path="url(#br)"><g clip-path="url(#bs)" transform="translate(29 160)"><g clip-path="url(#bt)"><g clip-path="url(#bu)"><path fill="#fff" d="M-117.44-241.345h578.88v532.44h-578.88z"/></g></g></g></g></g><g clip-path="url(#bv)"><g clip-path="url(#bw)"><g clip-path="url(#bx)" transform="translate(159 104)"><g clip-path="url(#by)"><g clip-path="url(#bz)"><path fill="#9d7f51" d="M-247.44-185.345h578.88v532.44h-578.88z"/></g></g></g></g></g><g clip-path="url(#bA)"><g clip-path="url(#bB)"><g clip-path="url(#bC)" transform="translate(177 100)"><g clip-path="url(#bD)"><g clip-path="url(#bE)"><path fill="#9d7f51" d="M-265.44-181.345h578.88v532.44h-578.88z"/></g></g></g></g></g><g clip-path="url(#bF)"><g clip-path="url(#bG)"><g clip-path="url(#bH)" transform="translate(189 98)"><g clip-path="url(#bI)"><g clip-path="url(#bJ)"><path fill="#9d7f51" d="M-277.44-179.345h578.88v532.44h-578.88z"/></g></g></g></g></g><g clip-path="url(#bK)"><g clip-path="url(#bL)"><g clip-path="url(#bM)" transform="translate(210 102)"><g clip-path="url(#bN)"><g clip-path="url(#bO)"><path fill="#9d7f51" d="M-298.44-183.345h578.88v532.44h-578.88z"/></g></g></g></g></g><g clip-path="url(#bP)"><g clip-path="url(#bQ)"><g clip-path="url(#bR)" transform="translate(223 104)"><g clip-path="url(#bS)"><g clip-path="url(#bT)"><path fill="#9d7f51" d="M-311.44-185.345h578.88v532.44h-578.88z"/></g></g></g></g></g><g clip-path="url(#bU)"><g clip-path="url(#bV)"><g clip-path="url(#bW)" transform="translate(91 144)"><g clip-path="url(#bX)"><g clip-path="url(#bY)"><path fill="#9d7f51" d="M-179.44-225.345h578.88v532.44h-578.88z"/></g></g></g></g></g><g clip-path="url(#bZ)"><g clip-path="url(#ca)"><g clip-path="url(#cb)" transform="translate(258 136)"><g clip-path="url(#cc)"><g clip-path="url(#cd)"><path fill="#9d7f51" d="M-346.44-217.345h578.88v532.44h-578.88z"/></g></g></g></g></g></svg>